<?xml version="1.0" encoding="utf-8" standalone="no"?>
<!DOCTYPE svg PUBLIC "-//W3C//DTD SVG 1.1//EN"
  "http://www.w3.org/Graphics/SVG/1.1/DTD/svg11.dtd">
<svg xmlns:xlink="http://www.w3.org/1999/xlink" width="864pt" height="360pt" viewBox="0 0 864 360" xmlns="http://www.w3.org/2000/svg" version="1.1">
 <metadata>
  <rdf:RDF xmlns:dc="http://purl.org/dc/elements/1.1/" xmlns:cc="http://creativecommons.org/ns#" xmlns:rdf="http://www.w3.org/1999/02/22-rdf-syntax-ns#">
   <cc:Work>
    <dc:type rdf:resource="http://purl.org/dc/dcmitype/StillImage"/>
    <dc:date>2023-08-01T09:01:07.443686</dc:date>
    <dc:format>image/svg+xml</dc:format>
    <dc:creator>
     <cc:Agent>
      <dc:title>Matplotlib v3.7.2, https://matplotlib.org/</dc:title>
     </cc:Agent>
    </dc:creator>
   </cc:Work>
  </rdf:RDF>
 </metadata>
 <defs>
  <style type="text/css">*{stroke-linejoin: round; stroke-linecap: butt}</style>
 </defs>
 <g id="figure_1">
  <g id="patch_1">
   <path d="M 0 360 
L 864 360 
L 864 0 
L 0 0 
L 0 360 
z
" style="fill: none; opacity: 0"/>
  </g>
  <g id="axes_1">
   <g id="patch_2">
    <path d="M 108 320.4 
L 777.6 320.4 
L 777.6 43.2 
L 108 43.2 
L 108 320.4 
z
" style="fill: none; opacity: 0"/>
   </g>
   <g id="matplotlib.axis_1">
    <g id="xtick_1">
     <g id="line2d_1">
      <path d="M 119.465188 320.4 
L 119.465188 43.2 
" clip-path="url(#p513edd21d3)" style="fill: none; stroke-dasharray: 5.12,1.28,0.8,1.28; stroke-dashoffset: 0; stroke: #b0b0b0; stroke-width: 0.8"/>
     </g>
     <g id="line2d_2">
      <defs>
       <path id="m9a3070b8a8" d="M 0 0 
L 0 3.5 
" style="stroke: #a9a9a9; stroke-width: 0.8"/>
      </defs>
      <g>
       <use xlink:href="#m9a3070b8a8" x="119.465188" y="320.4" style="fill: #a9a9a9; stroke: #a9a9a9; stroke-width: 0.8"/>
      </g>
     </g>
     <g id="text_1">
      <!-- 2021-07 -->
      <g style="fill: #a9a9a9" transform="translate(98.573782 334.998438) scale(0.1 -0.1)">
       <defs>
        <path id="DejaVuSans-32" d="M 1228 531 
L 3431 531 
L 3431 0 
L 469 0 
L 469 531 
Q 828 903 1448 1529 
Q 2069 2156 2228 2338 
Q 2531 2678 2651 2914 
Q 2772 3150 2772 3378 
Q 2772 3750 2511 3984 
Q 2250 4219 1831 4219 
Q 1534 4219 1204 4116 
Q 875 4013 500 3803 
L 500 4441 
Q 881 4594 1212 4672 
Q 1544 4750 1819 4750 
Q 2544 4750 2975 4387 
Q 3406 4025 3406 3419 
Q 3406 3131 3298 2873 
Q 3191 2616 2906 2266 
Q 2828 2175 2409 1742 
Q 1991 1309 1228 531 
z
" transform="scale(0.015625)"/>
        <path id="DejaVuSans-30" d="M 2034 4250 
Q 1547 4250 1301 3770 
Q 1056 3291 1056 2328 
Q 1056 1369 1301 889 
Q 1547 409 2034 409 
Q 2525 409 2770 889 
Q 3016 1369 3016 2328 
Q 3016 3291 2770 3770 
Q 2525 4250 2034 4250 
z
M 2034 4750 
Q 2819 4750 3233 4129 
Q 3647 3509 3647 2328 
Q 3647 1150 3233 529 
Q 2819 -91 2034 -91 
Q 1250 -91 836 529 
Q 422 1150 422 2328 
Q 422 3509 836 4129 
Q 1250 4750 2034 4750 
z
" transform="scale(0.015625)"/>
        <path id="DejaVuSans-31" d="M 794 531 
L 1825 531 
L 1825 4091 
L 703 3866 
L 703 4441 
L 1819 4666 
L 2450 4666 
L 2450 531 
L 3481 531 
L 3481 0 
L 794 0 
L 794 531 
z
" transform="scale(0.015625)"/>
        <path id="DejaVuSans-2d" d="M 313 2009 
L 1997 2009 
L 1997 1497 
L 313 1497 
L 313 2009 
z
" transform="scale(0.015625)"/>
        <path id="DejaVuSans-37" d="M 525 4666 
L 3525 4666 
L 3525 4397 
L 1831 0 
L 1172 0 
L 2766 4134 
L 525 4134 
L 525 4666 
z
" transform="scale(0.015625)"/>
       </defs>
       <use xlink:href="#DejaVuSans-32"/>
       <use xlink:href="#DejaVuSans-30" x="63.623047"/>
       <use xlink:href="#DejaVuSans-32" x="127.246094"/>
       <use xlink:href="#DejaVuSans-31" x="190.869141"/>
       <use xlink:href="#DejaVuSans-2d" x="254.492188"/>
       <use xlink:href="#DejaVuSans-30" x="290.576172"/>
       <use xlink:href="#DejaVuSans-37" x="354.199219"/>
      </g>
     </g>
    </g>
    <g id="xtick_2">
     <g id="line2d_3">
      <path d="M 195.349889 320.4 
L 195.349889 43.2 
" clip-path="url(#p513edd21d3)" style="fill: none; stroke-dasharray: 5.12,1.28,0.8,1.28; stroke-dashoffset: 0; stroke: #b0b0b0; stroke-width: 0.8"/>
     </g>
     <g id="line2d_4">
      <g>
       <use xlink:href="#m9a3070b8a8" x="195.349889" y="320.4" style="fill: #a9a9a9; stroke: #a9a9a9; stroke-width: 0.8"/>
      </g>
     </g>
     <g id="text_2">
      <!-- 2021-10 -->
      <g style="fill: #a9a9a9" transform="translate(174.458483 334.998438) scale(0.1 -0.1)">
       <use xlink:href="#DejaVuSans-32"/>
       <use xlink:href="#DejaVuSans-30" x="63.623047"/>
       <use xlink:href="#DejaVuSans-32" x="127.246094"/>
       <use xlink:href="#DejaVuSans-31" x="190.869141"/>
       <use xlink:href="#DejaVuSans-2d" x="254.492188"/>
       <use xlink:href="#DejaVuSans-31" x="290.576172"/>
       <use xlink:href="#DejaVuSans-30" x="354.199219"/>
      </g>
     </g>
    </g>
    <g id="xtick_3">
     <g id="line2d_5">
      <path d="M 271.23459 320.4 
L 271.23459 43.2 
" clip-path="url(#p513edd21d3)" style="fill: none; stroke-dasharray: 5.12,1.28,0.8,1.28; stroke-dashoffset: 0; stroke: #b0b0b0; stroke-width: 0.8"/>
     </g>
     <g id="line2d_6">
      <g>
       <use xlink:href="#m9a3070b8a8" x="271.23459" y="320.4" style="fill: #a9a9a9; stroke: #a9a9a9; stroke-width: 0.8"/>
      </g>
     </g>
     <g id="text_3">
      <!-- 2022-01 -->
      <g style="fill: #a9a9a9" transform="translate(250.343184 334.998438) scale(0.1 -0.1)">
       <use xlink:href="#DejaVuSans-32"/>
       <use xlink:href="#DejaVuSans-30" x="63.623047"/>
       <use xlink:href="#DejaVuSans-32" x="127.246094"/>
       <use xlink:href="#DejaVuSans-32" x="190.869141"/>
       <use xlink:href="#DejaVuSans-2d" x="254.492188"/>
       <use xlink:href="#DejaVuSans-30" x="290.576172"/>
       <use xlink:href="#DejaVuSans-31" x="354.199219"/>
      </g>
     </g>
    </g>
    <g id="xtick_4">
     <g id="line2d_7">
      <path d="M 345.469623 320.4 
L 345.469623 43.2 
" clip-path="url(#p513edd21d3)" style="fill: none; stroke-dasharray: 5.12,1.28,0.8,1.28; stroke-dashoffset: 0; stroke: #b0b0b0; stroke-width: 0.8"/>
     </g>
     <g id="line2d_8">
      <g>
       <use xlink:href="#m9a3070b8a8" x="345.469623" y="320.4" style="fill: #a9a9a9; stroke: #a9a9a9; stroke-width: 0.8"/>
      </g>
     </g>
     <g id="text_4">
      <!-- 2022-04 -->
      <g style="fill: #a9a9a9" transform="translate(324.578217 334.998438) scale(0.1 -0.1)">
       <defs>
        <path id="DejaVuSans-34" d="M 2419 4116 
L 825 1625 
L 2419 1625 
L 2419 4116 
z
M 2253 4666 
L 3047 4666 
L 3047 1625 
L 3713 1625 
L 3713 1100 
L 3047 1100 
L 3047 0 
L 2419 0 
L 2419 1100 
L 313 1100 
L 313 1709 
L 2253 4666 
z
" transform="scale(0.015625)"/>
       </defs>
       <use xlink:href="#DejaVuSans-32"/>
       <use xlink:href="#DejaVuSans-30" x="63.623047"/>
       <use xlink:href="#DejaVuSans-32" x="127.246094"/>
       <use xlink:href="#DejaVuSans-32" x="190.869141"/>
       <use xlink:href="#DejaVuSans-2d" x="254.492188"/>
       <use xlink:href="#DejaVuSans-30" x="290.576172"/>
       <use xlink:href="#DejaVuSans-34" x="354.199219"/>
      </g>
     </g>
    </g>
    <g id="xtick_5">
     <g id="line2d_9">
      <path d="M 420.52949 320.4 
L 420.52949 43.2 
" clip-path="url(#p513edd21d3)" style="fill: none; stroke-dasharray: 5.12,1.28,0.8,1.28; stroke-dashoffset: 0; stroke: #b0b0b0; stroke-width: 0.8"/>
     </g>
     <g id="line2d_10">
      <g>
       <use xlink:href="#m9a3070b8a8" x="420.52949" y="320.4" style="fill: #a9a9a9; stroke: #a9a9a9; stroke-width: 0.8"/>
      </g>
     </g>
     <g id="text_5">
      <!-- 2022-07 -->
      <g style="fill: #a9a9a9" transform="translate(399.638084 334.998438) scale(0.1 -0.1)">
       <use xlink:href="#DejaVuSans-32"/>
       <use xlink:href="#DejaVuSans-30" x="63.623047"/>
       <use xlink:href="#DejaVuSans-32" x="127.246094"/>
       <use xlink:href="#DejaVuSans-32" x="190.869141"/>
       <use xlink:href="#DejaVuSans-2d" x="254.492188"/>
       <use xlink:href="#DejaVuSans-30" x="290.576172"/>
       <use xlink:href="#DejaVuSans-37" x="354.199219"/>
      </g>
     </g>
    </g>
    <g id="xtick_6">
     <g id="line2d_11">
      <path d="M 496.414191 320.4 
L 496.414191 43.2 
" clip-path="url(#p513edd21d3)" style="fill: none; stroke-dasharray: 5.12,1.28,0.8,1.28; stroke-dashoffset: 0; stroke: #b0b0b0; stroke-width: 0.8"/>
     </g>
     <g id="line2d_12">
      <g>
       <use xlink:href="#m9a3070b8a8" x="496.414191" y="320.4" style="fill: #a9a9a9; stroke: #a9a9a9; stroke-width: 0.8"/>
      </g>
     </g>
     <g id="text_6">
      <!-- 2022-10 -->
      <g style="fill: #a9a9a9" transform="translate(475.522784 334.998438) scale(0.1 -0.1)">
       <use xlink:href="#DejaVuSans-32"/>
       <use xlink:href="#DejaVuSans-30" x="63.623047"/>
       <use xlink:href="#DejaVuSans-32" x="127.246094"/>
       <use xlink:href="#DejaVuSans-32" x="190.869141"/>
       <use xlink:href="#DejaVuSans-2d" x="254.492188"/>
       <use xlink:href="#DejaVuSans-31" x="290.576172"/>
       <use xlink:href="#DejaVuSans-30" x="354.199219"/>
      </g>
     </g>
    </g>
    <g id="xtick_7">
     <g id="line2d_13">
      <path d="M 572.298891 320.4 
L 572.298891 43.2 
" clip-path="url(#p513edd21d3)" style="fill: none; stroke-dasharray: 5.12,1.28,0.8,1.28; stroke-dashoffset: 0; stroke: #b0b0b0; stroke-width: 0.8"/>
     </g>
     <g id="line2d_14">
      <g>
       <use xlink:href="#m9a3070b8a8" x="572.298891" y="320.4" style="fill: #a9a9a9; stroke: #a9a9a9; stroke-width: 0.8"/>
      </g>
     </g>
     <g id="text_7">
      <!-- 2023-01 -->
      <g style="fill: #a9a9a9" transform="translate(551.407485 334.998438) scale(0.1 -0.1)">
       <defs>
        <path id="DejaVuSans-33" d="M 2597 2516 
Q 3050 2419 3304 2112 
Q 3559 1806 3559 1356 
Q 3559 666 3084 287 
Q 2609 -91 1734 -91 
Q 1441 -91 1130 -33 
Q 819 25 488 141 
L 488 750 
Q 750 597 1062 519 
Q 1375 441 1716 441 
Q 2309 441 2620 675 
Q 2931 909 2931 1356 
Q 2931 1769 2642 2001 
Q 2353 2234 1838 2234 
L 1294 2234 
L 1294 2753 
L 1863 2753 
Q 2328 2753 2575 2939 
Q 2822 3125 2822 3475 
Q 2822 3834 2567 4026 
Q 2313 4219 1838 4219 
Q 1578 4219 1281 4162 
Q 984 4106 628 3988 
L 628 4550 
Q 988 4650 1302 4700 
Q 1616 4750 1894 4750 
Q 2613 4750 3031 4423 
Q 3450 4097 3450 3541 
Q 3450 3153 3228 2886 
Q 3006 2619 2597 2516 
z
" transform="scale(0.015625)"/>
       </defs>
       <use xlink:href="#DejaVuSans-32"/>
       <use xlink:href="#DejaVuSans-30" x="63.623047"/>
       <use xlink:href="#DejaVuSans-32" x="127.246094"/>
       <use xlink:href="#DejaVuSans-33" x="190.869141"/>
       <use xlink:href="#DejaVuSans-2d" x="254.492188"/>
       <use xlink:href="#DejaVuSans-30" x="290.576172"/>
       <use xlink:href="#DejaVuSans-31" x="354.199219"/>
      </g>
     </g>
    </g>
    <g id="xtick_8">
     <g id="line2d_15">
      <path d="M 646.533925 320.4 
L 646.533925 43.2 
" clip-path="url(#p513edd21d3)" style="fill: none; stroke-dasharray: 5.12,1.28,0.8,1.28; stroke-dashoffset: 0; stroke: #b0b0b0; stroke-width: 0.8"/>
     </g>
     <g id="line2d_16">
      <g>
       <use xlink:href="#m9a3070b8a8" x="646.533925" y="320.4" style="fill: #a9a9a9; stroke: #a9a9a9; stroke-width: 0.8"/>
      </g>
     </g>
     <g id="text_8">
      <!-- 2023-04 -->
      <g style="fill: #a9a9a9" transform="translate(625.642518 334.998438) scale(0.1 -0.1)">
       <use xlink:href="#DejaVuSans-32"/>
       <use xlink:href="#DejaVuSans-30" x="63.623047"/>
       <use xlink:href="#DejaVuSans-32" x="127.246094"/>
       <use xlink:href="#DejaVuSans-33" x="190.869141"/>
       <use xlink:href="#DejaVuSans-2d" x="254.492188"/>
       <use xlink:href="#DejaVuSans-30" x="290.576172"/>
       <use xlink:href="#DejaVuSans-34" x="354.199219"/>
      </g>
     </g>
    </g>
    <g id="xtick_9">
     <g id="line2d_17">
      <path d="M 721.593792 320.4 
L 721.593792 43.2 
" clip-path="url(#p513edd21d3)" style="fill: none; stroke-dasharray: 5.12,1.28,0.8,1.28; stroke-dashoffset: 0; stroke: #b0b0b0; stroke-width: 0.8"/>
     </g>
     <g id="line2d_18">
      <g>
       <use xlink:href="#m9a3070b8a8" x="721.593792" y="320.4" style="fill: #a9a9a9; stroke: #a9a9a9; stroke-width: 0.8"/>
      </g>
     </g>
     <g id="text_9">
      <!-- 2023-07 -->
      <g style="fill: #a9a9a9" transform="translate(700.702385 334.998438) scale(0.1 -0.1)">
       <use xlink:href="#DejaVuSans-32"/>
       <use xlink:href="#DejaVuSans-30" x="63.623047"/>
       <use xlink:href="#DejaVuSans-32" x="127.246094"/>
       <use xlink:href="#DejaVuSans-33" x="190.869141"/>
       <use xlink:href="#DejaVuSans-2d" x="254.492188"/>
       <use xlink:href="#DejaVuSans-30" x="290.576172"/>
       <use xlink:href="#DejaVuSans-37" x="354.199219"/>
      </g>
     </g>
    </g>
   </g>
   <g id="matplotlib.axis_2">
    <g id="ytick_1">
     <g id="line2d_19">
      <path d="M 108 307.854077 
L 777.6 307.854077 
" clip-path="url(#p513edd21d3)" style="fill: none; stroke-dasharray: 5.12,1.28,0.8,1.28; stroke-dashoffset: 0; stroke: #b0b0b0; stroke-width: 0.8"/>
     </g>
     <g id="line2d_20">
      <defs>
       <path id="m68b434132a" d="M 0 0 
L -3.5 0 
" style="stroke: #a9a9a9; stroke-width: 0.8"/>
      </defs>
      <g>
       <use xlink:href="#m68b434132a" x="108" y="307.854077" style="fill: #a9a9a9; stroke: #a9a9a9; stroke-width: 0.8"/>
      </g>
     </g>
     <g id="text_10">
      <!-- 0 -->
      <g style="fill: #a9a9a9" transform="translate(94.6375 311.653296) scale(0.1 -0.1)">
       <use xlink:href="#DejaVuSans-30"/>
      </g>
     </g>
    </g>
    <g id="ytick_2">
     <g id="line2d_21">
      <path d="M 108 275.407725 
L 777.6 275.407725 
" clip-path="url(#p513edd21d3)" style="fill: none; stroke-dasharray: 5.12,1.28,0.8,1.28; stroke-dashoffset: 0; stroke: #b0b0b0; stroke-width: 0.8"/>
     </g>
     <g id="line2d_22">
      <g>
       <use xlink:href="#m68b434132a" x="108" y="275.407725" style="fill: #a9a9a9; stroke: #a9a9a9; stroke-width: 0.8"/>
      </g>
     </g>
     <g id="text_11">
      <!-- 600 -->
      <g style="fill: #a9a9a9" transform="translate(81.9125 279.206944) scale(0.1 -0.1)">
       <defs>
        <path id="DejaVuSans-36" d="M 2113 2584 
Q 1688 2584 1439 2293 
Q 1191 2003 1191 1497 
Q 1191 994 1439 701 
Q 1688 409 2113 409 
Q 2538 409 2786 701 
Q 3034 994 3034 1497 
Q 3034 2003 2786 2293 
Q 2538 2584 2113 2584 
z
M 3366 4563 
L 3366 3988 
Q 3128 4100 2886 4159 
Q 2644 4219 2406 4219 
Q 1781 4219 1451 3797 
Q 1122 3375 1075 2522 
Q 1259 2794 1537 2939 
Q 1816 3084 2150 3084 
Q 2853 3084 3261 2657 
Q 3669 2231 3669 1497 
Q 3669 778 3244 343 
Q 2819 -91 2113 -91 
Q 1303 -91 875 529 
Q 447 1150 447 2328 
Q 447 3434 972 4092 
Q 1497 4750 2381 4750 
Q 2619 4750 2861 4703 
Q 3103 4656 3366 4563 
z
" transform="scale(0.015625)"/>
       </defs>
       <use xlink:href="#DejaVuSans-36"/>
       <use xlink:href="#DejaVuSans-30" x="63.623047"/>
       <use xlink:href="#DejaVuSans-30" x="127.246094"/>
      </g>
     </g>
    </g>
    <g id="ytick_3">
     <g id="line2d_23">
      <path d="M 108 242.961373 
L 777.6 242.961373 
" clip-path="url(#p513edd21d3)" style="fill: none; stroke-dasharray: 5.12,1.28,0.8,1.28; stroke-dashoffset: 0; stroke: #b0b0b0; stroke-width: 0.8"/>
     </g>
     <g id="line2d_24">
      <g>
       <use xlink:href="#m68b434132a" x="108" y="242.961373" style="fill: #a9a9a9; stroke: #a9a9a9; stroke-width: 0.8"/>
      </g>
     </g>
     <g id="text_12">
      <!-- 1200 -->
      <g style="fill: #a9a9a9" transform="translate(75.55 246.760592) scale(0.1 -0.1)">
       <use xlink:href="#DejaVuSans-31"/>
       <use xlink:href="#DejaVuSans-32" x="63.623047"/>
       <use xlink:href="#DejaVuSans-30" x="127.246094"/>
       <use xlink:href="#DejaVuSans-30" x="190.869141"/>
      </g>
     </g>
    </g>
    <g id="ytick_4">
     <g id="line2d_25">
      <path d="M 108 210.515021 
L 777.6 210.515021 
" clip-path="url(#p513edd21d3)" style="fill: none; stroke-dasharray: 5.12,1.28,0.8,1.28; stroke-dashoffset: 0; stroke: #b0b0b0; stroke-width: 0.8"/>
     </g>
     <g id="line2d_26">
      <g>
       <use xlink:href="#m68b434132a" x="108" y="210.515021" style="fill: #a9a9a9; stroke: #a9a9a9; stroke-width: 0.8"/>
      </g>
     </g>
     <g id="text_13">
      <!-- 1800 -->
      <g style="fill: #a9a9a9" transform="translate(75.55 214.31424) scale(0.1 -0.1)">
       <defs>
        <path id="DejaVuSans-38" d="M 2034 2216 
Q 1584 2216 1326 1975 
Q 1069 1734 1069 1313 
Q 1069 891 1326 650 
Q 1584 409 2034 409 
Q 2484 409 2743 651 
Q 3003 894 3003 1313 
Q 3003 1734 2745 1975 
Q 2488 2216 2034 2216 
z
M 1403 2484 
Q 997 2584 770 2862 
Q 544 3141 544 3541 
Q 544 4100 942 4425 
Q 1341 4750 2034 4750 
Q 2731 4750 3128 4425 
Q 3525 4100 3525 3541 
Q 3525 3141 3298 2862 
Q 3072 2584 2669 2484 
Q 3125 2378 3379 2068 
Q 3634 1759 3634 1313 
Q 3634 634 3220 271 
Q 2806 -91 2034 -91 
Q 1263 -91 848 271 
Q 434 634 434 1313 
Q 434 1759 690 2068 
Q 947 2378 1403 2484 
z
M 1172 3481 
Q 1172 3119 1398 2916 
Q 1625 2713 2034 2713 
Q 2441 2713 2670 2916 
Q 2900 3119 2900 3481 
Q 2900 3844 2670 4047 
Q 2441 4250 2034 4250 
Q 1625 4250 1398 4047 
Q 1172 3844 1172 3481 
z
" transform="scale(0.015625)"/>
       </defs>
       <use xlink:href="#DejaVuSans-31"/>
       <use xlink:href="#DejaVuSans-38" x="63.623047"/>
       <use xlink:href="#DejaVuSans-30" x="127.246094"/>
       <use xlink:href="#DejaVuSans-30" x="190.869141"/>
      </g>
     </g>
    </g>
    <g id="ytick_5">
     <g id="line2d_27">
      <path d="M 108 178.06867 
L 777.6 178.06867 
" clip-path="url(#p513edd21d3)" style="fill: none; stroke-dasharray: 5.12,1.28,0.8,1.28; stroke-dashoffset: 0; stroke: #b0b0b0; stroke-width: 0.8"/>
     </g>
     <g id="line2d_28">
      <g>
       <use xlink:href="#m68b434132a" x="108" y="178.06867" style="fill: #a9a9a9; stroke: #a9a9a9; stroke-width: 0.8"/>
      </g>
     </g>
     <g id="text_14">
      <!-- 2400 -->
      <g style="fill: #a9a9a9" transform="translate(75.55 181.867888) scale(0.1 -0.1)">
       <use xlink:href="#DejaVuSans-32"/>
       <use xlink:href="#DejaVuSans-34" x="63.623047"/>
       <use xlink:href="#DejaVuSans-30" x="127.246094"/>
       <use xlink:href="#DejaVuSans-30" x="190.869141"/>
      </g>
     </g>
    </g>
    <g id="ytick_6">
     <g id="line2d_29">
      <path d="M 108 145.622318 
L 777.6 145.622318 
" clip-path="url(#p513edd21d3)" style="fill: none; stroke-dasharray: 5.12,1.28,0.8,1.28; stroke-dashoffset: 0; stroke: #b0b0b0; stroke-width: 0.8"/>
     </g>
     <g id="line2d_30">
      <g>
       <use xlink:href="#m68b434132a" x="108" y="145.622318" style="fill: #a9a9a9; stroke: #a9a9a9; stroke-width: 0.8"/>
      </g>
     </g>
     <g id="text_15">
      <!-- 3000 -->
      <g style="fill: #a9a9a9" transform="translate(75.55 149.421536) scale(0.1 -0.1)">
       <use xlink:href="#DejaVuSans-33"/>
       <use xlink:href="#DejaVuSans-30" x="63.623047"/>
       <use xlink:href="#DejaVuSans-30" x="127.246094"/>
       <use xlink:href="#DejaVuSans-30" x="190.869141"/>
      </g>
     </g>
    </g>
    <g id="ytick_7">
     <g id="line2d_31">
      <path d="M 108 113.175966 
L 777.6 113.175966 
" clip-path="url(#p513edd21d3)" style="fill: none; stroke-dasharray: 5.12,1.28,0.8,1.28; stroke-dashoffset: 0; stroke: #b0b0b0; stroke-width: 0.8"/>
     </g>
     <g id="line2d_32">
      <g>
       <use xlink:href="#m68b434132a" x="108" y="113.175966" style="fill: #a9a9a9; stroke: #a9a9a9; stroke-width: 0.8"/>
      </g>
     </g>
     <g id="text_16">
      <!-- 3600 -->
      <g style="fill: #a9a9a9" transform="translate(75.55 116.975184) scale(0.1 -0.1)">
       <use xlink:href="#DejaVuSans-33"/>
       <use xlink:href="#DejaVuSans-36" x="63.623047"/>
       <use xlink:href="#DejaVuSans-30" x="127.246094"/>
       <use xlink:href="#DejaVuSans-30" x="190.869141"/>
      </g>
     </g>
    </g>
    <g id="ytick_8">
     <g id="line2d_33">
      <path d="M 108 80.729614 
L 777.6 80.729614 
" clip-path="url(#p513edd21d3)" style="fill: none; stroke-dasharray: 5.12,1.28,0.8,1.28; stroke-dashoffset: 0; stroke: #b0b0b0; stroke-width: 0.8"/>
     </g>
     <g id="line2d_34">
      <g>
       <use xlink:href="#m68b434132a" x="108" y="80.729614" style="fill: #a9a9a9; stroke: #a9a9a9; stroke-width: 0.8"/>
      </g>
     </g>
     <g id="text_17">
      <!-- 4200 -->
      <g style="fill: #a9a9a9" transform="translate(75.55 84.528832) scale(0.1 -0.1)">
       <use xlink:href="#DejaVuSans-34"/>
       <use xlink:href="#DejaVuSans-32" x="63.623047"/>
       <use xlink:href="#DejaVuSans-30" x="127.246094"/>
       <use xlink:href="#DejaVuSans-30" x="190.869141"/>
      </g>
     </g>
    </g>
    <g id="ytick_9">
     <g id="line2d_35">
      <path d="M 108 48.283262 
L 777.6 48.283262 
" clip-path="url(#p513edd21d3)" style="fill: none; stroke-dasharray: 5.12,1.28,0.8,1.28; stroke-dashoffset: 0; stroke: #b0b0b0; stroke-width: 0.8"/>
     </g>
     <g id="line2d_36">
      <g>
       <use xlink:href="#m68b434132a" x="108" y="48.283262" style="fill: #a9a9a9; stroke: #a9a9a9; stroke-width: 0.8"/>
      </g>
     </g>
     <g id="text_18">
      <!-- 4800 -->
      <g style="fill: #a9a9a9" transform="translate(75.55 52.082481) scale(0.1 -0.1)">
       <use xlink:href="#DejaVuSans-34"/>
       <use xlink:href="#DejaVuSans-38" x="63.623047"/>
       <use xlink:href="#DejaVuSans-30" x="127.246094"/>
       <use xlink:href="#DejaVuSans-30" x="190.869141"/>
      </g>
     </g>
    </g>
   </g>
   <g id="line2d_37">
    <path d="M 138.436364 307.691845 
L 143.385366 307.313305 
L 144.2102 306.988841 
L 146.684701 306.718455 
L 152.458537 305.690987 
L 156.582705 305.312446 
L 157.407539 304.933906 
L 158.232373 304.717597 
L 159.057206 303.744206 
L 159.88204 303.203433 
L 160.706874 301.472961 
L 161.531707 301.364807 
L 162.356541 300.769957 
L 164.006208 300.012876 
L 165.655876 298.823176 
L 166.48071 298.066094 
L 168.130377 297.309013 
L 168.955211 296.984549 
L 169.780044 296.3897 
L 173.079379 295.037768 
L 173.904213 293.793991 
L 174.729047 293.145064 
L 176.378714 292.279828 
L 184.627051 291.144206 
L 185.451885 290.765665 
L 191.225721 290.333047 
L 192.875388 289.900429 
L 194.525055 289.575966 
L 201.123725 288.71073 
L 201.948559 288.278112 
L 202.773392 288.169957 
L 203.598226 287.845494 
L 205.247894 287.575107 
L 206.072727 287.52103 
L 206.897561 287.250644 
L 210.196896 286.763948 
L 211.846563 286.33133 
L 214.321064 286.115021 
L 215.970732 285.95279 
L 216.795565 285.736481 
L 217.620399 285.682403 
L 220.0949 284.979399 
L 225.043902 284.276395 
L 225.868736 284.006009 
L 226.69357 282.924464 
L 229.168071 282.059227 
L 231.642572 281.4103 
L 232.467406 281.03176 
L 233.292239 280.977682 
L 237.416408 279.896137 
L 239.066075 279.787983 
L 239.890909 279.679828 
L 242.36541 278.976824 
L 245.664745 278.219742 
L 246.489579 277.895279 
L 247.314412 277.787124 
L 248.139246 277.408584 
L 256.387583 276.218884 
L 260.511752 275.083262 
L 261.336585 274.596567 
L 264.63592 273.73133 
L 266.285588 272.812017 
L 267.110421 272.271245 
L 267.935255 272.16309 
L 268.760089 271.892704 
L 271.23459 271.460086 
L 272.059424 271.081545 
L 273.709091 270.811159 
L 275.358758 270.054077 
L 279.482927 269.080687 
L 281.957428 268.485837 
L 282.782262 268.161373 
L 283.607095 267.999142 
L 284.431929 267.674678 
L 285.256763 267.566524 
L 286.081596 267.187983 
L 286.90643 266.971674 
L 288.556098 266.863519 
L 290.205765 266.322747 
L 291.855432 266.214592 
L 292.680266 265.836052 
L 295.979601 265.295279 
L 299.278936 265.024893 
L 300.103769 264.862661 
L 301.753437 264.105579 
L 310.826608 260.482403 
L 311.651441 260.049785 
L 312.476275 259.184549 
L 313.301109 257.886695 
L 314.125942 256.859227 
L 314.950776 256.642918 
L 315.77561 256.642918 
L 317.425277 255.453219 
L 318.250111 255.23691 
L 319.074945 254.804292 
L 319.899778 254.64206 
L 320.724612 253.939056 
L 321.549446 253.722747 
L 324.023947 252.587124 
L 324.84878 251.613734 
L 325.673614 250.424034 
L 326.498448 249.937339 
L 327.323282 248.639485 
L 328.148115 247.828326 
L 328.972949 247.449785 
L 329.797783 247.233476 
L 331.44745 246.260086 
L 332.272284 245.881545 
L 335.571619 243.502146 
L 336.396452 242.366524 
L 337.221286 240.527897 
L 338.04612 239.338197 
L 338.870953 238.743348 
L 339.695787 238.418884 
L 342.995122 235.715021 
L 344.644789 234.525322 
L 345.469623 233.822318 
L 346.294457 232.686695 
L 347.11929 231.929614 
L 349.593792 230.253219 
L 351.243459 229.171674 
L 352.068293 228.46867 
L 352.893126 228.252361 
L 355.367627 227.008584 
L 357.017295 226.08927 
L 357.842129 225.764807 
L 359.491796 224.304721 
L 360.31663 223.33133 
L 361.966297 222.249785 
L 362.791131 222.033476 
L 363.615965 221.600858 
L 364.440798 221.006009 
L 366.090466 220.140773 
L 366.915299 220.032618 
L 368.564967 219.167382 
L 369.3898 218.734764 
L 370.214634 217.923605 
L 371.039468 217.43691 
L 371.864302 217.166524 
L 372.689135 216.625751 
L 375.98847 215.003433 
L 376.813304 214.300429 
L 380.112639 213.218884 
L 380.937472 212.678112 
L 381.762306 212.51588 
L 383.411973 211.975107 
L 385.886475 211.055794 
L 388.360976 210.190558 
L 390.010643 209.920172 
L 391.66031 208.56824 
L 393.309978 207.811159 
L 395.784479 206.459227 
L 397.434146 206.026609 
L 398.25898 205.539914 
L 399.083814 205.323605 
L 401.558315 203.809442 
L 404.032816 203.26867 
L 406.507317 202.403433 
L 408.156984 201.48412 
L 408.981818 201.375966 
L 409.806652 201.105579 
L 411.456319 200.781116 
L 413.93082 199.050644 
L 416.405322 198.509871 
L 417.230155 198.239485 
L 418.054989 197.644635 
L 423.003991 196.130472 
L 423.828825 196.076395 
L 429.602661 194.129614 
L 430.427494 193.751073 
L 432.901996 193.2103 
L 434.551663 192.83176 
L 435.376497 192.453219 
L 436.20133 192.290987 
L 438.675831 191.209442 
L 441.150333 189.965665 
L 441.975166 189.424893 
L 442.8 189.208584 
L 445.274501 187.964807 
L 446.924169 187.586266 
L 448.573836 186.775107 
L 450.223503 186.342489 
L 451.048337 186.234335 
L 451.873171 185.693562 
L 452.698004 185.315021 
L 453.522838 185.15279 
L 455.172506 184.503863 
L 455.997339 184.341631 
L 456.822173 183.909013 
L 460.121508 183.422318 
L 461.771175 182.665236 
L 462.596009 182.016309 
L 463.420843 180.6103 
L 465.07051 180.285837 
L 465.895344 180.123605 
L 469.194678 178.501288 
L 470.019512 178.339056 
L 474.968514 176.013734 
L 475.793348 175.472961 
L 476.618182 175.148498 
L 479.092683 174.661803 
L 480.74235 173.850644 
L 481.567184 173.52618 
L 482.392018 173.418026 
L 485.691353 172.012017 
L 487.34102 170.930472 
L 488.165854 170.551931 
L 488.990687 170.443777 
L 489.815521 170.173391 
L 490.640355 170.119313 
L 493.93969 169.091845 
L 494.764523 169.037768 
L 495.589357 168.442918 
L 497.239024 167.902146 
L 499.713525 167.145064 
L 500.538359 166.658369 
L 501.363193 166.44206 
L 502.188027 165.901288 
L 503.01286 165.576824 
L 503.837694 165.090129 
L 505.487361 164.495279 
L 506.312195 164.27897 
L 507.137029 163.900429 
L 507.961863 163.68412 
L 508.786696 163.305579 
L 509.61153 162.71073 
L 510.436364 161.845494 
L 511.261197 161.304721 
L 512.086031 161.142489 
L 513.735698 159.95279 
L 514.560532 159.790558 
L 515.385366 158.600858 
L 516.2102 158.276395 
L 517.035033 157.681545 
L 517.859867 157.573391 
L 518.684701 157.032618 
L 519.509534 156.654077 
L 520.334368 156.491845 
L 521.159202 156.167382 
L 521.984035 155.518455 
L 522.808869 155.248069 
L 525.28337 153.679828 
L 528.582705 152.111588 
L 529.407539 152.003433 
L 531.057206 151.300429 
L 531.88204 150.813734 
L 532.706874 149.51588 
L 533.531707 148.704721 
L 534.356541 148.272103 
L 535.181375 148.109871 
L 536.831042 147.136481 
L 537.655876 146.974249 
L 539.305543 146.217167 
L 541.780044 145.1897 
L 543.429712 144.108155 
L 545.079379 142.43176 
L 546.729047 141.458369 
L 547.55388 140.971674 
L 548.378714 140.160515 
L 550.853215 138.213734 
L 551.678049 137.781116 
L 552.502882 136.91588 
L 553.327716 136.32103 
L 554.977384 135.780258 
L 555.802217 135.023176 
L 557.451885 134.212017 
L 558.276718 133.995708 
L 559.101552 133.400858 
L 559.926386 133.184549 
L 562.400887 131.940773 
L 563.225721 131.345923 
L 564.050554 130.913305 
L 571.474058 128.425751 
L 572.298891 127.993133 
L 573.123725 127.290129 
L 576.42306 126.100429 
L 577.247894 125.88412 
L 578.072727 125.28927 
L 580.547228 124.207725 
L 581.372062 123.612876 
L 582.196896 123.180258 
L 583.846563 120.043777 
L 585.496231 118.20515 
L 586.321064 117.664378 
L 588.795565 116.63691 
L 589.620399 116.366524 
L 590.445233 116.258369 
L 591.270067 115.825751 
L 593.744568 115.06867 
L 596.219069 114.095279 
L 597.868736 112.959657 
L 600.343237 111.878112 
L 604.467406 109.606867 
L 605.292239 108.795708 
L 606.941907 107.930472 
L 607.766741 107.497854 
L 608.591574 107.227468 
L 609.416408 106.632618 
L 611.066075 105.875536 
L 611.890909 105.388841 
L 612.715743 105.064378 
L 613.540576 104.577682 
L 614.36541 104.361373 
L 615.190244 103.766524 
L 616.015078 103.44206 
L 616.839911 103.279828 
L 618.489579 102.630901 
L 620.96408 101.765665 
L 621.788914 101.170815 
L 623.438581 100.738197 
L 625.088248 100.143348 
L 625.913082 99.494421 
L 627.562749 99.007725 
L 628.387583 98.629185 
L 629.212417 98.412876 
L 630.862084 97.33133 
L 632.511752 96.628326 
L 634.161419 95.438627 
L 635.811086 94.897854 
L 636.63592 94.19485 
L 637.460754 94.032618 
L 638.285588 93.329614 
L 639.935255 92.4103 
L 641.584922 91.761373 
L 642.409756 90.950215 
L 644.884257 90.193133 
L 645.709091 89.706438 
L 646.533925 89.598283 
L 649.008426 88.408584 
L 652.307761 87.435193 
L 653.957428 87.218884 
L 654.782262 86.894421 
L 655.607095 86.732189 
L 657.256763 86.083262 
L 658.081596 86.029185 
L 660.556098 85.218026 
L 662.205765 84.244635 
L 663.855432 83.16309 
L 668.804435 80.837768 
L 671.278936 79.269528 
L 672.928603 78.890987 
L 675.403104 77.539056 
L 677.877605 76.781974 
L 678.702439 76.457511 
L 680.352106 76.07897 
L 684.476275 74.727039 
L 686.125942 74.402575 
L 687.77561 74.024034 
L 688.600443 73.645494 
L 689.425277 73.537339 
L 691.074945 72.888412 
L 691.899778 72.780258 
L 692.724612 72.401717 
L 694.374279 72.077253 
L 695.199113 71.698712 
L 697.673614 71.15794 
L 699.323282 70.833476 
L 706.746785 69.373391 
L 707.571619 69.048927 
L 708.396452 68.99485 
L 710.870953 68.291845 
L 711.695787 67.859227 
L 713.345455 67.318455 
L 714.170288 67.264378 
L 718.294457 66.074678 
L 724.068293 64.181974 
L 724.893126 64.181974 
L 726.542794 63.641202 
L 727.367627 62.830043 
L 728.192461 62.451502 
L 729.842129 61.964807 
L 737.265632 59.044635 
L 738.090466 58.936481 
L 738.915299 58.503863 
L 740.564967 58.017167 
L 741.3898 57.530472 
L 742.214634 57.314163 
L 743.039468 56.665236 
L 744.689135 56.340773 
L 745.513969 56.178541 
L 746.338803 55.8 
L 747.163636 55.8 
L 747.163636 55.8 
" clip-path="url(#p513edd21d3)" style="fill: none; stroke: #1f77b4; stroke-width: 1.5; stroke-linecap: square"/>
   </g>
   <g id="line2d_38">
    <path d="M 139.261197 307.8 
L 141.735698 307.691845 
L 143.385366 307.583691 
L 149.159202 307.475536 
L 153.28337 307.313305 
L 156.582705 307.313305 
L 157.407539 307.096996 
L 159.88204 307.042918 
L 164.831042 306.502146 
L 177.203548 305.799142 
L 183.802217 305.690987 
L 187.926386 305.528755 
L 197.82439 305.420601 
L 201.948559 305.258369 
L 206.897561 305.150215 
L 210.196896 305.04206 
L 217.620399 304.933906 
L 220.0949 304.879828 
L 222.569401 304.825751 
L 225.043902 304.555365 
L 229.992905 304.501288 
L 231.642572 304.393133 
L 237.416408 304.284979 
L 246.489579 303.798283 
L 252.263415 303.690129 
L 253.913082 303.581974 
L 256.387583 303.47382 
L 261.336585 303.257511 
L 264.63592 303.203433 
L 267.110421 302.987124 
L 281.132594 302.175966 
L 283.607095 302.067811 
L 289.380931 301.797425 
L 291.855432 301.68927 
L 300.103769 301.256652 
L 309.17694 301.148498 
L 312.476275 300.824034 
L 314.125942 300.71588 
L 323.199113 300.066953 
L 324.023947 299.850644 
L 326.498448 299.634335 
L 328.148115 299.255794 
L 330.622616 299.201717 
L 333.097118 299.093562 
L 339.695787 298.282403 
L 343.819956 298.174249 
L 354.542794 297.36309 
L 359.491796 296.822318 
L 361.966297 296.76824 
L 363.615965 296.660086 
L 366.915299 296.551931 
L 368.564967 296.443777 
L 372.689135 296.065236 
L 373.513969 295.848927 
L 378.462971 295.632618 
L 382.58714 295.524464 
L 394.134812 294.875536 
L 395.784479 294.767382 
L 406.507317 294.172532 
L 412.281153 294.064378 
L 413.105987 293.902146 
L 419.704656 293.793991 
L 425.478492 293.523605 
L 434.551663 293.415451 
L 440.325499 293.145064 
L 446.924169 293.03691 
L 454.347672 292.658369 
L 459.296674 292.550215 
L 474.968514 291.630901 
L 481.567184 291.522747 
L 485.691353 291.144206 
L 487.34102 290.981974 
L 491.465188 290.927897 
L 494.764523 290.603433 
L 503.01286 290.170815 
L 507.961863 290.062661 
L 510.436364 290.008584 
L 512.910865 289.954506 
L 515.385366 289.68412 
L 521.984035 289.575966 
L 523.633703 289.305579 
L 525.28337 289.197425 
L 528.582705 289.08927 
L 530.232373 289.08927 
L 531.88204 288.818884 
L 540.130377 288.71073 
L 541.780044 288.548498 
L 545.079379 288.440343 
L 545.904213 288.224034 
L 547.55388 288.169957 
L 548.378714 288.007725 
L 550.853215 287.899571 
L 568.174723 286.872103 
L 573.948559 286.763948 
L 576.42306 286.709871 
L 584.671397 286.601717 
L 586.321064 286.385408 
L 592.919734 286.277253 
L 596.219069 286.169099 
L 601.992905 286.060944 
L 604.467406 285.844635 
L 611.890909 285.466094 
L 613.540576 285.35794 
L 616.839911 285.249785 
L 620.96408 285.141631 
L 625.088248 284.979399 
L 630.862084 284.871245 
L 634.161419 284.76309 
L 643.23459 284.654936 
L 648.183592 284.438627 
L 653.132594 284.330472 
L 655.607095 284.060086 
L 660.556098 284.006009 
L 661.380931 283.843777 
L 663.030599 283.735622 
L 666.329933 283.627468 
L 676.227938 283.519313 
L 680.352106 283.357082 
L 694.374279 283.303004 
L 696.023947 283.19485 
L 698.498448 283.140773 
L 709.221286 283.032618 
L 710.870953 282.924464 
L 719.944124 282.816309 
L 723.243459 282.708155 
L 733.141463 282.654077 
L 734.791131 282.545923 
L 747.163636 282.491845 
L 747.163636 282.491845 
" clip-path="url(#p513edd21d3)" style="fill: none; stroke: #ff7f0e; stroke-width: 1.5; stroke-linecap: square"/>
   </g>
   <g id="patch_3">
    <path d="M 108 320.4 
L 108 43.2 
" style="fill: none; stroke: #a9a9a9; stroke-width: 0.8; stroke-linejoin: miter; stroke-linecap: square"/>
   </g>
   <g id="patch_4">
    <path d="M 777.6 320.4 
L 777.6 43.2 
" style="fill: none"/>
   </g>
   <g id="patch_5">
    <path d="M 108 320.4 
L 777.6 320.4 
" style="fill: none; stroke: #a9a9a9; stroke-width: 0.8; stroke-linejoin: miter; stroke-linecap: square"/>
   </g>
   <g id="patch_6">
    <path d="M 108 43.2 
L 777.6 43.2 
" style="fill: none"/>
   </g>
   <g id="text_19">
    <!-- get_subscribe history -->
    <g style="fill: #a9a9a9" transform="translate(378.6075 37.2) scale(0.12 -0.12)">
     <defs>
      <path id="DejaVuSans-67" d="M 2906 1791 
Q 2906 2416 2648 2759 
Q 2391 3103 1925 3103 
Q 1463 3103 1205 2759 
Q 947 2416 947 1791 
Q 947 1169 1205 825 
Q 1463 481 1925 481 
Q 2391 481 2648 825 
Q 2906 1169 2906 1791 
z
M 3481 434 
Q 3481 -459 3084 -895 
Q 2688 -1331 1869 -1331 
Q 1566 -1331 1297 -1286 
Q 1028 -1241 775 -1147 
L 775 -588 
Q 1028 -725 1275 -790 
Q 1522 -856 1778 -856 
Q 2344 -856 2625 -561 
Q 2906 -266 2906 331 
L 2906 616 
Q 2728 306 2450 153 
Q 2172 0 1784 0 
Q 1141 0 747 490 
Q 353 981 353 1791 
Q 353 2603 747 3093 
Q 1141 3584 1784 3584 
Q 2172 3584 2450 3431 
Q 2728 3278 2906 2969 
L 2906 3500 
L 3481 3500 
L 3481 434 
z
" transform="scale(0.015625)"/>
      <path id="DejaVuSans-65" d="M 3597 1894 
L 3597 1613 
L 953 1613 
Q 991 1019 1311 708 
Q 1631 397 2203 397 
Q 2534 397 2845 478 
Q 3156 559 3463 722 
L 3463 178 
Q 3153 47 2828 -22 
Q 2503 -91 2169 -91 
Q 1331 -91 842 396 
Q 353 884 353 1716 
Q 353 2575 817 3079 
Q 1281 3584 2069 3584 
Q 2775 3584 3186 3129 
Q 3597 2675 3597 1894 
z
M 3022 2063 
Q 3016 2534 2758 2815 
Q 2500 3097 2075 3097 
Q 1594 3097 1305 2825 
Q 1016 2553 972 2059 
L 3022 2063 
z
" transform="scale(0.015625)"/>
      <path id="DejaVuSans-74" d="M 1172 4494 
L 1172 3500 
L 2356 3500 
L 2356 3053 
L 1172 3053 
L 1172 1153 
Q 1172 725 1289 603 
Q 1406 481 1766 481 
L 2356 481 
L 2356 0 
L 1766 0 
Q 1100 0 847 248 
Q 594 497 594 1153 
L 594 3053 
L 172 3053 
L 172 3500 
L 594 3500 
L 594 4494 
L 1172 4494 
z
" transform="scale(0.015625)"/>
      <path id="DejaVuSans-5f" d="M 3263 -1063 
L 3263 -1509 
L -63 -1509 
L -63 -1063 
L 3263 -1063 
z
" transform="scale(0.015625)"/>
      <path id="DejaVuSans-73" d="M 2834 3397 
L 2834 2853 
Q 2591 2978 2328 3040 
Q 2066 3103 1784 3103 
Q 1356 3103 1142 2972 
Q 928 2841 928 2578 
Q 928 2378 1081 2264 
Q 1234 2150 1697 2047 
L 1894 2003 
Q 2506 1872 2764 1633 
Q 3022 1394 3022 966 
Q 3022 478 2636 193 
Q 2250 -91 1575 -91 
Q 1294 -91 989 -36 
Q 684 19 347 128 
L 347 722 
Q 666 556 975 473 
Q 1284 391 1588 391 
Q 1994 391 2212 530 
Q 2431 669 2431 922 
Q 2431 1156 2273 1281 
Q 2116 1406 1581 1522 
L 1381 1569 
Q 847 1681 609 1914 
Q 372 2147 372 2553 
Q 372 3047 722 3315 
Q 1072 3584 1716 3584 
Q 2034 3584 2315 3537 
Q 2597 3491 2834 3397 
z
" transform="scale(0.015625)"/>
      <path id="DejaVuSans-75" d="M 544 1381 
L 544 3500 
L 1119 3500 
L 1119 1403 
Q 1119 906 1312 657 
Q 1506 409 1894 409 
Q 2359 409 2629 706 
Q 2900 1003 2900 1516 
L 2900 3500 
L 3475 3500 
L 3475 0 
L 2900 0 
L 2900 538 
Q 2691 219 2414 64 
Q 2138 -91 1772 -91 
Q 1169 -91 856 284 
Q 544 659 544 1381 
z
M 1991 3584 
L 1991 3584 
z
" transform="scale(0.015625)"/>
      <path id="DejaVuSans-62" d="M 3116 1747 
Q 3116 2381 2855 2742 
Q 2594 3103 2138 3103 
Q 1681 3103 1420 2742 
Q 1159 2381 1159 1747 
Q 1159 1113 1420 752 
Q 1681 391 2138 391 
Q 2594 391 2855 752 
Q 3116 1113 3116 1747 
z
M 1159 2969 
Q 1341 3281 1617 3432 
Q 1894 3584 2278 3584 
Q 2916 3584 3314 3078 
Q 3713 2572 3713 1747 
Q 3713 922 3314 415 
Q 2916 -91 2278 -91 
Q 1894 -91 1617 61 
Q 1341 213 1159 525 
L 1159 0 
L 581 0 
L 581 4863 
L 1159 4863 
L 1159 2969 
z
" transform="scale(0.015625)"/>
      <path id="DejaVuSans-63" d="M 3122 3366 
L 3122 2828 
Q 2878 2963 2633 3030 
Q 2388 3097 2138 3097 
Q 1578 3097 1268 2742 
Q 959 2388 959 1747 
Q 959 1106 1268 751 
Q 1578 397 2138 397 
Q 2388 397 2633 464 
Q 2878 531 3122 666 
L 3122 134 
Q 2881 22 2623 -34 
Q 2366 -91 2075 -91 
Q 1284 -91 818 406 
Q 353 903 353 1747 
Q 353 2603 823 3093 
Q 1294 3584 2113 3584 
Q 2378 3584 2631 3529 
Q 2884 3475 3122 3366 
z
" transform="scale(0.015625)"/>
      <path id="DejaVuSans-72" d="M 2631 2963 
Q 2534 3019 2420 3045 
Q 2306 3072 2169 3072 
Q 1681 3072 1420 2755 
Q 1159 2438 1159 1844 
L 1159 0 
L 581 0 
L 581 3500 
L 1159 3500 
L 1159 2956 
Q 1341 3275 1631 3429 
Q 1922 3584 2338 3584 
Q 2397 3584 2469 3576 
Q 2541 3569 2628 3553 
L 2631 2963 
z
" transform="scale(0.015625)"/>
      <path id="DejaVuSans-69" d="M 603 3500 
L 1178 3500 
L 1178 0 
L 603 0 
L 603 3500 
z
M 603 4863 
L 1178 4863 
L 1178 4134 
L 603 4134 
L 603 4863 
z
" transform="scale(0.015625)"/>
      <path id="DejaVuSans-20" transform="scale(0.015625)"/>
      <path id="DejaVuSans-68" d="M 3513 2113 
L 3513 0 
L 2938 0 
L 2938 2094 
Q 2938 2591 2744 2837 
Q 2550 3084 2163 3084 
Q 1697 3084 1428 2787 
Q 1159 2491 1159 1978 
L 1159 0 
L 581 0 
L 581 4863 
L 1159 4863 
L 1159 2956 
Q 1366 3272 1645 3428 
Q 1925 3584 2291 3584 
Q 2894 3584 3203 3211 
Q 3513 2838 3513 2113 
z
" transform="scale(0.015625)"/>
      <path id="DejaVuSans-6f" d="M 1959 3097 
Q 1497 3097 1228 2736 
Q 959 2375 959 1747 
Q 959 1119 1226 758 
Q 1494 397 1959 397 
Q 2419 397 2687 759 
Q 2956 1122 2956 1747 
Q 2956 2369 2687 2733 
Q 2419 3097 1959 3097 
z
M 1959 3584 
Q 2709 3584 3137 3096 
Q 3566 2609 3566 1747 
Q 3566 888 3137 398 
Q 2709 -91 1959 -91 
Q 1206 -91 779 398 
Q 353 888 353 1747 
Q 353 2609 779 3096 
Q 1206 3584 1959 3584 
z
" transform="scale(0.015625)"/>
      <path id="DejaVuSans-79" d="M 2059 -325 
Q 1816 -950 1584 -1140 
Q 1353 -1331 966 -1331 
L 506 -1331 
L 506 -850 
L 844 -850 
Q 1081 -850 1212 -737 
Q 1344 -625 1503 -206 
L 1606 56 
L 191 3500 
L 800 3500 
L 1894 763 
L 2988 3500 
L 3597 3500 
L 2059 -325 
z
" transform="scale(0.015625)"/>
     </defs>
     <use xlink:href="#DejaVuSans-67"/>
     <use xlink:href="#DejaVuSans-65" x="63.476562"/>
     <use xlink:href="#DejaVuSans-74" x="125"/>
     <use xlink:href="#DejaVuSans-5f" x="164.208984"/>
     <use xlink:href="#DejaVuSans-73" x="214.208984"/>
     <use xlink:href="#DejaVuSans-75" x="266.308594"/>
     <use xlink:href="#DejaVuSans-62" x="329.6875"/>
     <use xlink:href="#DejaVuSans-73" x="393.164062"/>
     <use xlink:href="#DejaVuSans-63" x="445.263672"/>
     <use xlink:href="#DejaVuSans-72" x="500.244141"/>
     <use xlink:href="#DejaVuSans-69" x="541.357422"/>
     <use xlink:href="#DejaVuSans-62" x="569.140625"/>
     <use xlink:href="#DejaVuSans-65" x="632.617188"/>
     <use xlink:href="#DejaVuSans-20" x="694.140625"/>
     <use xlink:href="#DejaVuSans-68" x="725.927734"/>
     <use xlink:href="#DejaVuSans-69" x="789.306641"/>
     <use xlink:href="#DejaVuSans-73" x="817.089844"/>
     <use xlink:href="#DejaVuSans-74" x="869.189453"/>
     <use xlink:href="#DejaVuSans-6f" x="908.398438"/>
     <use xlink:href="#DejaVuSans-72" x="969.580078"/>
     <use xlink:href="#DejaVuSans-79" x="1010.693359"/>
    </g>
   </g>
   <g id="legend_1">
    <g id="line2d_39">
     <path d="M 815.08 328.498438 
L 825.08 328.498438 
L 835.08 328.498438 
" style="fill: none; stroke: #1f77b4; stroke-width: 1.5; stroke-linecap: square"/>
    </g>
    <g id="text_20">
     <!-- star -->
     <g style="fill: #a9a9a9" transform="translate(843.08 331.998438) scale(0.1 -0.1)">
      <defs>
       <path id="DejaVuSans-61" d="M 2194 1759 
Q 1497 1759 1228 1600 
Q 959 1441 959 1056 
Q 959 750 1161 570 
Q 1363 391 1709 391 
Q 2188 391 2477 730 
Q 2766 1069 2766 1631 
L 2766 1759 
L 2194 1759 
z
M 3341 1997 
L 3341 0 
L 2766 0 
L 2766 531 
Q 2569 213 2275 61 
Q 1981 -91 1556 -91 
Q 1019 -91 701 211 
Q 384 513 384 1019 
Q 384 1609 779 1909 
Q 1175 2209 1959 2209 
L 2766 2209 
L 2766 2266 
Q 2766 2663 2505 2880 
Q 2244 3097 1772 3097 
Q 1472 3097 1187 3025 
Q 903 2953 641 2809 
L 641 3341 
Q 956 3463 1253 3523 
Q 1550 3584 1831 3584 
Q 2591 3584 2966 3190 
Q 3341 2797 3341 1997 
z
" transform="scale(0.015625)"/>
      </defs>
      <use xlink:href="#DejaVuSans-73"/>
      <use xlink:href="#DejaVuSans-74" x="52.099609"/>
      <use xlink:href="#DejaVuSans-61" x="91.308594"/>
      <use xlink:href="#DejaVuSans-72" x="152.587891"/>
     </g>
    </g>
    <g id="line2d_40">
     <path d="M 815.08 343.176562 
L 825.08 343.176562 
L 835.08 343.176562 
" style="fill: none; stroke: #ff7f0e; stroke-width: 1.5; stroke-linecap: square"/>
    </g>
    <g id="text_21">
     <!-- fork -->
     <g style="fill: #a9a9a9" transform="translate(843.08 346.676562) scale(0.1 -0.1)">
      <defs>
       <path id="DejaVuSans-66" d="M 2375 4863 
L 2375 4384 
L 1825 4384 
Q 1516 4384 1395 4259 
Q 1275 4134 1275 3809 
L 1275 3500 
L 2222 3500 
L 2222 3053 
L 1275 3053 
L 1275 0 
L 697 0 
L 697 3053 
L 147 3053 
L 147 3500 
L 697 3500 
L 697 3744 
Q 697 4328 969 4595 
Q 1241 4863 1831 4863 
L 2375 4863 
z
" transform="scale(0.015625)"/>
       <path id="DejaVuSans-6b" d="M 581 4863 
L 1159 4863 
L 1159 1991 
L 2875 3500 
L 3609 3500 
L 1753 1863 
L 3688 0 
L 2938 0 
L 1159 1709 
L 1159 0 
L 581 0 
L 581 4863 
z
" transform="scale(0.015625)"/>
      </defs>
      <use xlink:href="#DejaVuSans-66"/>
      <use xlink:href="#DejaVuSans-6f" x="35.205078"/>
      <use xlink:href="#DejaVuSans-72" x="96.386719"/>
      <use xlink:href="#DejaVuSans-6b" x="137.5"/>
     </g>
    </g>
   </g>
  </g>
 </g>
 <defs>
  <clipPath id="p513edd21d3">
   <rect x="108" y="43.2" width="669.6" height="277.2"/>
  </clipPath>
 </defs>
</svg>
