<?xml version="1.0" encoding="utf-8" standalone="no"?>
<!DOCTYPE svg PUBLIC "-//W3C//DTD SVG 1.1//EN"
  "http://www.w3.org/Graphics/SVG/1.1/DTD/svg11.dtd">
<svg xmlns:xlink="http://www.w3.org/1999/xlink" width="864pt" height="360pt" viewBox="0 0 864 360" xmlns="http://www.w3.org/2000/svg" version="1.1">
 <metadata>
  <rdf:RDF xmlns:dc="http://purl.org/dc/elements/1.1/" xmlns:cc="http://creativecommons.org/ns#" xmlns:rdf="http://www.w3.org/1999/02/22-rdf-syntax-ns#">
   <cc:Work>
    <dc:type rdf:resource="http://purl.org/dc/dcmitype/StillImage"/>
    <dc:date>2023-07-31T08:56:17.373745</dc:date>
    <dc:format>image/svg+xml</dc:format>
    <dc:creator>
     <cc:Agent>
      <dc:title>Matplotlib v3.7.2, https://matplotlib.org/</dc:title>
     </cc:Agent>
    </dc:creator>
   </cc:Work>
  </rdf:RDF>
 </metadata>
 <defs>
  <style type="text/css">*{stroke-linejoin: round; stroke-linecap: butt}</style>
 </defs>
 <g id="figure_1">
  <g id="patch_1">
   <path d="M 0 360 
L 864 360 
L 864 0 
L 0 0 
L 0 360 
z
" style="fill: none; opacity: 0"/>
  </g>
  <g id="axes_1">
   <g id="patch_2">
    <path d="M 108 320.4 
L 777.6 320.4 
L 777.6 43.2 
L 108 43.2 
L 108 320.4 
z
" style="fill: none; opacity: 0"/>
   </g>
   <g id="matplotlib.axis_1">
    <g id="xtick_1">
     <g id="line2d_1">
      <path d="M 119.439447 320.4 
L 119.439447 43.2 
" clip-path="url(#pd878d18b63)" style="fill: none; stroke-dasharray: 5.12,1.28,0.8,1.28; stroke-dashoffset: 0; stroke: #b0b0b0; stroke-width: 0.8"/>
     </g>
     <g id="line2d_2">
      <defs>
       <path id="m0f85db53ce" d="M 0 0 
L 0 3.5 
" style="stroke: #a9a9a9; stroke-width: 0.8"/>
      </defs>
      <g>
       <use xlink:href="#m0f85db53ce" x="119.439447" y="320.4" style="fill: #a9a9a9; stroke: #a9a9a9; stroke-width: 0.8"/>
      </g>
     </g>
     <g id="text_1">
      <!-- 2021-07 -->
      <g style="fill: #a9a9a9" transform="translate(98.548041 334.998438) scale(0.1 -0.1)">
       <defs>
        <path id="DejaVuSans-32" d="M 1228 531 
L 3431 531 
L 3431 0 
L 469 0 
L 469 531 
Q 828 903 1448 1529 
Q 2069 2156 2228 2338 
Q 2531 2678 2651 2914 
Q 2772 3150 2772 3378 
Q 2772 3750 2511 3984 
Q 2250 4219 1831 4219 
Q 1534 4219 1204 4116 
Q 875 4013 500 3803 
L 500 4441 
Q 881 4594 1212 4672 
Q 1544 4750 1819 4750 
Q 2544 4750 2975 4387 
Q 3406 4025 3406 3419 
Q 3406 3131 3298 2873 
Q 3191 2616 2906 2266 
Q 2828 2175 2409 1742 
Q 1991 1309 1228 531 
z
" transform="scale(0.015625)"/>
        <path id="DejaVuSans-30" d="M 2034 4250 
Q 1547 4250 1301 3770 
Q 1056 3291 1056 2328 
Q 1056 1369 1301 889 
Q 1547 409 2034 409 
Q 2525 409 2770 889 
Q 3016 1369 3016 2328 
Q 3016 3291 2770 3770 
Q 2525 4250 2034 4250 
z
M 2034 4750 
Q 2819 4750 3233 4129 
Q 3647 3509 3647 2328 
Q 3647 1150 3233 529 
Q 2819 -91 2034 -91 
Q 1250 -91 836 529 
Q 422 1150 422 2328 
Q 422 3509 836 4129 
Q 1250 4750 2034 4750 
z
" transform="scale(0.015625)"/>
        <path id="DejaVuSans-31" d="M 794 531 
L 1825 531 
L 1825 4091 
L 703 3866 
L 703 4441 
L 1819 4666 
L 2450 4666 
L 2450 531 
L 3481 531 
L 3481 0 
L 794 0 
L 794 531 
z
" transform="scale(0.015625)"/>
        <path id="DejaVuSans-2d" d="M 313 2009 
L 1997 2009 
L 1997 1497 
L 313 1497 
L 313 2009 
z
" transform="scale(0.015625)"/>
        <path id="DejaVuSans-37" d="M 525 4666 
L 3525 4666 
L 3525 4397 
L 1831 0 
L 1172 0 
L 2766 4134 
L 525 4134 
L 525 4666 
z
" transform="scale(0.015625)"/>
       </defs>
       <use xlink:href="#DejaVuSans-32"/>
       <use xlink:href="#DejaVuSans-30" x="63.623047"/>
       <use xlink:href="#DejaVuSans-32" x="127.246094"/>
       <use xlink:href="#DejaVuSans-31" x="190.869141"/>
       <use xlink:href="#DejaVuSans-2d" x="254.492188"/>
       <use xlink:href="#DejaVuSans-30" x="290.576172"/>
       <use xlink:href="#DejaVuSans-37" x="354.199219"/>
      </g>
     </g>
    </g>
    <g id="xtick_2">
     <g id="line2d_3">
      <path d="M 195.427112 320.4 
L 195.427112 43.2 
" clip-path="url(#pd878d18b63)" style="fill: none; stroke-dasharray: 5.12,1.28,0.8,1.28; stroke-dashoffset: 0; stroke: #b0b0b0; stroke-width: 0.8"/>
     </g>
     <g id="line2d_4">
      <g>
       <use xlink:href="#m0f85db53ce" x="195.427112" y="320.4" style="fill: #a9a9a9; stroke: #a9a9a9; stroke-width: 0.8"/>
      </g>
     </g>
     <g id="text_2">
      <!-- 2021-10 -->
      <g style="fill: #a9a9a9" transform="translate(174.535706 334.998438) scale(0.1 -0.1)">
       <use xlink:href="#DejaVuSans-32"/>
       <use xlink:href="#DejaVuSans-30" x="63.623047"/>
       <use xlink:href="#DejaVuSans-32" x="127.246094"/>
       <use xlink:href="#DejaVuSans-31" x="190.869141"/>
       <use xlink:href="#DejaVuSans-2d" x="254.492188"/>
       <use xlink:href="#DejaVuSans-31" x="290.576172"/>
       <use xlink:href="#DejaVuSans-30" x="354.199219"/>
      </g>
     </g>
    </g>
    <g id="xtick_3">
     <g id="line2d_5">
      <path d="M 271.414777 320.4 
L 271.414777 43.2 
" clip-path="url(#pd878d18b63)" style="fill: none; stroke-dasharray: 5.12,1.28,0.8,1.28; stroke-dashoffset: 0; stroke: #b0b0b0; stroke-width: 0.8"/>
     </g>
     <g id="line2d_6">
      <g>
       <use xlink:href="#m0f85db53ce" x="271.414777" y="320.4" style="fill: #a9a9a9; stroke: #a9a9a9; stroke-width: 0.8"/>
      </g>
     </g>
     <g id="text_3">
      <!-- 2022-01 -->
      <g style="fill: #a9a9a9" transform="translate(250.523371 334.998438) scale(0.1 -0.1)">
       <use xlink:href="#DejaVuSans-32"/>
       <use xlink:href="#DejaVuSans-30" x="63.623047"/>
       <use xlink:href="#DejaVuSans-32" x="127.246094"/>
       <use xlink:href="#DejaVuSans-32" x="190.869141"/>
       <use xlink:href="#DejaVuSans-2d" x="254.492188"/>
       <use xlink:href="#DejaVuSans-30" x="290.576172"/>
       <use xlink:href="#DejaVuSans-31" x="354.199219"/>
      </g>
     </g>
    </g>
    <g id="xtick_4">
     <g id="line2d_7">
      <path d="M 345.750537 320.4 
L 345.750537 43.2 
" clip-path="url(#pd878d18b63)" style="fill: none; stroke-dasharray: 5.12,1.28,0.8,1.28; stroke-dashoffset: 0; stroke: #b0b0b0; stroke-width: 0.8"/>
     </g>
     <g id="line2d_8">
      <g>
       <use xlink:href="#m0f85db53ce" x="345.750537" y="320.4" style="fill: #a9a9a9; stroke: #a9a9a9; stroke-width: 0.8"/>
      </g>
     </g>
     <g id="text_4">
      <!-- 2022-04 -->
      <g style="fill: #a9a9a9" transform="translate(324.85913 334.998438) scale(0.1 -0.1)">
       <defs>
        <path id="DejaVuSans-34" d="M 2419 4116 
L 825 1625 
L 2419 1625 
L 2419 4116 
z
M 2253 4666 
L 3047 4666 
L 3047 1625 
L 3713 1625 
L 3713 1100 
L 3047 1100 
L 3047 0 
L 2419 0 
L 2419 1100 
L 313 1100 
L 313 1709 
L 2253 4666 
z
" transform="scale(0.015625)"/>
       </defs>
       <use xlink:href="#DejaVuSans-32"/>
       <use xlink:href="#DejaVuSans-30" x="63.623047"/>
       <use xlink:href="#DejaVuSans-32" x="127.246094"/>
       <use xlink:href="#DejaVuSans-32" x="190.869141"/>
       <use xlink:href="#DejaVuSans-2d" x="254.492188"/>
       <use xlink:href="#DejaVuSans-30" x="290.576172"/>
       <use xlink:href="#DejaVuSans-34" x="354.199219"/>
      </g>
     </g>
    </g>
    <g id="xtick_5">
     <g id="line2d_9">
      <path d="M 420.912249 320.4 
L 420.912249 43.2 
" clip-path="url(#pd878d18b63)" style="fill: none; stroke-dasharray: 5.12,1.28,0.8,1.28; stroke-dashoffset: 0; stroke: #b0b0b0; stroke-width: 0.8"/>
     </g>
     <g id="line2d_10">
      <g>
       <use xlink:href="#m0f85db53ce" x="420.912249" y="320.4" style="fill: #a9a9a9; stroke: #a9a9a9; stroke-width: 0.8"/>
      </g>
     </g>
     <g id="text_5">
      <!-- 2022-07 -->
      <g style="fill: #a9a9a9" transform="translate(400.020842 334.998438) scale(0.1 -0.1)">
       <use xlink:href="#DejaVuSans-32"/>
       <use xlink:href="#DejaVuSans-30" x="63.623047"/>
       <use xlink:href="#DejaVuSans-32" x="127.246094"/>
       <use xlink:href="#DejaVuSans-32" x="190.869141"/>
       <use xlink:href="#DejaVuSans-2d" x="254.492188"/>
       <use xlink:href="#DejaVuSans-30" x="290.576172"/>
       <use xlink:href="#DejaVuSans-37" x="354.199219"/>
      </g>
     </g>
    </g>
    <g id="xtick_6">
     <g id="line2d_11">
      <path d="M 496.899914 320.4 
L 496.899914 43.2 
" clip-path="url(#pd878d18b63)" style="fill: none; stroke-dasharray: 5.12,1.28,0.8,1.28; stroke-dashoffset: 0; stroke: #b0b0b0; stroke-width: 0.8"/>
     </g>
     <g id="line2d_12">
      <g>
       <use xlink:href="#m0f85db53ce" x="496.899914" y="320.4" style="fill: #a9a9a9; stroke: #a9a9a9; stroke-width: 0.8"/>
      </g>
     </g>
     <g id="text_6">
      <!-- 2022-10 -->
      <g style="fill: #a9a9a9" transform="translate(476.008507 334.998438) scale(0.1 -0.1)">
       <use xlink:href="#DejaVuSans-32"/>
       <use xlink:href="#DejaVuSans-30" x="63.623047"/>
       <use xlink:href="#DejaVuSans-32" x="127.246094"/>
       <use xlink:href="#DejaVuSans-32" x="190.869141"/>
       <use xlink:href="#DejaVuSans-2d" x="254.492188"/>
       <use xlink:href="#DejaVuSans-31" x="290.576172"/>
       <use xlink:href="#DejaVuSans-30" x="354.199219"/>
      </g>
     </g>
    </g>
    <g id="xtick_7">
     <g id="line2d_13">
      <path d="M 572.887579 320.4 
L 572.887579 43.2 
" clip-path="url(#pd878d18b63)" style="fill: none; stroke-dasharray: 5.12,1.28,0.8,1.28; stroke-dashoffset: 0; stroke: #b0b0b0; stroke-width: 0.8"/>
     </g>
     <g id="line2d_14">
      <g>
       <use xlink:href="#m0f85db53ce" x="572.887579" y="320.4" style="fill: #a9a9a9; stroke: #a9a9a9; stroke-width: 0.8"/>
      </g>
     </g>
     <g id="text_7">
      <!-- 2023-01 -->
      <g style="fill: #a9a9a9" transform="translate(551.996172 334.998438) scale(0.1 -0.1)">
       <defs>
        <path id="DejaVuSans-33" d="M 2597 2516 
Q 3050 2419 3304 2112 
Q 3559 1806 3559 1356 
Q 3559 666 3084 287 
Q 2609 -91 1734 -91 
Q 1441 -91 1130 -33 
Q 819 25 488 141 
L 488 750 
Q 750 597 1062 519 
Q 1375 441 1716 441 
Q 2309 441 2620 675 
Q 2931 909 2931 1356 
Q 2931 1769 2642 2001 
Q 2353 2234 1838 2234 
L 1294 2234 
L 1294 2753 
L 1863 2753 
Q 2328 2753 2575 2939 
Q 2822 3125 2822 3475 
Q 2822 3834 2567 4026 
Q 2313 4219 1838 4219 
Q 1578 4219 1281 4162 
Q 984 4106 628 3988 
L 628 4550 
Q 988 4650 1302 4700 
Q 1616 4750 1894 4750 
Q 2613 4750 3031 4423 
Q 3450 4097 3450 3541 
Q 3450 3153 3228 2886 
Q 3006 2619 2597 2516 
z
" transform="scale(0.015625)"/>
       </defs>
       <use xlink:href="#DejaVuSans-32"/>
       <use xlink:href="#DejaVuSans-30" x="63.623047"/>
       <use xlink:href="#DejaVuSans-32" x="127.246094"/>
       <use xlink:href="#DejaVuSans-33" x="190.869141"/>
       <use xlink:href="#DejaVuSans-2d" x="254.492188"/>
       <use xlink:href="#DejaVuSans-30" x="290.576172"/>
       <use xlink:href="#DejaVuSans-31" x="354.199219"/>
      </g>
     </g>
    </g>
    <g id="xtick_8">
     <g id="line2d_15">
      <path d="M 647.223338 320.4 
L 647.223338 43.2 
" clip-path="url(#pd878d18b63)" style="fill: none; stroke-dasharray: 5.12,1.28,0.8,1.28; stroke-dashoffset: 0; stroke: #b0b0b0; stroke-width: 0.8"/>
     </g>
     <g id="line2d_16">
      <g>
       <use xlink:href="#m0f85db53ce" x="647.223338" y="320.4" style="fill: #a9a9a9; stroke: #a9a9a9; stroke-width: 0.8"/>
      </g>
     </g>
     <g id="text_8">
      <!-- 2023-04 -->
      <g style="fill: #a9a9a9" transform="translate(626.331932 334.998438) scale(0.1 -0.1)">
       <use xlink:href="#DejaVuSans-32"/>
       <use xlink:href="#DejaVuSans-30" x="63.623047"/>
       <use xlink:href="#DejaVuSans-32" x="127.246094"/>
       <use xlink:href="#DejaVuSans-33" x="190.869141"/>
       <use xlink:href="#DejaVuSans-2d" x="254.492188"/>
       <use xlink:href="#DejaVuSans-30" x="290.576172"/>
       <use xlink:href="#DejaVuSans-34" x="354.199219"/>
      </g>
     </g>
    </g>
    <g id="xtick_9">
     <g id="line2d_17">
      <path d="M 722.38505 320.4 
L 722.38505 43.2 
" clip-path="url(#pd878d18b63)" style="fill: none; stroke-dasharray: 5.12,1.28,0.8,1.28; stroke-dashoffset: 0; stroke: #b0b0b0; stroke-width: 0.8"/>
     </g>
     <g id="line2d_18">
      <g>
       <use xlink:href="#m0f85db53ce" x="722.38505" y="320.4" style="fill: #a9a9a9; stroke: #a9a9a9; stroke-width: 0.8"/>
      </g>
     </g>
     <g id="text_9">
      <!-- 2023-07 -->
      <g style="fill: #a9a9a9" transform="translate(701.493644 334.998438) scale(0.1 -0.1)">
       <use xlink:href="#DejaVuSans-32"/>
       <use xlink:href="#DejaVuSans-30" x="63.623047"/>
       <use xlink:href="#DejaVuSans-32" x="127.246094"/>
       <use xlink:href="#DejaVuSans-33" x="190.869141"/>
       <use xlink:href="#DejaVuSans-2d" x="254.492188"/>
       <use xlink:href="#DejaVuSans-30" x="290.576172"/>
       <use xlink:href="#DejaVuSans-37" x="354.199219"/>
      </g>
     </g>
    </g>
   </g>
   <g id="matplotlib.axis_2">
    <g id="ytick_1">
     <g id="line2d_19">
      <path d="M 108 307.854135 
L 777.6 307.854135 
" clip-path="url(#pd878d18b63)" style="fill: none; stroke-dasharray: 5.12,1.28,0.8,1.28; stroke-dashoffset: 0; stroke: #b0b0b0; stroke-width: 0.8"/>
     </g>
     <g id="line2d_20">
      <defs>
       <path id="m421a793e00" d="M 0 0 
L -3.5 0 
" style="stroke: #a9a9a9; stroke-width: 0.8"/>
      </defs>
      <g>
       <use xlink:href="#m421a793e00" x="108" y="307.854135" style="fill: #a9a9a9; stroke: #a9a9a9; stroke-width: 0.8"/>
      </g>
     </g>
     <g id="text_10">
      <!-- 0 -->
      <g style="fill: #a9a9a9" transform="translate(94.6375 311.653354) scale(0.1 -0.1)">
       <use xlink:href="#DejaVuSans-30"/>
      </g>
     </g>
    </g>
    <g id="ytick_2">
     <g id="line2d_21">
      <path d="M 108 275.372932 
L 777.6 275.372932 
" clip-path="url(#pd878d18b63)" style="fill: none; stroke-dasharray: 5.12,1.28,0.8,1.28; stroke-dashoffset: 0; stroke: #b0b0b0; stroke-width: 0.8"/>
     </g>
     <g id="line2d_22">
      <g>
       <use xlink:href="#m421a793e00" x="108" y="275.372932" style="fill: #a9a9a9; stroke: #a9a9a9; stroke-width: 0.8"/>
      </g>
     </g>
     <g id="text_11">
      <!-- 600 -->
      <g style="fill: #a9a9a9" transform="translate(81.9125 279.172151) scale(0.1 -0.1)">
       <defs>
        <path id="DejaVuSans-36" d="M 2113 2584 
Q 1688 2584 1439 2293 
Q 1191 2003 1191 1497 
Q 1191 994 1439 701 
Q 1688 409 2113 409 
Q 2538 409 2786 701 
Q 3034 994 3034 1497 
Q 3034 2003 2786 2293 
Q 2538 2584 2113 2584 
z
M 3366 4563 
L 3366 3988 
Q 3128 4100 2886 4159 
Q 2644 4219 2406 4219 
Q 1781 4219 1451 3797 
Q 1122 3375 1075 2522 
Q 1259 2794 1537 2939 
Q 1816 3084 2150 3084 
Q 2853 3084 3261 2657 
Q 3669 2231 3669 1497 
Q 3669 778 3244 343 
Q 2819 -91 2113 -91 
Q 1303 -91 875 529 
Q 447 1150 447 2328 
Q 447 3434 972 4092 
Q 1497 4750 2381 4750 
Q 2619 4750 2861 4703 
Q 3103 4656 3366 4563 
z
" transform="scale(0.015625)"/>
       </defs>
       <use xlink:href="#DejaVuSans-36"/>
       <use xlink:href="#DejaVuSans-30" x="63.623047"/>
       <use xlink:href="#DejaVuSans-30" x="127.246094"/>
      </g>
     </g>
    </g>
    <g id="ytick_3">
     <g id="line2d_23">
      <path d="M 108 242.891729 
L 777.6 242.891729 
" clip-path="url(#pd878d18b63)" style="fill: none; stroke-dasharray: 5.12,1.28,0.8,1.28; stroke-dashoffset: 0; stroke: #b0b0b0; stroke-width: 0.8"/>
     </g>
     <g id="line2d_24">
      <g>
       <use xlink:href="#m421a793e00" x="108" y="242.891729" style="fill: #a9a9a9; stroke: #a9a9a9; stroke-width: 0.8"/>
      </g>
     </g>
     <g id="text_12">
      <!-- 1200 -->
      <g style="fill: #a9a9a9" transform="translate(75.55 246.690948) scale(0.1 -0.1)">
       <use xlink:href="#DejaVuSans-31"/>
       <use xlink:href="#DejaVuSans-32" x="63.623047"/>
       <use xlink:href="#DejaVuSans-30" x="127.246094"/>
       <use xlink:href="#DejaVuSans-30" x="190.869141"/>
      </g>
     </g>
    </g>
    <g id="ytick_4">
     <g id="line2d_25">
      <path d="M 108 210.410526 
L 777.6 210.410526 
" clip-path="url(#pd878d18b63)" style="fill: none; stroke-dasharray: 5.12,1.28,0.8,1.28; stroke-dashoffset: 0; stroke: #b0b0b0; stroke-width: 0.8"/>
     </g>
     <g id="line2d_26">
      <g>
       <use xlink:href="#m421a793e00" x="108" y="210.410526" style="fill: #a9a9a9; stroke: #a9a9a9; stroke-width: 0.8"/>
      </g>
     </g>
     <g id="text_13">
      <!-- 1800 -->
      <g style="fill: #a9a9a9" transform="translate(75.55 214.209745) scale(0.1 -0.1)">
       <defs>
        <path id="DejaVuSans-38" d="M 2034 2216 
Q 1584 2216 1326 1975 
Q 1069 1734 1069 1313 
Q 1069 891 1326 650 
Q 1584 409 2034 409 
Q 2484 409 2743 651 
Q 3003 894 3003 1313 
Q 3003 1734 2745 1975 
Q 2488 2216 2034 2216 
z
M 1403 2484 
Q 997 2584 770 2862 
Q 544 3141 544 3541 
Q 544 4100 942 4425 
Q 1341 4750 2034 4750 
Q 2731 4750 3128 4425 
Q 3525 4100 3525 3541 
Q 3525 3141 3298 2862 
Q 3072 2584 2669 2484 
Q 3125 2378 3379 2068 
Q 3634 1759 3634 1313 
Q 3634 634 3220 271 
Q 2806 -91 2034 -91 
Q 1263 -91 848 271 
Q 434 634 434 1313 
Q 434 1759 690 2068 
Q 947 2378 1403 2484 
z
M 1172 3481 
Q 1172 3119 1398 2916 
Q 1625 2713 2034 2713 
Q 2441 2713 2670 2916 
Q 2900 3119 2900 3481 
Q 2900 3844 2670 4047 
Q 2441 4250 2034 4250 
Q 1625 4250 1398 4047 
Q 1172 3844 1172 3481 
z
" transform="scale(0.015625)"/>
       </defs>
       <use xlink:href="#DejaVuSans-31"/>
       <use xlink:href="#DejaVuSans-38" x="63.623047"/>
       <use xlink:href="#DejaVuSans-30" x="127.246094"/>
       <use xlink:href="#DejaVuSans-30" x="190.869141"/>
      </g>
     </g>
    </g>
    <g id="ytick_5">
     <g id="line2d_27">
      <path d="M 108 177.929323 
L 777.6 177.929323 
" clip-path="url(#pd878d18b63)" style="fill: none; stroke-dasharray: 5.12,1.28,0.8,1.28; stroke-dashoffset: 0; stroke: #b0b0b0; stroke-width: 0.8"/>
     </g>
     <g id="line2d_28">
      <g>
       <use xlink:href="#m421a793e00" x="108" y="177.929323" style="fill: #a9a9a9; stroke: #a9a9a9; stroke-width: 0.8"/>
      </g>
     </g>
     <g id="text_14">
      <!-- 2400 -->
      <g style="fill: #a9a9a9" transform="translate(75.55 181.728542) scale(0.1 -0.1)">
       <use xlink:href="#DejaVuSans-32"/>
       <use xlink:href="#DejaVuSans-34" x="63.623047"/>
       <use xlink:href="#DejaVuSans-30" x="127.246094"/>
       <use xlink:href="#DejaVuSans-30" x="190.869141"/>
      </g>
     </g>
    </g>
    <g id="ytick_6">
     <g id="line2d_29">
      <path d="M 108 145.44812 
L 777.6 145.44812 
" clip-path="url(#pd878d18b63)" style="fill: none; stroke-dasharray: 5.12,1.28,0.8,1.28; stroke-dashoffset: 0; stroke: #b0b0b0; stroke-width: 0.8"/>
     </g>
     <g id="line2d_30">
      <g>
       <use xlink:href="#m421a793e00" x="108" y="145.44812" style="fill: #a9a9a9; stroke: #a9a9a9; stroke-width: 0.8"/>
      </g>
     </g>
     <g id="text_15">
      <!-- 3000 -->
      <g style="fill: #a9a9a9" transform="translate(75.55 149.247339) scale(0.1 -0.1)">
       <use xlink:href="#DejaVuSans-33"/>
       <use xlink:href="#DejaVuSans-30" x="63.623047"/>
       <use xlink:href="#DejaVuSans-30" x="127.246094"/>
       <use xlink:href="#DejaVuSans-30" x="190.869141"/>
      </g>
     </g>
    </g>
    <g id="ytick_7">
     <g id="line2d_31">
      <path d="M 108 112.966917 
L 777.6 112.966917 
" clip-path="url(#pd878d18b63)" style="fill: none; stroke-dasharray: 5.12,1.28,0.8,1.28; stroke-dashoffset: 0; stroke: #b0b0b0; stroke-width: 0.8"/>
     </g>
     <g id="line2d_32">
      <g>
       <use xlink:href="#m421a793e00" x="108" y="112.966917" style="fill: #a9a9a9; stroke: #a9a9a9; stroke-width: 0.8"/>
      </g>
     </g>
     <g id="text_16">
      <!-- 3600 -->
      <g style="fill: #a9a9a9" transform="translate(75.55 116.766136) scale(0.1 -0.1)">
       <use xlink:href="#DejaVuSans-33"/>
       <use xlink:href="#DejaVuSans-36" x="63.623047"/>
       <use xlink:href="#DejaVuSans-30" x="127.246094"/>
       <use xlink:href="#DejaVuSans-30" x="190.869141"/>
      </g>
     </g>
    </g>
    <g id="ytick_8">
     <g id="line2d_33">
      <path d="M 108 80.485714 
L 777.6 80.485714 
" clip-path="url(#pd878d18b63)" style="fill: none; stroke-dasharray: 5.12,1.28,0.8,1.28; stroke-dashoffset: 0; stroke: #b0b0b0; stroke-width: 0.8"/>
     </g>
     <g id="line2d_34">
      <g>
       <use xlink:href="#m421a793e00" x="108" y="80.485714" style="fill: #a9a9a9; stroke: #a9a9a9; stroke-width: 0.8"/>
      </g>
     </g>
     <g id="text_17">
      <!-- 4200 -->
      <g style="fill: #a9a9a9" transform="translate(75.55 84.284933) scale(0.1 -0.1)">
       <use xlink:href="#DejaVuSans-34"/>
       <use xlink:href="#DejaVuSans-32" x="63.623047"/>
       <use xlink:href="#DejaVuSans-30" x="127.246094"/>
       <use xlink:href="#DejaVuSans-30" x="190.869141"/>
      </g>
     </g>
    </g>
    <g id="ytick_9">
     <g id="line2d_35">
      <path d="M 108 48.004511 
L 777.6 48.004511 
" clip-path="url(#pd878d18b63)" style="fill: none; stroke-dasharray: 5.12,1.28,0.8,1.28; stroke-dashoffset: 0; stroke: #b0b0b0; stroke-width: 0.8"/>
     </g>
     <g id="line2d_36">
      <g>
       <use xlink:href="#m421a793e00" x="108" y="48.004511" style="fill: #a9a9a9; stroke: #a9a9a9; stroke-width: 0.8"/>
      </g>
     </g>
     <g id="text_18">
      <!-- 4800 -->
      <g style="fill: #a9a9a9" transform="translate(75.55 51.80373) scale(0.1 -0.1)">
       <use xlink:href="#DejaVuSans-34"/>
       <use xlink:href="#DejaVuSans-38" x="63.623047"/>
       <use xlink:href="#DejaVuSans-30" x="127.246094"/>
       <use xlink:href="#DejaVuSans-30" x="190.869141"/>
      </g>
     </g>
    </g>
   </g>
   <g id="line2d_37">
    <path d="M 138.436364 307.691729 
L 143.392081 307.312782 
L 144.218034 306.98797 
L 146.695892 306.717293 
L 152.477563 305.688722 
L 156.607327 305.309774 
L 157.43328 304.930827 
L 158.259233 304.714286 
L 159.085186 303.73985 
L 159.911139 303.198496 
L 160.737091 301.466165 
L 161.563044 301.357895 
L 162.388997 300.762406 
L 164.040903 300.004511 
L 165.692809 298.813534 
L 166.518762 298.055639 
L 168.170667 297.297744 
L 168.99662 296.972932 
L 169.822573 296.377444 
L 173.126385 295.02406 
L 173.952337 293.778947 
L 174.77829 293.129323 
L 176.430196 292.263158 
L 184.689725 291.126316 
L 185.515678 290.747368 
L 191.297348 290.314286 
L 192.949254 289.881203 
L 194.601159 289.556391 
L 201.208783 288.690226 
L 202.034735 288.257143 
L 202.860688 288.148872 
L 203.686641 287.82406 
L 205.338547 287.553383 
L 206.1645 287.499248 
L 206.990453 287.228571 
L 210.294264 286.741353 
L 211.94617 286.308271 
L 214.424029 286.091729 
L 216.075934 285.929323 
L 216.901887 285.712782 
L 217.72784 285.658647 
L 220.205699 284.954887 
L 225.161416 284.251128 
L 225.987369 283.980451 
L 226.813322 282.897744 
L 229.29118 282.031579 
L 231.769039 281.381955 
L 232.594992 281.003008 
L 233.420945 280.948872 
L 237.550709 279.866165 
L 239.202615 279.757895 
L 240.028568 279.649624 
L 242.506427 278.945865 
L 245.810238 278.18797 
L 246.636191 277.863158 
L 247.462144 277.754887 
L 248.288097 277.37594 
L 256.547626 276.184962 
L 260.67739 275.04812 
L 261.503343 274.560902 
L 264.807154 273.694737 
L 266.45906 272.774436 
L 267.285013 272.233083 
L 268.110966 272.124812 
L 268.936919 271.854135 
L 271.414777 271.421053 
L 272.24073 271.042105 
L 273.892636 270.771429 
L 275.544542 270.013534 
L 279.674306 269.039098 
L 282.152165 268.443609 
L 282.978118 268.118797 
L 283.804071 267.956391 
L 284.630023 267.631579 
L 285.455976 267.523308 
L 286.281929 267.144361 
L 287.107882 266.92782 
L 288.759788 266.819549 
L 290.411694 266.278195 
L 292.063599 266.169925 
L 292.889552 265.790977 
L 296.193364 265.249624 
L 299.497175 264.978947 
L 300.323128 264.816541 
L 301.975034 264.058647 
L 311.060516 260.431579 
L 311.886468 259.998496 
L 312.712421 259.132331 
L 313.538374 257.833083 
L 314.364327 256.804511 
L 315.19028 256.58797 
L 316.016233 256.58797 
L 317.668139 255.396992 
L 318.494092 255.180451 
L 319.320044 254.747368 
L 320.145997 254.584962 
L 320.97195 253.881203 
L 321.797903 253.664662 
L 324.275762 252.52782 
L 325.101715 251.553383 
L 325.927667 250.362406 
L 326.75362 249.875188 
L 327.579573 248.57594 
L 328.405526 247.76391 
L 329.231479 247.384962 
L 330.057432 247.168421 
L 331.709338 246.193985 
L 332.53529 245.815038 
L 335.839102 243.433083 
L 336.665055 242.296241 
L 337.491008 240.455639 
L 338.316961 239.264662 
L 339.142914 238.669173 
L 339.968866 238.344361 
L 343.272678 235.637594 
L 344.924584 234.446617 
L 345.750537 233.742857 
L 346.576489 232.606015 
L 347.402442 231.84812 
L 349.880301 230.169925 
L 351.532207 229.087218 
L 352.35816 228.383459 
L 353.184112 228.166917 
L 355.661971 226.921805 
L 357.313877 226.001504 
L 358.13983 225.676692 
L 359.791736 224.215038 
L 360.617688 223.240602 
L 362.269594 222.157895 
L 363.095547 221.941353 
L 363.9215 221.508271 
L 364.747453 220.912782 
L 366.399359 220.046617 
L 367.225311 219.938346 
L 368.877217 219.07218 
L 369.70317 218.639098 
L 370.529123 217.827068 
L 371.355076 217.33985 
L 372.181029 217.069173 
L 373.006982 216.52782 
L 376.310793 214.903759 
L 377.136746 214.2 
L 380.440558 213.117293 
L 381.26651 212.57594 
L 382.092463 212.413534 
L 383.744369 211.87218 
L 386.222228 210.95188 
L 388.700086 210.085714 
L 390.351992 209.815038 
L 392.003898 208.461654 
L 393.655804 207.703759 
L 396.133662 206.350376 
L 397.785568 205.917293 
L 398.611521 205.430075 
L 399.437474 205.213534 
L 401.915332 203.697744 
L 404.393191 203.156391 
L 406.87105 202.290226 
L 408.522955 201.369925 
L 409.348908 201.261654 
L 410.174861 200.990977 
L 411.826767 200.666165 
L 414.304626 198.933835 
L 416.782484 198.392481 
L 417.608437 198.121805 
L 418.43439 197.526316 
L 423.390107 196.010526 
L 424.21606 195.956391 
L 429.99773 194.007519 
L 430.823683 193.628571 
L 433.301542 193.087218 
L 434.953448 192.708271 
L 435.779401 192.329323 
L 436.605353 192.166917 
L 439.083212 191.084211 
L 441.561071 189.839098 
L 442.387024 189.297744 
L 443.212976 189.081203 
L 445.690835 187.83609 
L 447.342741 187.457143 
L 448.994647 186.645113 
L 450.646552 186.21203 
L 451.472505 186.103759 
L 452.298458 185.562406 
L 453.124411 185.183459 
L 453.950364 185.021053 
L 455.60227 184.371429 
L 456.428223 184.209023 
L 457.254175 183.77594 
L 460.557987 183.288722 
L 462.209893 182.530827 
L 463.035846 181.881203 
L 463.861798 180.473684 
L 465.513704 180.148872 
L 466.339657 179.986466 
L 469.643469 178.362406 
L 470.469421 178.2 
L 475.425139 175.87218 
L 476.251092 175.330827 
L 477.077045 175.006015 
L 479.554903 174.518797 
L 481.206809 173.706767 
L 482.032762 173.381955 
L 482.858715 173.273684 
L 486.162526 171.866165 
L 487.814432 170.783459 
L 488.640385 170.404511 
L 489.466338 170.296241 
L 490.292291 170.025564 
L 491.118243 169.971429 
L 494.422055 168.942857 
L 495.248008 168.888722 
L 496.073961 168.293233 
L 497.725867 167.75188 
L 500.203725 166.993985 
L 501.029678 166.506767 
L 501.855631 166.290226 
L 502.681584 165.748872 
L 503.507537 165.42406 
L 504.33349 164.936842 
L 505.985395 164.341353 
L 506.811348 164.124812 
L 507.637301 163.745865 
L 508.463254 163.529323 
L 509.289207 163.150376 
L 510.11516 162.554887 
L 510.941113 161.688722 
L 511.767065 161.147368 
L 512.593018 160.984962 
L 514.244924 159.793985 
L 515.070877 159.631579 
L 515.89683 158.440602 
L 516.722783 158.115789 
L 517.548736 157.520301 
L 518.374689 157.41203 
L 519.200641 156.870677 
L 520.026594 156.491729 
L 520.852547 156.329323 
L 521.6785 156.004511 
L 522.504453 155.354887 
L 523.330406 155.084211 
L 525.808264 153.514286 
L 529.112076 151.944361 
L 529.938029 151.83609 
L 531.589935 151.132331 
L 532.415888 150.645113 
L 533.24184 149.345865 
L 534.067793 148.533835 
L 534.893746 148.100752 
L 535.719699 147.938346 
L 537.371605 146.96391 
L 538.197558 146.801504 
L 539.849463 146.043609 
L 542.327322 145.015038 
L 543.979228 143.932331 
L 545.631134 142.2 
L 547.283039 141.225564 
L 548.108992 140.738346 
L 548.934945 139.926316 
L 551.412804 137.977444 
L 552.238757 137.544361 
L 553.06471 136.678195 
L 553.890662 136.082707 
L 555.542568 135.541353 
L 556.368521 134.783459 
L 558.020427 133.971429 
L 558.84638 133.754887 
L 559.672333 133.159398 
L 560.498285 132.942857 
L 562.976144 131.697744 
L 563.802097 131.102256 
L 564.62805 130.669173 
L 572.061626 128.178947 
L 572.887579 127.745865 
L 573.713532 127.042105 
L 577.017343 125.851128 
L 577.843296 125.634586 
L 578.669249 125.039098 
L 581.147107 123.956391 
L 581.97306 123.360902 
L 582.799013 122.92782 
L 584.450919 119.78797 
L 586.102825 117.947368 
L 586.928778 117.406015 
L 589.406636 116.377444 
L 590.232589 116.106767 
L 591.058542 115.998496 
L 591.884495 115.565414 
L 594.362354 114.807519 
L 596.840212 113.833083 
L 598.492118 112.696241 
L 600.969977 111.613534 
L 605.099741 109.33985 
L 605.925694 108.52782 
L 607.5776 107.661654 
L 608.403552 107.228571 
L 609.229505 106.957895 
L 610.055458 106.362406 
L 611.707364 105.604511 
L 612.533317 105.117293 
L 613.35927 104.792481 
L 614.185223 104.305263 
L 615.011176 104.088722 
L 615.837128 103.493233 
L 616.663081 103.168421 
L 617.489034 103.006015 
L 619.14094 102.356391 
L 621.618799 101.490226 
L 622.444751 100.894737 
L 624.096657 100.461654 
L 625.748563 99.866165 
L 626.574516 99.216541 
L 628.226422 98.729323 
L 629.052374 98.350376 
L 629.878327 98.133835 
L 631.530233 97.051128 
L 633.182139 96.347368 
L 634.834045 95.156391 
L 636.48595 94.615038 
L 637.311903 93.911278 
L 638.137856 93.748872 
L 638.963809 93.045113 
L 640.615715 92.124812 
L 642.267621 91.475188 
L 643.093573 90.663158 
L 644.745479 90.121805 
L 645.571432 89.851128 
L 646.397385 89.36391 
L 647.223338 89.255639 
L 649.701196 88.064662 
L 653.005008 87.090226 
L 654.656914 86.873684 
L 655.482867 86.548872 
L 656.30882 86.386466 
L 657.960725 85.736842 
L 658.786678 85.682707 
L 661.264537 84.870677 
L 662.916443 83.896241 
L 664.568348 82.813534 
L 669.524066 80.485714 
L 672.001924 78.915789 
L 673.65383 78.536842 
L 676.131689 77.183459 
L 678.609547 76.425564 
L 679.4355 76.100752 
L 681.087406 75.721805 
L 685.21717 74.368421 
L 686.869076 74.043609 
L 688.520982 73.664662 
L 689.346935 73.285714 
L 690.172888 73.177444 
L 691.824793 72.52782 
L 692.650746 72.419549 
L 693.476699 72.040602 
L 695.128605 71.715789 
L 695.954558 71.336842 
L 698.432416 70.795489 
L 700.084322 70.470677 
L 707.517898 69.009023 
L 708.343851 68.684211 
L 709.169804 68.630075 
L 711.647663 67.926316 
L 712.473615 67.493233 
L 714.125521 66.95188 
L 714.951474 66.897744 
L 719.081238 65.706767 
L 724.862909 63.81203 
L 725.688861 63.81203 
L 727.340767 63.270677 
L 728.16672 62.458647 
L 728.992673 62.079699 
L 730.644579 61.592481 
L 738.078155 58.669173 
L 738.904108 58.560902 
L 739.73006 58.12782 
L 741.381966 57.640602 
L 742.207919 57.153383 
L 743.033872 56.936842 
L 743.859825 56.287218 
L 745.511731 55.962406 
L 746.337683 55.8 
L 747.163636 55.8 
L 747.163636 55.8 
" clip-path="url(#pd878d18b63)" style="fill: none; stroke: #1f77b4; stroke-width: 1.5; stroke-linecap: square"/>
   </g>
   <g id="line2d_38">
    <path d="M 139.262317 307.8 
L 141.740175 307.691729 
L 143.392081 307.583459 
L 149.173751 307.475188 
L 153.303515 307.312782 
L 156.607327 307.312782 
L 157.43328 307.096241 
L 159.911139 307.042105 
L 164.866856 306.500752 
L 177.256149 305.796992 
L 183.863772 305.688722 
L 187.993536 305.526316 
L 197.904971 305.418045 
L 202.034735 305.255639 
L 206.990453 305.147368 
L 210.294264 305.039098 
L 217.72784 304.930827 
L 220.205699 304.876692 
L 222.683557 304.822556 
L 225.161416 304.55188 
L 230.117133 304.497744 
L 231.769039 304.389474 
L 237.550709 304.281203 
L 246.636191 303.793985 
L 252.417861 303.685714 
L 254.069767 303.577444 
L 256.547626 303.469173 
L 261.503343 303.252632 
L 264.807154 303.198496 
L 267.285013 302.981955 
L 281.326212 302.169925 
L 283.804071 302.061654 
L 289.585741 301.790977 
L 292.063599 301.682707 
L 300.323128 301.249624 
L 309.40861 301.141353 
L 312.712421 300.816541 
L 314.364327 300.708271 
L 323.449809 300.058647 
L 324.275762 299.842105 
L 326.75362 299.625564 
L 328.405526 299.246617 
L 330.883385 299.192481 
L 333.361243 299.084211 
L 339.968866 298.27218 
L 344.098631 298.16391 
L 354.836018 297.35188 
L 359.791736 296.810526 
L 362.269594 296.756391 
L 363.9215 296.64812 
L 367.225311 296.53985 
L 368.877217 296.431579 
L 373.006982 296.052632 
L 373.832935 295.83609 
L 378.788652 295.619549 
L 382.918416 295.511278 
L 394.481757 294.861654 
L 396.133662 294.753383 
L 406.87105 294.157895 
L 412.65272 294.049624 
L 413.478673 293.887218 
L 420.086296 293.778947 
L 425.867966 293.508271 
L 434.953448 293.4 
L 440.735118 293.129323 
L 447.342741 293.021053 
L 454.776317 292.642105 
L 459.732034 292.533835 
L 475.425139 291.613534 
L 482.032762 291.505263 
L 486.162526 291.126316 
L 487.814432 290.96391 
L 491.944196 290.909774 
L 495.248008 290.584962 
L 503.507537 290.15188 
L 508.463254 290.043609 
L 510.941113 289.989474 
L 513.418971 289.935338 
L 515.89683 289.664662 
L 522.504453 289.556391 
L 524.156359 289.285714 
L 525.808264 289.177444 
L 529.112076 289.069173 
L 530.763982 289.069173 
L 532.415888 288.798496 
L 540.675416 288.690226 
L 542.327322 288.52782 
L 545.631134 288.419549 
L 546.457086 288.203008 
L 548.108992 288.148872 
L 548.934945 287.986466 
L 551.412804 287.878195 
L 568.757814 286.849624 
L 574.539484 286.741353 
L 577.017343 286.687218 
L 585.276872 286.578947 
L 586.928778 286.362406 
L 593.536401 286.254135 
L 596.840212 286.145865 
L 602.621882 286.037594 
L 605.099741 285.821053 
L 612.533317 285.442105 
L 614.185223 285.333835 
L 617.489034 285.225564 
L 621.618799 285.117293 
L 625.748563 284.954887 
L 631.530233 284.846617 
L 634.834045 284.738346 
L 643.919526 284.630075 
L 648.875244 284.413534 
L 653.830961 284.305263 
L 656.30882 284.034586 
L 661.264537 283.980451 
L 662.09049 283.818045 
L 663.742395 283.709774 
L 667.046207 283.601504 
L 676.957642 283.493233 
L 681.087406 283.330827 
L 695.128605 283.276692 
L 696.780511 283.168421 
L 699.258369 283.114286 
L 709.995757 283.006015 
L 711.647663 282.897744 
L 720.733144 282.789474 
L 724.036956 282.681203 
L 733.94839 282.627068 
L 735.600296 282.518797 
L 747.163636 282.464662 
L 747.163636 282.464662 
" clip-path="url(#pd878d18b63)" style="fill: none; stroke: #ff7f0e; stroke-width: 1.5; stroke-linecap: square"/>
   </g>
   <g id="patch_3">
    <path d="M 108 320.4 
L 108 43.2 
" style="fill: none; stroke: #a9a9a9; stroke-width: 0.8; stroke-linejoin: miter; stroke-linecap: square"/>
   </g>
   <g id="patch_4">
    <path d="M 777.6 320.4 
L 777.6 43.2 
" style="fill: none"/>
   </g>
   <g id="patch_5">
    <path d="M 108 320.4 
L 777.6 320.4 
" style="fill: none; stroke: #a9a9a9; stroke-width: 0.8; stroke-linejoin: miter; stroke-linecap: square"/>
   </g>
   <g id="patch_6">
    <path d="M 108 43.2 
L 777.6 43.2 
" style="fill: none"/>
   </g>
   <g id="text_19">
    <!-- get_subscribe history -->
    <g style="fill: #a9a9a9" transform="translate(378.6075 37.2) scale(0.12 -0.12)">
     <defs>
      <path id="DejaVuSans-67" d="M 2906 1791 
Q 2906 2416 2648 2759 
Q 2391 3103 1925 3103 
Q 1463 3103 1205 2759 
Q 947 2416 947 1791 
Q 947 1169 1205 825 
Q 1463 481 1925 481 
Q 2391 481 2648 825 
Q 2906 1169 2906 1791 
z
M 3481 434 
Q 3481 -459 3084 -895 
Q 2688 -1331 1869 -1331 
Q 1566 -1331 1297 -1286 
Q 1028 -1241 775 -1147 
L 775 -588 
Q 1028 -725 1275 -790 
Q 1522 -856 1778 -856 
Q 2344 -856 2625 -561 
Q 2906 -266 2906 331 
L 2906 616 
Q 2728 306 2450 153 
Q 2172 0 1784 0 
Q 1141 0 747 490 
Q 353 981 353 1791 
Q 353 2603 747 3093 
Q 1141 3584 1784 3584 
Q 2172 3584 2450 3431 
Q 2728 3278 2906 2969 
L 2906 3500 
L 3481 3500 
L 3481 434 
z
" transform="scale(0.015625)"/>
      <path id="DejaVuSans-65" d="M 3597 1894 
L 3597 1613 
L 953 1613 
Q 991 1019 1311 708 
Q 1631 397 2203 397 
Q 2534 397 2845 478 
Q 3156 559 3463 722 
L 3463 178 
Q 3153 47 2828 -22 
Q 2503 -91 2169 -91 
Q 1331 -91 842 396 
Q 353 884 353 1716 
Q 353 2575 817 3079 
Q 1281 3584 2069 3584 
Q 2775 3584 3186 3129 
Q 3597 2675 3597 1894 
z
M 3022 2063 
Q 3016 2534 2758 2815 
Q 2500 3097 2075 3097 
Q 1594 3097 1305 2825 
Q 1016 2553 972 2059 
L 3022 2063 
z
" transform="scale(0.015625)"/>
      <path id="DejaVuSans-74" d="M 1172 4494 
L 1172 3500 
L 2356 3500 
L 2356 3053 
L 1172 3053 
L 1172 1153 
Q 1172 725 1289 603 
Q 1406 481 1766 481 
L 2356 481 
L 2356 0 
L 1766 0 
Q 1100 0 847 248 
Q 594 497 594 1153 
L 594 3053 
L 172 3053 
L 172 3500 
L 594 3500 
L 594 4494 
L 1172 4494 
z
" transform="scale(0.015625)"/>
      <path id="DejaVuSans-5f" d="M 3263 -1063 
L 3263 -1509 
L -63 -1509 
L -63 -1063 
L 3263 -1063 
z
" transform="scale(0.015625)"/>
      <path id="DejaVuSans-73" d="M 2834 3397 
L 2834 2853 
Q 2591 2978 2328 3040 
Q 2066 3103 1784 3103 
Q 1356 3103 1142 2972 
Q 928 2841 928 2578 
Q 928 2378 1081 2264 
Q 1234 2150 1697 2047 
L 1894 2003 
Q 2506 1872 2764 1633 
Q 3022 1394 3022 966 
Q 3022 478 2636 193 
Q 2250 -91 1575 -91 
Q 1294 -91 989 -36 
Q 684 19 347 128 
L 347 722 
Q 666 556 975 473 
Q 1284 391 1588 391 
Q 1994 391 2212 530 
Q 2431 669 2431 922 
Q 2431 1156 2273 1281 
Q 2116 1406 1581 1522 
L 1381 1569 
Q 847 1681 609 1914 
Q 372 2147 372 2553 
Q 372 3047 722 3315 
Q 1072 3584 1716 3584 
Q 2034 3584 2315 3537 
Q 2597 3491 2834 3397 
z
" transform="scale(0.015625)"/>
      <path id="DejaVuSans-75" d="M 544 1381 
L 544 3500 
L 1119 3500 
L 1119 1403 
Q 1119 906 1312 657 
Q 1506 409 1894 409 
Q 2359 409 2629 706 
Q 2900 1003 2900 1516 
L 2900 3500 
L 3475 3500 
L 3475 0 
L 2900 0 
L 2900 538 
Q 2691 219 2414 64 
Q 2138 -91 1772 -91 
Q 1169 -91 856 284 
Q 544 659 544 1381 
z
M 1991 3584 
L 1991 3584 
z
" transform="scale(0.015625)"/>
      <path id="DejaVuSans-62" d="M 3116 1747 
Q 3116 2381 2855 2742 
Q 2594 3103 2138 3103 
Q 1681 3103 1420 2742 
Q 1159 2381 1159 1747 
Q 1159 1113 1420 752 
Q 1681 391 2138 391 
Q 2594 391 2855 752 
Q 3116 1113 3116 1747 
z
M 1159 2969 
Q 1341 3281 1617 3432 
Q 1894 3584 2278 3584 
Q 2916 3584 3314 3078 
Q 3713 2572 3713 1747 
Q 3713 922 3314 415 
Q 2916 -91 2278 -91 
Q 1894 -91 1617 61 
Q 1341 213 1159 525 
L 1159 0 
L 581 0 
L 581 4863 
L 1159 4863 
L 1159 2969 
z
" transform="scale(0.015625)"/>
      <path id="DejaVuSans-63" d="M 3122 3366 
L 3122 2828 
Q 2878 2963 2633 3030 
Q 2388 3097 2138 3097 
Q 1578 3097 1268 2742 
Q 959 2388 959 1747 
Q 959 1106 1268 751 
Q 1578 397 2138 397 
Q 2388 397 2633 464 
Q 2878 531 3122 666 
L 3122 134 
Q 2881 22 2623 -34 
Q 2366 -91 2075 -91 
Q 1284 -91 818 406 
Q 353 903 353 1747 
Q 353 2603 823 3093 
Q 1294 3584 2113 3584 
Q 2378 3584 2631 3529 
Q 2884 3475 3122 3366 
z
" transform="scale(0.015625)"/>
      <path id="DejaVuSans-72" d="M 2631 2963 
Q 2534 3019 2420 3045 
Q 2306 3072 2169 3072 
Q 1681 3072 1420 2755 
Q 1159 2438 1159 1844 
L 1159 0 
L 581 0 
L 581 3500 
L 1159 3500 
L 1159 2956 
Q 1341 3275 1631 3429 
Q 1922 3584 2338 3584 
Q 2397 3584 2469 3576 
Q 2541 3569 2628 3553 
L 2631 2963 
z
" transform="scale(0.015625)"/>
      <path id="DejaVuSans-69" d="M 603 3500 
L 1178 3500 
L 1178 0 
L 603 0 
L 603 3500 
z
M 603 4863 
L 1178 4863 
L 1178 4134 
L 603 4134 
L 603 4863 
z
" transform="scale(0.015625)"/>
      <path id="DejaVuSans-20" transform="scale(0.015625)"/>
      <path id="DejaVuSans-68" d="M 3513 2113 
L 3513 0 
L 2938 0 
L 2938 2094 
Q 2938 2591 2744 2837 
Q 2550 3084 2163 3084 
Q 1697 3084 1428 2787 
Q 1159 2491 1159 1978 
L 1159 0 
L 581 0 
L 581 4863 
L 1159 4863 
L 1159 2956 
Q 1366 3272 1645 3428 
Q 1925 3584 2291 3584 
Q 2894 3584 3203 3211 
Q 3513 2838 3513 2113 
z
" transform="scale(0.015625)"/>
      <path id="DejaVuSans-6f" d="M 1959 3097 
Q 1497 3097 1228 2736 
Q 959 2375 959 1747 
Q 959 1119 1226 758 
Q 1494 397 1959 397 
Q 2419 397 2687 759 
Q 2956 1122 2956 1747 
Q 2956 2369 2687 2733 
Q 2419 3097 1959 3097 
z
M 1959 3584 
Q 2709 3584 3137 3096 
Q 3566 2609 3566 1747 
Q 3566 888 3137 398 
Q 2709 -91 1959 -91 
Q 1206 -91 779 398 
Q 353 888 353 1747 
Q 353 2609 779 3096 
Q 1206 3584 1959 3584 
z
" transform="scale(0.015625)"/>
      <path id="DejaVuSans-79" d="M 2059 -325 
Q 1816 -950 1584 -1140 
Q 1353 -1331 966 -1331 
L 506 -1331 
L 506 -850 
L 844 -850 
Q 1081 -850 1212 -737 
Q 1344 -625 1503 -206 
L 1606 56 
L 191 3500 
L 800 3500 
L 1894 763 
L 2988 3500 
L 3597 3500 
L 2059 -325 
z
" transform="scale(0.015625)"/>
     </defs>
     <use xlink:href="#DejaVuSans-67"/>
     <use xlink:href="#DejaVuSans-65" x="63.476562"/>
     <use xlink:href="#DejaVuSans-74" x="125"/>
     <use xlink:href="#DejaVuSans-5f" x="164.208984"/>
     <use xlink:href="#DejaVuSans-73" x="214.208984"/>
     <use xlink:href="#DejaVuSans-75" x="266.308594"/>
     <use xlink:href="#DejaVuSans-62" x="329.6875"/>
     <use xlink:href="#DejaVuSans-73" x="393.164062"/>
     <use xlink:href="#DejaVuSans-63" x="445.263672"/>
     <use xlink:href="#DejaVuSans-72" x="500.244141"/>
     <use xlink:href="#DejaVuSans-69" x="541.357422"/>
     <use xlink:href="#DejaVuSans-62" x="569.140625"/>
     <use xlink:href="#DejaVuSans-65" x="632.617188"/>
     <use xlink:href="#DejaVuSans-20" x="694.140625"/>
     <use xlink:href="#DejaVuSans-68" x="725.927734"/>
     <use xlink:href="#DejaVuSans-69" x="789.306641"/>
     <use xlink:href="#DejaVuSans-73" x="817.089844"/>
     <use xlink:href="#DejaVuSans-74" x="869.189453"/>
     <use xlink:href="#DejaVuSans-6f" x="908.398438"/>
     <use xlink:href="#DejaVuSans-72" x="969.580078"/>
     <use xlink:href="#DejaVuSans-79" x="1010.693359"/>
    </g>
   </g>
   <g id="legend_1">
    <g id="line2d_39">
     <path d="M 815.08 328.498438 
L 825.08 328.498438 
L 835.08 328.498438 
" style="fill: none; stroke: #1f77b4; stroke-width: 1.5; stroke-linecap: square"/>
    </g>
    <g id="text_20">
     <!-- star -->
     <g style="fill: #a9a9a9" transform="translate(843.08 331.998438) scale(0.1 -0.1)">
      <defs>
       <path id="DejaVuSans-61" d="M 2194 1759 
Q 1497 1759 1228 1600 
Q 959 1441 959 1056 
Q 959 750 1161 570 
Q 1363 391 1709 391 
Q 2188 391 2477 730 
Q 2766 1069 2766 1631 
L 2766 1759 
L 2194 1759 
z
M 3341 1997 
L 3341 0 
L 2766 0 
L 2766 531 
Q 2569 213 2275 61 
Q 1981 -91 1556 -91 
Q 1019 -91 701 211 
Q 384 513 384 1019 
Q 384 1609 779 1909 
Q 1175 2209 1959 2209 
L 2766 2209 
L 2766 2266 
Q 2766 2663 2505 2880 
Q 2244 3097 1772 3097 
Q 1472 3097 1187 3025 
Q 903 2953 641 2809 
L 641 3341 
Q 956 3463 1253 3523 
Q 1550 3584 1831 3584 
Q 2591 3584 2966 3190 
Q 3341 2797 3341 1997 
z
" transform="scale(0.015625)"/>
      </defs>
      <use xlink:href="#DejaVuSans-73"/>
      <use xlink:href="#DejaVuSans-74" x="52.099609"/>
      <use xlink:href="#DejaVuSans-61" x="91.308594"/>
      <use xlink:href="#DejaVuSans-72" x="152.587891"/>
     </g>
    </g>
    <g id="line2d_40">
     <path d="M 815.08 343.176562 
L 825.08 343.176562 
L 835.08 343.176562 
" style="fill: none; stroke: #ff7f0e; stroke-width: 1.5; stroke-linecap: square"/>
    </g>
    <g id="text_21">
     <!-- fork -->
     <g style="fill: #a9a9a9" transform="translate(843.08 346.676562) scale(0.1 -0.1)">
      <defs>
       <path id="DejaVuSans-66" d="M 2375 4863 
L 2375 4384 
L 1825 4384 
Q 1516 4384 1395 4259 
Q 1275 4134 1275 3809 
L 1275 3500 
L 2222 3500 
L 2222 3053 
L 1275 3053 
L 1275 0 
L 697 0 
L 697 3053 
L 147 3053 
L 147 3500 
L 697 3500 
L 697 3744 
Q 697 4328 969 4595 
Q 1241 4863 1831 4863 
L 2375 4863 
z
" transform="scale(0.015625)"/>
       <path id="DejaVuSans-6b" d="M 581 4863 
L 1159 4863 
L 1159 1991 
L 2875 3500 
L 3609 3500 
L 1753 1863 
L 3688 0 
L 2938 0 
L 1159 1709 
L 1159 0 
L 581 0 
L 581 4863 
z
" transform="scale(0.015625)"/>
      </defs>
      <use xlink:href="#DejaVuSans-66"/>
      <use xlink:href="#DejaVuSans-6f" x="35.205078"/>
      <use xlink:href="#DejaVuSans-72" x="96.386719"/>
      <use xlink:href="#DejaVuSans-6b" x="137.5"/>
     </g>
    </g>
   </g>
  </g>
 </g>
 <defs>
  <clipPath id="pd878d18b63">
   <rect x="108" y="43.2" width="669.6" height="277.2"/>
  </clipPath>
 </defs>
</svg>
