<?xml version="1.0" encoding="utf-8" standalone="no"?>
<!DOCTYPE svg PUBLIC "-//W3C//DTD SVG 1.1//EN"
  "http://www.w3.org/Graphics/SVG/1.1/DTD/svg11.dtd">
<svg xmlns:xlink="http://www.w3.org/1999/xlink" width="864pt" height="360pt" viewBox="0 0 864 360" xmlns="http://www.w3.org/2000/svg" version="1.1">
 <metadata>
  <rdf:RDF xmlns:dc="http://purl.org/dc/elements/1.1/" xmlns:cc="http://creativecommons.org/ns#" xmlns:rdf="http://www.w3.org/1999/02/22-rdf-syntax-ns#">
   <cc:Work>
    <dc:type rdf:resource="http://purl.org/dc/dcmitype/StillImage"/>
    <dc:date>2023-07-31T20:21:45.986625</dc:date>
    <dc:format>image/svg+xml</dc:format>
    <dc:creator>
     <cc:Agent>
      <dc:title>Matplotlib v3.7.2, https://matplotlib.org/</dc:title>
     </cc:Agent>
    </dc:creator>
   </cc:Work>
  </rdf:RDF>
 </metadata>
 <defs>
  <style type="text/css">*{stroke-linejoin: round; stroke-linecap: butt}</style>
 </defs>
 <g id="figure_1">
  <g id="patch_1">
   <path d="M 0 360 
L 864 360 
L 864 0 
L 0 0 
L 0 360 
z
" style="fill: none; opacity: 0"/>
  </g>
  <g id="axes_1">
   <g id="patch_2">
    <path d="M 108 320.4 
L 777.6 320.4 
L 777.6 43.2 
L 108 43.2 
L 108 320.4 
z
" style="fill: none; opacity: 0"/>
   </g>
   <g id="matplotlib.axis_1">
    <g id="xtick_1">
     <g id="line2d_1">
      <path d="M 119.439447 320.4 
L 119.439447 43.2 
" clip-path="url(#p22d209726a)" style="fill: none; stroke-dasharray: 5.12,1.28,0.8,1.28; stroke-dashoffset: 0; stroke: #b0b0b0; stroke-width: 0.8"/>
     </g>
     <g id="line2d_2">
      <defs>
       <path id="mab3cbf5327" d="M 0 0 
L 0 3.5 
" style="stroke: #a9a9a9; stroke-width: 0.8"/>
      </defs>
      <g>
       <use xlink:href="#mab3cbf5327" x="119.439447" y="320.4" style="fill: #a9a9a9; stroke: #a9a9a9; stroke-width: 0.8"/>
      </g>
     </g>
     <g id="text_1">
      <!-- 2021-07 -->
      <g style="fill: #a9a9a9" transform="translate(98.548041 334.998438) scale(0.1 -0.1)">
       <defs>
        <path id="DejaVuSans-32" d="M 1228 531 
L 3431 531 
L 3431 0 
L 469 0 
L 469 531 
Q 828 903 1448 1529 
Q 2069 2156 2228 2338 
Q 2531 2678 2651 2914 
Q 2772 3150 2772 3378 
Q 2772 3750 2511 3984 
Q 2250 4219 1831 4219 
Q 1534 4219 1204 4116 
Q 875 4013 500 3803 
L 500 4441 
Q 881 4594 1212 4672 
Q 1544 4750 1819 4750 
Q 2544 4750 2975 4387 
Q 3406 4025 3406 3419 
Q 3406 3131 3298 2873 
Q 3191 2616 2906 2266 
Q 2828 2175 2409 1742 
Q 1991 1309 1228 531 
z
" transform="scale(0.015625)"/>
        <path id="DejaVuSans-30" d="M 2034 4250 
Q 1547 4250 1301 3770 
Q 1056 3291 1056 2328 
Q 1056 1369 1301 889 
Q 1547 409 2034 409 
Q 2525 409 2770 889 
Q 3016 1369 3016 2328 
Q 3016 3291 2770 3770 
Q 2525 4250 2034 4250 
z
M 2034 4750 
Q 2819 4750 3233 4129 
Q 3647 3509 3647 2328 
Q 3647 1150 3233 529 
Q 2819 -91 2034 -91 
Q 1250 -91 836 529 
Q 422 1150 422 2328 
Q 422 3509 836 4129 
Q 1250 4750 2034 4750 
z
" transform="scale(0.015625)"/>
        <path id="DejaVuSans-31" d="M 794 531 
L 1825 531 
L 1825 4091 
L 703 3866 
L 703 4441 
L 1819 4666 
L 2450 4666 
L 2450 531 
L 3481 531 
L 3481 0 
L 794 0 
L 794 531 
z
" transform="scale(0.015625)"/>
        <path id="DejaVuSans-2d" d="M 313 2009 
L 1997 2009 
L 1997 1497 
L 313 1497 
L 313 2009 
z
" transform="scale(0.015625)"/>
        <path id="DejaVuSans-37" d="M 525 4666 
L 3525 4666 
L 3525 4397 
L 1831 0 
L 1172 0 
L 2766 4134 
L 525 4134 
L 525 4666 
z
" transform="scale(0.015625)"/>
       </defs>
       <use xlink:href="#DejaVuSans-32"/>
       <use xlink:href="#DejaVuSans-30" x="63.623047"/>
       <use xlink:href="#DejaVuSans-32" x="127.246094"/>
       <use xlink:href="#DejaVuSans-31" x="190.869141"/>
       <use xlink:href="#DejaVuSans-2d" x="254.492188"/>
       <use xlink:href="#DejaVuSans-30" x="290.576172"/>
       <use xlink:href="#DejaVuSans-37" x="354.199219"/>
      </g>
     </g>
    </g>
    <g id="xtick_2">
     <g id="line2d_3">
      <path d="M 195.427112 320.4 
L 195.427112 43.2 
" clip-path="url(#p22d209726a)" style="fill: none; stroke-dasharray: 5.12,1.28,0.8,1.28; stroke-dashoffset: 0; stroke: #b0b0b0; stroke-width: 0.8"/>
     </g>
     <g id="line2d_4">
      <g>
       <use xlink:href="#mab3cbf5327" x="195.427112" y="320.4" style="fill: #a9a9a9; stroke: #a9a9a9; stroke-width: 0.8"/>
      </g>
     </g>
     <g id="text_2">
      <!-- 2021-10 -->
      <g style="fill: #a9a9a9" transform="translate(174.535706 334.998438) scale(0.1 -0.1)">
       <use xlink:href="#DejaVuSans-32"/>
       <use xlink:href="#DejaVuSans-30" x="63.623047"/>
       <use xlink:href="#DejaVuSans-32" x="127.246094"/>
       <use xlink:href="#DejaVuSans-31" x="190.869141"/>
       <use xlink:href="#DejaVuSans-2d" x="254.492188"/>
       <use xlink:href="#DejaVuSans-31" x="290.576172"/>
       <use xlink:href="#DejaVuSans-30" x="354.199219"/>
      </g>
     </g>
    </g>
    <g id="xtick_3">
     <g id="line2d_5">
      <path d="M 271.414777 320.4 
L 271.414777 43.2 
" clip-path="url(#p22d209726a)" style="fill: none; stroke-dasharray: 5.12,1.28,0.8,1.28; stroke-dashoffset: 0; stroke: #b0b0b0; stroke-width: 0.8"/>
     </g>
     <g id="line2d_6">
      <g>
       <use xlink:href="#mab3cbf5327" x="271.414777" y="320.4" style="fill: #a9a9a9; stroke: #a9a9a9; stroke-width: 0.8"/>
      </g>
     </g>
     <g id="text_3">
      <!-- 2022-01 -->
      <g style="fill: #a9a9a9" transform="translate(250.523371 334.998438) scale(0.1 -0.1)">
       <use xlink:href="#DejaVuSans-32"/>
       <use xlink:href="#DejaVuSans-30" x="63.623047"/>
       <use xlink:href="#DejaVuSans-32" x="127.246094"/>
       <use xlink:href="#DejaVuSans-32" x="190.869141"/>
       <use xlink:href="#DejaVuSans-2d" x="254.492188"/>
       <use xlink:href="#DejaVuSans-30" x="290.576172"/>
       <use xlink:href="#DejaVuSans-31" x="354.199219"/>
      </g>
     </g>
    </g>
    <g id="xtick_4">
     <g id="line2d_7">
      <path d="M 345.750537 320.4 
L 345.750537 43.2 
" clip-path="url(#p22d209726a)" style="fill: none; stroke-dasharray: 5.12,1.28,0.8,1.28; stroke-dashoffset: 0; stroke: #b0b0b0; stroke-width: 0.8"/>
     </g>
     <g id="line2d_8">
      <g>
       <use xlink:href="#mab3cbf5327" x="345.750537" y="320.4" style="fill: #a9a9a9; stroke: #a9a9a9; stroke-width: 0.8"/>
      </g>
     </g>
     <g id="text_4">
      <!-- 2022-04 -->
      <g style="fill: #a9a9a9" transform="translate(324.85913 334.998438) scale(0.1 -0.1)">
       <defs>
        <path id="DejaVuSans-34" d="M 2419 4116 
L 825 1625 
L 2419 1625 
L 2419 4116 
z
M 2253 4666 
L 3047 4666 
L 3047 1625 
L 3713 1625 
L 3713 1100 
L 3047 1100 
L 3047 0 
L 2419 0 
L 2419 1100 
L 313 1100 
L 313 1709 
L 2253 4666 
z
" transform="scale(0.015625)"/>
       </defs>
       <use xlink:href="#DejaVuSans-32"/>
       <use xlink:href="#DejaVuSans-30" x="63.623047"/>
       <use xlink:href="#DejaVuSans-32" x="127.246094"/>
       <use xlink:href="#DejaVuSans-32" x="190.869141"/>
       <use xlink:href="#DejaVuSans-2d" x="254.492188"/>
       <use xlink:href="#DejaVuSans-30" x="290.576172"/>
       <use xlink:href="#DejaVuSans-34" x="354.199219"/>
      </g>
     </g>
    </g>
    <g id="xtick_5">
     <g id="line2d_9">
      <path d="M 420.912249 320.4 
L 420.912249 43.2 
" clip-path="url(#p22d209726a)" style="fill: none; stroke-dasharray: 5.12,1.28,0.8,1.28; stroke-dashoffset: 0; stroke: #b0b0b0; stroke-width: 0.8"/>
     </g>
     <g id="line2d_10">
      <g>
       <use xlink:href="#mab3cbf5327" x="420.912249" y="320.4" style="fill: #a9a9a9; stroke: #a9a9a9; stroke-width: 0.8"/>
      </g>
     </g>
     <g id="text_5">
      <!-- 2022-07 -->
      <g style="fill: #a9a9a9" transform="translate(400.020842 334.998438) scale(0.1 -0.1)">
       <use xlink:href="#DejaVuSans-32"/>
       <use xlink:href="#DejaVuSans-30" x="63.623047"/>
       <use xlink:href="#DejaVuSans-32" x="127.246094"/>
       <use xlink:href="#DejaVuSans-32" x="190.869141"/>
       <use xlink:href="#DejaVuSans-2d" x="254.492188"/>
       <use xlink:href="#DejaVuSans-30" x="290.576172"/>
       <use xlink:href="#DejaVuSans-37" x="354.199219"/>
      </g>
     </g>
    </g>
    <g id="xtick_6">
     <g id="line2d_11">
      <path d="M 496.899914 320.4 
L 496.899914 43.2 
" clip-path="url(#p22d209726a)" style="fill: none; stroke-dasharray: 5.12,1.28,0.8,1.28; stroke-dashoffset: 0; stroke: #b0b0b0; stroke-width: 0.8"/>
     </g>
     <g id="line2d_12">
      <g>
       <use xlink:href="#mab3cbf5327" x="496.899914" y="320.4" style="fill: #a9a9a9; stroke: #a9a9a9; stroke-width: 0.8"/>
      </g>
     </g>
     <g id="text_6">
      <!-- 2022-10 -->
      <g style="fill: #a9a9a9" transform="translate(476.008507 334.998438) scale(0.1 -0.1)">
       <use xlink:href="#DejaVuSans-32"/>
       <use xlink:href="#DejaVuSans-30" x="63.623047"/>
       <use xlink:href="#DejaVuSans-32" x="127.246094"/>
       <use xlink:href="#DejaVuSans-32" x="190.869141"/>
       <use xlink:href="#DejaVuSans-2d" x="254.492188"/>
       <use xlink:href="#DejaVuSans-31" x="290.576172"/>
       <use xlink:href="#DejaVuSans-30" x="354.199219"/>
      </g>
     </g>
    </g>
    <g id="xtick_7">
     <g id="line2d_13">
      <path d="M 572.887579 320.4 
L 572.887579 43.2 
" clip-path="url(#p22d209726a)" style="fill: none; stroke-dasharray: 5.12,1.28,0.8,1.28; stroke-dashoffset: 0; stroke: #b0b0b0; stroke-width: 0.8"/>
     </g>
     <g id="line2d_14">
      <g>
       <use xlink:href="#mab3cbf5327" x="572.887579" y="320.4" style="fill: #a9a9a9; stroke: #a9a9a9; stroke-width: 0.8"/>
      </g>
     </g>
     <g id="text_7">
      <!-- 2023-01 -->
      <g style="fill: #a9a9a9" transform="translate(551.996172 334.998438) scale(0.1 -0.1)">
       <defs>
        <path id="DejaVuSans-33" d="M 2597 2516 
Q 3050 2419 3304 2112 
Q 3559 1806 3559 1356 
Q 3559 666 3084 287 
Q 2609 -91 1734 -91 
Q 1441 -91 1130 -33 
Q 819 25 488 141 
L 488 750 
Q 750 597 1062 519 
Q 1375 441 1716 441 
Q 2309 441 2620 675 
Q 2931 909 2931 1356 
Q 2931 1769 2642 2001 
Q 2353 2234 1838 2234 
L 1294 2234 
L 1294 2753 
L 1863 2753 
Q 2328 2753 2575 2939 
Q 2822 3125 2822 3475 
Q 2822 3834 2567 4026 
Q 2313 4219 1838 4219 
Q 1578 4219 1281 4162 
Q 984 4106 628 3988 
L 628 4550 
Q 988 4650 1302 4700 
Q 1616 4750 1894 4750 
Q 2613 4750 3031 4423 
Q 3450 4097 3450 3541 
Q 3450 3153 3228 2886 
Q 3006 2619 2597 2516 
z
" transform="scale(0.015625)"/>
       </defs>
       <use xlink:href="#DejaVuSans-32"/>
       <use xlink:href="#DejaVuSans-30" x="63.623047"/>
       <use xlink:href="#DejaVuSans-32" x="127.246094"/>
       <use xlink:href="#DejaVuSans-33" x="190.869141"/>
       <use xlink:href="#DejaVuSans-2d" x="254.492188"/>
       <use xlink:href="#DejaVuSans-30" x="290.576172"/>
       <use xlink:href="#DejaVuSans-31" x="354.199219"/>
      </g>
     </g>
    </g>
    <g id="xtick_8">
     <g id="line2d_15">
      <path d="M 647.223338 320.4 
L 647.223338 43.2 
" clip-path="url(#p22d209726a)" style="fill: none; stroke-dasharray: 5.12,1.28,0.8,1.28; stroke-dashoffset: 0; stroke: #b0b0b0; stroke-width: 0.8"/>
     </g>
     <g id="line2d_16">
      <g>
       <use xlink:href="#mab3cbf5327" x="647.223338" y="320.4" style="fill: #a9a9a9; stroke: #a9a9a9; stroke-width: 0.8"/>
      </g>
     </g>
     <g id="text_8">
      <!-- 2023-04 -->
      <g style="fill: #a9a9a9" transform="translate(626.331932 334.998438) scale(0.1 -0.1)">
       <use xlink:href="#DejaVuSans-32"/>
       <use xlink:href="#DejaVuSans-30" x="63.623047"/>
       <use xlink:href="#DejaVuSans-32" x="127.246094"/>
       <use xlink:href="#DejaVuSans-33" x="190.869141"/>
       <use xlink:href="#DejaVuSans-2d" x="254.492188"/>
       <use xlink:href="#DejaVuSans-30" x="290.576172"/>
       <use xlink:href="#DejaVuSans-34" x="354.199219"/>
      </g>
     </g>
    </g>
    <g id="xtick_9">
     <g id="line2d_17">
      <path d="M 722.38505 320.4 
L 722.38505 43.2 
" clip-path="url(#p22d209726a)" style="fill: none; stroke-dasharray: 5.12,1.28,0.8,1.28; stroke-dashoffset: 0; stroke: #b0b0b0; stroke-width: 0.8"/>
     </g>
     <g id="line2d_18">
      <g>
       <use xlink:href="#mab3cbf5327" x="722.38505" y="320.4" style="fill: #a9a9a9; stroke: #a9a9a9; stroke-width: 0.8"/>
      </g>
     </g>
     <g id="text_9">
      <!-- 2023-07 -->
      <g style="fill: #a9a9a9" transform="translate(701.493644 334.998438) scale(0.1 -0.1)">
       <use xlink:href="#DejaVuSans-32"/>
       <use xlink:href="#DejaVuSans-30" x="63.623047"/>
       <use xlink:href="#DejaVuSans-32" x="127.246094"/>
       <use xlink:href="#DejaVuSans-33" x="190.869141"/>
       <use xlink:href="#DejaVuSans-2d" x="254.492188"/>
       <use xlink:href="#DejaVuSans-30" x="290.576172"/>
       <use xlink:href="#DejaVuSans-37" x="354.199219"/>
      </g>
     </g>
    </g>
   </g>
   <g id="matplotlib.axis_2">
    <g id="ytick_1">
     <g id="line2d_19">
      <path d="M 108 307.8541 
L 777.6 307.8541 
" clip-path="url(#p22d209726a)" style="fill: none; stroke-dasharray: 5.12,1.28,0.8,1.28; stroke-dashoffset: 0; stroke: #b0b0b0; stroke-width: 0.8"/>
     </g>
     <g id="line2d_20">
      <defs>
       <path id="m93bf59b626" d="M 0 0 
L -3.5 0 
" style="stroke: #a9a9a9; stroke-width: 0.8"/>
      </defs>
      <g>
       <use xlink:href="#m93bf59b626" x="108" y="307.8541" style="fill: #a9a9a9; stroke: #a9a9a9; stroke-width: 0.8"/>
      </g>
     </g>
     <g id="text_10">
      <!-- 0 -->
      <g style="fill: #a9a9a9" transform="translate(94.6375 311.653319) scale(0.1 -0.1)">
       <use xlink:href="#DejaVuSans-30"/>
      </g>
     </g>
    </g>
    <g id="ytick_2">
     <g id="line2d_21">
      <path d="M 108 275.393817 
L 777.6 275.393817 
" clip-path="url(#p22d209726a)" style="fill: none; stroke-dasharray: 5.12,1.28,0.8,1.28; stroke-dashoffset: 0; stroke: #b0b0b0; stroke-width: 0.8"/>
     </g>
     <g id="line2d_22">
      <g>
       <use xlink:href="#m93bf59b626" x="108" y="275.393817" style="fill: #a9a9a9; stroke: #a9a9a9; stroke-width: 0.8"/>
      </g>
     </g>
     <g id="text_11">
      <!-- 600 -->
      <g style="fill: #a9a9a9" transform="translate(81.9125 279.193036) scale(0.1 -0.1)">
       <defs>
        <path id="DejaVuSans-36" d="M 2113 2584 
Q 1688 2584 1439 2293 
Q 1191 2003 1191 1497 
Q 1191 994 1439 701 
Q 1688 409 2113 409 
Q 2538 409 2786 701 
Q 3034 994 3034 1497 
Q 3034 2003 2786 2293 
Q 2538 2584 2113 2584 
z
M 3366 4563 
L 3366 3988 
Q 3128 4100 2886 4159 
Q 2644 4219 2406 4219 
Q 1781 4219 1451 3797 
Q 1122 3375 1075 2522 
Q 1259 2794 1537 2939 
Q 1816 3084 2150 3084 
Q 2853 3084 3261 2657 
Q 3669 2231 3669 1497 
Q 3669 778 3244 343 
Q 2819 -91 2113 -91 
Q 1303 -91 875 529 
Q 447 1150 447 2328 
Q 447 3434 972 4092 
Q 1497 4750 2381 4750 
Q 2619 4750 2861 4703 
Q 3103 4656 3366 4563 
z
" transform="scale(0.015625)"/>
       </defs>
       <use xlink:href="#DejaVuSans-36"/>
       <use xlink:href="#DejaVuSans-30" x="63.623047"/>
       <use xlink:href="#DejaVuSans-30" x="127.246094"/>
      </g>
     </g>
    </g>
    <g id="ytick_3">
     <g id="line2d_23">
      <path d="M 108 242.933534 
L 777.6 242.933534 
" clip-path="url(#p22d209726a)" style="fill: none; stroke-dasharray: 5.12,1.28,0.8,1.28; stroke-dashoffset: 0; stroke: #b0b0b0; stroke-width: 0.8"/>
     </g>
     <g id="line2d_24">
      <g>
       <use xlink:href="#m93bf59b626" x="108" y="242.933534" style="fill: #a9a9a9; stroke: #a9a9a9; stroke-width: 0.8"/>
      </g>
     </g>
     <g id="text_12">
      <!-- 1200 -->
      <g style="fill: #a9a9a9" transform="translate(75.55 246.732752) scale(0.1 -0.1)">
       <use xlink:href="#DejaVuSans-31"/>
       <use xlink:href="#DejaVuSans-32" x="63.623047"/>
       <use xlink:href="#DejaVuSans-30" x="127.246094"/>
       <use xlink:href="#DejaVuSans-30" x="190.869141"/>
      </g>
     </g>
    </g>
    <g id="ytick_4">
     <g id="line2d_25">
      <path d="M 108 210.47325 
L 777.6 210.47325 
" clip-path="url(#p22d209726a)" style="fill: none; stroke-dasharray: 5.12,1.28,0.8,1.28; stroke-dashoffset: 0; stroke: #b0b0b0; stroke-width: 0.8"/>
     </g>
     <g id="line2d_26">
      <g>
       <use xlink:href="#m93bf59b626" x="108" y="210.47325" style="fill: #a9a9a9; stroke: #a9a9a9; stroke-width: 0.8"/>
      </g>
     </g>
     <g id="text_13">
      <!-- 1800 -->
      <g style="fill: #a9a9a9" transform="translate(75.55 214.272469) scale(0.1 -0.1)">
       <defs>
        <path id="DejaVuSans-38" d="M 2034 2216 
Q 1584 2216 1326 1975 
Q 1069 1734 1069 1313 
Q 1069 891 1326 650 
Q 1584 409 2034 409 
Q 2484 409 2743 651 
Q 3003 894 3003 1313 
Q 3003 1734 2745 1975 
Q 2488 2216 2034 2216 
z
M 1403 2484 
Q 997 2584 770 2862 
Q 544 3141 544 3541 
Q 544 4100 942 4425 
Q 1341 4750 2034 4750 
Q 2731 4750 3128 4425 
Q 3525 4100 3525 3541 
Q 3525 3141 3298 2862 
Q 3072 2584 2669 2484 
Q 3125 2378 3379 2068 
Q 3634 1759 3634 1313 
Q 3634 634 3220 271 
Q 2806 -91 2034 -91 
Q 1263 -91 848 271 
Q 434 634 434 1313 
Q 434 1759 690 2068 
Q 947 2378 1403 2484 
z
M 1172 3481 
Q 1172 3119 1398 2916 
Q 1625 2713 2034 2713 
Q 2441 2713 2670 2916 
Q 2900 3119 2900 3481 
Q 2900 3844 2670 4047 
Q 2441 4250 2034 4250 
Q 1625 4250 1398 4047 
Q 1172 3844 1172 3481 
z
" transform="scale(0.015625)"/>
       </defs>
       <use xlink:href="#DejaVuSans-31"/>
       <use xlink:href="#DejaVuSans-38" x="63.623047"/>
       <use xlink:href="#DejaVuSans-30" x="127.246094"/>
       <use xlink:href="#DejaVuSans-30" x="190.869141"/>
      </g>
     </g>
    </g>
    <g id="ytick_5">
     <g id="line2d_27">
      <path d="M 108 178.012967 
L 777.6 178.012967 
" clip-path="url(#p22d209726a)" style="fill: none; stroke-dasharray: 5.12,1.28,0.8,1.28; stroke-dashoffset: 0; stroke: #b0b0b0; stroke-width: 0.8"/>
     </g>
     <g id="line2d_28">
      <g>
       <use xlink:href="#m93bf59b626" x="108" y="178.012967" style="fill: #a9a9a9; stroke: #a9a9a9; stroke-width: 0.8"/>
      </g>
     </g>
     <g id="text_14">
      <!-- 2400 -->
      <g style="fill: #a9a9a9" transform="translate(75.55 181.812186) scale(0.1 -0.1)">
       <use xlink:href="#DejaVuSans-32"/>
       <use xlink:href="#DejaVuSans-34" x="63.623047"/>
       <use xlink:href="#DejaVuSans-30" x="127.246094"/>
       <use xlink:href="#DejaVuSans-30" x="190.869141"/>
      </g>
     </g>
    </g>
    <g id="ytick_6">
     <g id="line2d_29">
      <path d="M 108 145.552684 
L 777.6 145.552684 
" clip-path="url(#p22d209726a)" style="fill: none; stroke-dasharray: 5.12,1.28,0.8,1.28; stroke-dashoffset: 0; stroke: #b0b0b0; stroke-width: 0.8"/>
     </g>
     <g id="line2d_30">
      <g>
       <use xlink:href="#m93bf59b626" x="108" y="145.552684" style="fill: #a9a9a9; stroke: #a9a9a9; stroke-width: 0.8"/>
      </g>
     </g>
     <g id="text_15">
      <!-- 3000 -->
      <g style="fill: #a9a9a9" transform="translate(75.55 149.351902) scale(0.1 -0.1)">
       <use xlink:href="#DejaVuSans-33"/>
       <use xlink:href="#DejaVuSans-30" x="63.623047"/>
       <use xlink:href="#DejaVuSans-30" x="127.246094"/>
       <use xlink:href="#DejaVuSans-30" x="190.869141"/>
      </g>
     </g>
    </g>
    <g id="ytick_7">
     <g id="line2d_31">
      <path d="M 108 113.0924 
L 777.6 113.0924 
" clip-path="url(#p22d209726a)" style="fill: none; stroke-dasharray: 5.12,1.28,0.8,1.28; stroke-dashoffset: 0; stroke: #b0b0b0; stroke-width: 0.8"/>
     </g>
     <g id="line2d_32">
      <g>
       <use xlink:href="#m93bf59b626" x="108" y="113.0924" style="fill: #a9a9a9; stroke: #a9a9a9; stroke-width: 0.8"/>
      </g>
     </g>
     <g id="text_16">
      <!-- 3600 -->
      <g style="fill: #a9a9a9" transform="translate(75.55 116.891619) scale(0.1 -0.1)">
       <use xlink:href="#DejaVuSans-33"/>
       <use xlink:href="#DejaVuSans-36" x="63.623047"/>
       <use xlink:href="#DejaVuSans-30" x="127.246094"/>
       <use xlink:href="#DejaVuSans-30" x="190.869141"/>
      </g>
     </g>
    </g>
    <g id="ytick_8">
     <g id="line2d_33">
      <path d="M 108 80.632117 
L 777.6 80.632117 
" clip-path="url(#p22d209726a)" style="fill: none; stroke-dasharray: 5.12,1.28,0.8,1.28; stroke-dashoffset: 0; stroke: #b0b0b0; stroke-width: 0.8"/>
     </g>
     <g id="line2d_34">
      <g>
       <use xlink:href="#m93bf59b626" x="108" y="80.632117" style="fill: #a9a9a9; stroke: #a9a9a9; stroke-width: 0.8"/>
      </g>
     </g>
     <g id="text_17">
      <!-- 4200 -->
      <g style="fill: #a9a9a9" transform="translate(75.55 84.431336) scale(0.1 -0.1)">
       <use xlink:href="#DejaVuSans-34"/>
       <use xlink:href="#DejaVuSans-32" x="63.623047"/>
       <use xlink:href="#DejaVuSans-30" x="127.246094"/>
       <use xlink:href="#DejaVuSans-30" x="190.869141"/>
      </g>
     </g>
    </g>
    <g id="ytick_9">
     <g id="line2d_35">
      <path d="M 108 48.171833 
L 777.6 48.171833 
" clip-path="url(#p22d209726a)" style="fill: none; stroke-dasharray: 5.12,1.28,0.8,1.28; stroke-dashoffset: 0; stroke: #b0b0b0; stroke-width: 0.8"/>
     </g>
     <g id="line2d_36">
      <g>
       <use xlink:href="#m93bf59b626" x="108" y="48.171833" style="fill: #a9a9a9; stroke: #a9a9a9; stroke-width: 0.8"/>
      </g>
     </g>
     <g id="text_18">
      <!-- 4800 -->
      <g style="fill: #a9a9a9" transform="translate(75.55 51.971052) scale(0.1 -0.1)">
       <use xlink:href="#DejaVuSans-34"/>
       <use xlink:href="#DejaVuSans-38" x="63.623047"/>
       <use xlink:href="#DejaVuSans-30" x="127.246094"/>
       <use xlink:href="#DejaVuSans-30" x="190.869141"/>
      </g>
     </g>
    </g>
   </g>
   <g id="line2d_37">
    <path d="M 138.436364 307.691799 
L 143.392081 307.313096 
L 144.218034 306.988493 
L 146.695892 306.717991 
L 152.477563 305.690082 
L 156.607327 305.311378 
L 157.43328 304.932675 
L 158.259233 304.716273 
L 159.085186 303.742465 
L 159.911139 303.20146 
L 160.737091 301.470245 
L 161.563044 301.362044 
L 162.388997 300.766939 
L 164.040903 300.009532 
L 165.692809 298.819322 
L 166.518762 298.061915 
L 168.170667 297.304508 
L 168.99662 296.979906 
L 169.822573 296.3848 
L 173.126385 295.032289 
L 173.952337 293.787978 
L 174.77829 293.138772 
L 176.430196 292.273164 
L 184.689725 291.137055 
L 185.515678 290.758351 
L 191.297348 290.325547 
L 192.949254 289.892744 
L 194.601159 289.568141 
L 201.208783 288.702533 
L 202.034735 288.269729 
L 202.860688 288.161529 
L 203.686641 287.836926 
L 205.338547 287.566423 
L 206.1645 287.512323 
L 206.990453 287.241821 
L 210.294264 286.754916 
L 211.94617 286.322112 
L 214.424029 286.105711 
L 216.075934 285.943409 
L 216.901887 285.727007 
L 217.72784 285.672907 
L 220.205699 284.969601 
L 225.161416 284.266295 
L 225.987369 283.995792 
L 226.813322 282.913783 
L 229.29118 282.048175 
L 231.769039 281.39897 
L 232.594992 281.020266 
L 233.420945 280.966166 
L 237.550709 279.884156 
L 239.202615 279.775955 
L 240.028568 279.667754 
L 242.506427 278.964448 
L 245.810238 278.207042 
L 246.636191 277.882439 
L 247.462144 277.774238 
L 248.288097 277.395535 
L 256.547626 276.205324 
L 260.67739 275.069214 
L 261.503343 274.58231 
L 264.807154 273.716702 
L 266.45906 272.796994 
L 267.285013 272.25599 
L 268.110966 272.147789 
L 268.936919 271.877286 
L 271.414777 271.444483 
L 272.24073 271.065779 
L 273.892636 270.795277 
L 275.544542 270.03787 
L 279.674306 269.064062 
L 282.152165 268.468957 
L 282.978118 268.144354 
L 283.804071 267.982052 
L 284.630023 267.65745 
L 285.455976 267.549249 
L 286.281929 267.170545 
L 287.107882 266.954143 
L 288.759788 266.845942 
L 290.411694 266.304938 
L 292.063599 266.196737 
L 292.889552 265.818033 
L 296.193364 265.277029 
L 299.497175 265.006526 
L 300.323128 264.844225 
L 301.975034 264.086818 
L 311.060516 260.462087 
L 311.886468 260.029283 
L 312.712421 259.163675 
L 313.538374 257.865264 
L 314.364327 256.837355 
L 315.19028 256.620953 
L 316.016233 256.620953 
L 317.668139 255.430743 
L 318.494092 255.214341 
L 319.320044 254.781537 
L 320.145997 254.619236 
L 320.97195 253.91593 
L 321.797903 253.699528 
L 324.275762 252.563418 
L 325.101715 251.589609 
L 325.927667 250.399399 
L 326.75362 249.912495 
L 327.579573 248.614083 
L 328.405526 247.802576 
L 329.231479 247.423873 
L 330.057432 247.207471 
L 331.709338 246.233663 
L 332.53529 245.854959 
L 335.839102 243.474538 
L 336.665055 242.338429 
L 337.491008 240.499012 
L 338.316961 239.308802 
L 339.142914 238.713697 
L 339.968866 238.389094 
L 343.272678 235.68407 
L 344.924584 234.49386 
L 345.750537 233.790554 
L 346.576489 232.654444 
L 347.402442 231.897037 
L 349.880301 230.219923 
L 351.532207 229.137913 
L 352.35816 228.434607 
L 353.184112 228.218205 
L 355.661971 226.973894 
L 357.313877 226.054186 
L 358.13983 225.729584 
L 359.791736 224.268871 
L 360.617688 223.295062 
L 362.269594 222.213053 
L 363.095547 221.996651 
L 363.9215 221.563847 
L 364.747453 220.968742 
L 366.399359 220.103134 
L 367.225311 219.994933 
L 368.877217 219.129326 
L 369.70317 218.696522 
L 370.529123 217.885015 
L 371.355076 217.398111 
L 372.181029 217.127608 
L 373.006982 216.586604 
L 376.310793 214.96359 
L 377.136746 214.260283 
L 380.440558 213.178274 
L 381.26651 212.637269 
L 382.092463 212.474968 
L 383.744369 211.933963 
L 386.222228 211.014255 
L 388.700086 210.148647 
L 390.351992 209.878145 
L 392.003898 208.525633 
L 393.655804 207.768227 
L 396.133662 206.415715 
L 397.785568 205.982911 
L 398.611521 205.496007 
L 399.437474 205.279605 
L 401.915332 203.764792 
L 404.393191 203.223787 
L 406.87105 202.358179 
L 408.522955 201.438471 
L 409.348908 201.330271 
L 410.174861 201.059768 
L 411.826767 200.735165 
L 414.304626 199.00395 
L 416.782484 198.462945 
L 417.608437 198.192443 
L 418.43439 197.597338 
L 423.390107 196.082525 
L 424.21606 196.028424 
L 429.99773 194.080807 
L 430.823683 193.702104 
L 433.301542 193.161099 
L 434.953448 192.782396 
L 435.779401 192.403693 
L 436.605353 192.241391 
L 439.083212 191.159382 
L 441.561071 189.915071 
L 442.387024 189.374066 
L 443.212976 189.157664 
L 445.690835 187.913353 
L 447.342741 187.53465 
L 448.994647 186.723143 
L 450.646552 186.290339 
L 451.472505 186.182138 
L 452.298458 185.641134 
L 453.124411 185.26243 
L 453.950364 185.100129 
L 455.60227 184.450923 
L 456.428223 184.288622 
L 457.254175 183.855818 
L 460.557987 183.368914 
L 462.209893 182.611507 
L 463.035846 181.962301 
L 463.861798 180.555689 
L 465.513704 180.231086 
L 466.339657 180.068785 
L 469.643469 178.445771 
L 470.469421 178.283469 
L 475.425139 175.957149 
L 476.251092 175.416144 
L 477.077045 175.091541 
L 479.554903 174.604637 
L 481.206809 173.79313 
L 482.032762 173.468527 
L 482.858715 173.360326 
L 486.162526 171.953714 
L 487.814432 170.871705 
L 488.640385 170.493001 
L 489.466338 170.3848 
L 490.292291 170.114298 
L 491.118243 170.060198 
L 494.422055 169.032289 
L 495.248008 168.978188 
L 496.073961 168.383083 
L 497.725867 167.842078 
L 500.203725 167.084672 
L 501.029678 166.597767 
L 501.855631 166.381365 
L 502.681584 165.840361 
L 503.507537 165.515758 
L 504.33349 165.028854 
L 505.985395 164.433748 
L 506.811348 164.217347 
L 507.637301 163.838643 
L 508.463254 163.622241 
L 509.289207 163.243538 
L 510.11516 162.648433 
L 510.941113 161.782825 
L 511.767065 161.241821 
L 512.593018 161.079519 
L 514.244924 159.889309 
L 515.070877 159.727007 
L 515.89683 158.536797 
L 516.722783 158.212194 
L 517.548736 157.617089 
L 518.374689 157.508888 
L 519.200641 156.967883 
L 520.026594 156.58918 
L 520.852547 156.426878 
L 521.6785 156.102276 
L 522.504453 155.45307 
L 523.330406 155.182568 
L 525.808264 153.613654 
L 529.112076 152.04474 
L 529.938029 151.936539 
L 531.589935 151.233233 
L 532.415888 150.746329 
L 533.24184 149.447918 
L 534.067793 148.63641 
L 534.893746 148.203607 
L 535.719699 148.041305 
L 537.371605 147.067497 
L 538.197558 146.905195 
L 539.849463 146.147789 
L 542.327322 145.11988 
L 543.979228 144.03787 
L 545.631134 142.360756 
L 547.283039 141.386947 
L 548.108992 140.900043 
L 548.934945 140.088536 
L 551.412804 138.140919 
L 552.238757 137.708115 
L 553.06471 136.842508 
L 553.890662 136.247402 
L 555.542568 135.706398 
L 556.368521 134.948991 
L 558.020427 134.137484 
L 558.84638 133.921082 
L 559.672333 133.325977 
L 560.498285 133.109575 
L 562.976144 131.865264 
L 563.802097 131.270159 
L 564.62805 130.837355 
L 572.061626 128.348733 
L 572.887579 127.91593 
L 573.713532 127.212623 
L 577.017343 126.022413 
L 577.843296 125.806011 
L 578.669249 125.210906 
L 581.147107 124.128897 
L 581.97306 123.533791 
L 582.799013 123.100988 
L 584.450919 119.96316 
L 586.102825 118.123744 
L 586.928778 117.582739 
L 589.406636 116.55483 
L 590.232589 116.284328 
L 591.058542 116.176127 
L 591.884495 115.743323 
L 594.362354 114.985917 
L 596.840212 114.012108 
L 598.492118 112.875998 
L 600.969977 111.793989 
L 605.099741 109.521769 
L 605.925694 108.710262 
L 607.5776 107.844654 
L 608.403552 107.411851 
L 609.229505 107.141348 
L 610.055458 106.546243 
L 611.707364 105.788836 
L 612.533317 105.301932 
L 613.35927 104.977329 
L 614.185223 104.490425 
L 615.011176 104.274023 
L 615.837128 103.678918 
L 616.663081 103.354315 
L 617.489034 103.192014 
L 619.14094 102.542808 
L 621.618799 101.677201 
L 622.444751 101.082095 
L 624.096657 100.649292 
L 625.748563 100.054186 
L 626.574516 99.404981 
L 628.226422 98.918076 
L 629.052374 98.539373 
L 629.878327 98.322971 
L 631.530233 97.240962 
L 633.182139 96.537656 
L 634.834045 95.347445 
L 636.48595 94.806441 
L 637.311903 94.103134 
L 638.137856 93.940833 
L 638.963809 93.237527 
L 640.615715 92.317819 
L 642.267621 91.668613 
L 643.093573 90.857106 
L 645.571432 90.099699 
L 646.397385 89.612795 
L 647.223338 89.504594 
L 649.701196 88.314384 
L 653.005008 87.340575 
L 654.656914 87.124173 
L 655.482867 86.799571 
L 656.30882 86.637269 
L 657.960725 85.988064 
L 658.786678 85.933963 
L 661.264537 85.122456 
L 662.916443 84.148647 
L 664.568348 83.066638 
L 669.524066 80.740318 
L 672.001924 79.171404 
L 673.65383 78.792701 
L 676.131689 77.440189 
L 678.609547 76.682782 
L 679.4355 76.358179 
L 681.087406 75.979476 
L 685.21717 74.626964 
L 686.869076 74.302362 
L 688.520982 73.923658 
L 689.346935 73.544955 
L 690.172888 73.436754 
L 691.824793 72.787548 
L 692.650746 72.679347 
L 693.476699 72.300644 
L 695.128605 71.976041 
L 695.954558 71.597338 
L 698.432416 71.056333 
L 700.084322 70.73173 
L 707.517898 69.271018 
L 708.343851 68.946415 
L 709.169804 68.892314 
L 711.647663 68.189008 
L 712.473615 67.756204 
L 714.125521 67.2152 
L 714.951474 67.161099 
L 719.081238 65.970889 
L 724.862909 64.077372 
L 725.688861 64.077372 
L 727.340767 63.536368 
L 728.16672 62.72486 
L 728.992673 62.346157 
L 730.644579 61.859253 
L 738.078155 58.937827 
L 738.904108 58.829626 
L 739.73006 58.396823 
L 741.381966 57.909918 
L 742.207919 57.423014 
L 743.033872 57.206612 
L 743.859825 56.557407 
L 745.511731 56.232804 
L 747.163636 55.8 
L 747.163636 55.8 
" clip-path="url(#p22d209726a)" style="fill: none; stroke: #1f77b4; stroke-width: 1.5; stroke-linecap: square"/>
   </g>
   <g id="line2d_38">
    <path d="M 139.262317 307.8 
L 141.740175 307.691799 
L 143.392081 307.583598 
L 149.173751 307.475397 
L 153.303515 307.313096 
L 156.607327 307.313096 
L 157.43328 307.096694 
L 159.911139 307.042593 
L 164.866856 306.501589 
L 177.256149 305.798283 
L 183.863772 305.690082 
L 187.993536 305.52778 
L 197.904971 305.419579 
L 202.034735 305.257278 
L 206.990453 305.149077 
L 210.294264 305.040876 
L 217.72784 304.932675 
L 220.205699 304.878574 
L 222.683557 304.824474 
L 225.161416 304.553972 
L 230.117133 304.499871 
L 231.769039 304.39167 
L 237.550709 304.283469 
L 246.636191 303.796565 
L 252.417861 303.688364 
L 254.069767 303.580163 
L 256.547626 303.471962 
L 261.503343 303.25556 
L 264.807154 303.20146 
L 267.285013 302.985058 
L 281.326212 302.173551 
L 283.804071 302.06535 
L 289.585741 301.794848 
L 292.063599 301.686647 
L 300.323128 301.253843 
L 309.40861 301.145642 
L 312.712421 300.821039 
L 314.364327 300.712838 
L 323.449809 300.063632 
L 324.275762 299.847231 
L 326.75362 299.630829 
L 328.405526 299.252125 
L 330.883385 299.198025 
L 333.361243 299.089824 
L 339.968866 298.278317 
L 344.098631 298.170116 
L 354.836018 297.358609 
L 359.791736 296.817604 
L 362.269594 296.763504 
L 363.9215 296.655303 
L 367.225311 296.547102 
L 368.877217 296.438901 
L 373.006982 296.060198 
L 373.832935 295.843796 
L 378.788652 295.627394 
L 382.918416 295.519193 
L 394.481757 294.869987 
L 396.133662 294.761786 
L 406.87105 294.166681 
L 412.65272 294.05848 
L 413.478673 293.896179 
L 420.086296 293.787978 
L 425.867966 293.517475 
L 434.953448 293.409274 
L 440.735118 293.138772 
L 447.342741 293.030571 
L 454.776317 292.651868 
L 459.732034 292.543667 
L 475.425139 291.623959 
L 482.032762 291.515758 
L 486.162526 291.137055 
L 487.814432 290.974753 
L 491.944196 290.920653 
L 495.248008 290.59605 
L 503.507537 290.163246 
L 508.463254 290.055045 
L 510.941113 290.000945 
L 513.418971 289.946844 
L 515.89683 289.676342 
L 522.504453 289.568141 
L 524.156359 289.297638 
L 525.808264 289.189438 
L 529.112076 289.081237 
L 530.763982 289.081237 
L 532.415888 288.810734 
L 540.675416 288.702533 
L 542.327322 288.540232 
L 545.631134 288.432031 
L 546.457086 288.215629 
L 548.108992 288.161529 
L 548.934945 287.999227 
L 551.412804 287.891026 
L 568.757814 286.863117 
L 574.539484 286.754916 
L 577.017343 286.700816 
L 585.276872 286.592615 
L 586.928778 286.376213 
L 593.536401 286.268012 
L 596.840212 286.159811 
L 602.621882 286.05161 
L 605.099741 285.835208 
L 612.533317 285.456505 
L 614.185223 285.348304 
L 617.489034 285.240103 
L 621.618799 285.131902 
L 625.748563 284.969601 
L 631.530233 284.8614 
L 634.834045 284.753199 
L 643.919526 284.644998 
L 648.875244 284.428596 
L 653.830961 284.320395 
L 656.30882 284.049893 
L 661.264537 283.995792 
L 662.09049 283.833491 
L 663.742395 283.72529 
L 667.046207 283.617089 
L 676.957642 283.508888 
L 681.087406 283.346587 
L 695.128605 283.292486 
L 696.780511 283.184285 
L 699.258369 283.130185 
L 709.995757 283.021984 
L 711.647663 282.913783 
L 720.733144 282.805582 
L 724.036956 282.697381 
L 733.94839 282.64328 
L 735.600296 282.535079 
L 747.163636 282.480979 
L 747.163636 282.480979 
" clip-path="url(#p22d209726a)" style="fill: none; stroke: #ff7f0e; stroke-width: 1.5; stroke-linecap: square"/>
   </g>
   <g id="patch_3">
    <path d="M 108 320.4 
L 108 43.2 
" style="fill: none; stroke: #a9a9a9; stroke-width: 0.8; stroke-linejoin: miter; stroke-linecap: square"/>
   </g>
   <g id="patch_4">
    <path d="M 777.6 320.4 
L 777.6 43.2 
" style="fill: none"/>
   </g>
   <g id="patch_5">
    <path d="M 108 320.4 
L 777.6 320.4 
" style="fill: none; stroke: #a9a9a9; stroke-width: 0.8; stroke-linejoin: miter; stroke-linecap: square"/>
   </g>
   <g id="patch_6">
    <path d="M 108 43.2 
L 777.6 43.2 
" style="fill: none"/>
   </g>
   <g id="text_19">
    <!-- get_subscribe history -->
    <g style="fill: #a9a9a9" transform="translate(378.6075 37.2) scale(0.12 -0.12)">
     <defs>
      <path id="DejaVuSans-67" d="M 2906 1791 
Q 2906 2416 2648 2759 
Q 2391 3103 1925 3103 
Q 1463 3103 1205 2759 
Q 947 2416 947 1791 
Q 947 1169 1205 825 
Q 1463 481 1925 481 
Q 2391 481 2648 825 
Q 2906 1169 2906 1791 
z
M 3481 434 
Q 3481 -459 3084 -895 
Q 2688 -1331 1869 -1331 
Q 1566 -1331 1297 -1286 
Q 1028 -1241 775 -1147 
L 775 -588 
Q 1028 -725 1275 -790 
Q 1522 -856 1778 -856 
Q 2344 -856 2625 -561 
Q 2906 -266 2906 331 
L 2906 616 
Q 2728 306 2450 153 
Q 2172 0 1784 0 
Q 1141 0 747 490 
Q 353 981 353 1791 
Q 353 2603 747 3093 
Q 1141 3584 1784 3584 
Q 2172 3584 2450 3431 
Q 2728 3278 2906 2969 
L 2906 3500 
L 3481 3500 
L 3481 434 
z
" transform="scale(0.015625)"/>
      <path id="DejaVuSans-65" d="M 3597 1894 
L 3597 1613 
L 953 1613 
Q 991 1019 1311 708 
Q 1631 397 2203 397 
Q 2534 397 2845 478 
Q 3156 559 3463 722 
L 3463 178 
Q 3153 47 2828 -22 
Q 2503 -91 2169 -91 
Q 1331 -91 842 396 
Q 353 884 353 1716 
Q 353 2575 817 3079 
Q 1281 3584 2069 3584 
Q 2775 3584 3186 3129 
Q 3597 2675 3597 1894 
z
M 3022 2063 
Q 3016 2534 2758 2815 
Q 2500 3097 2075 3097 
Q 1594 3097 1305 2825 
Q 1016 2553 972 2059 
L 3022 2063 
z
" transform="scale(0.015625)"/>
      <path id="DejaVuSans-74" d="M 1172 4494 
L 1172 3500 
L 2356 3500 
L 2356 3053 
L 1172 3053 
L 1172 1153 
Q 1172 725 1289 603 
Q 1406 481 1766 481 
L 2356 481 
L 2356 0 
L 1766 0 
Q 1100 0 847 248 
Q 594 497 594 1153 
L 594 3053 
L 172 3053 
L 172 3500 
L 594 3500 
L 594 4494 
L 1172 4494 
z
" transform="scale(0.015625)"/>
      <path id="DejaVuSans-5f" d="M 3263 -1063 
L 3263 -1509 
L -63 -1509 
L -63 -1063 
L 3263 -1063 
z
" transform="scale(0.015625)"/>
      <path id="DejaVuSans-73" d="M 2834 3397 
L 2834 2853 
Q 2591 2978 2328 3040 
Q 2066 3103 1784 3103 
Q 1356 3103 1142 2972 
Q 928 2841 928 2578 
Q 928 2378 1081 2264 
Q 1234 2150 1697 2047 
L 1894 2003 
Q 2506 1872 2764 1633 
Q 3022 1394 3022 966 
Q 3022 478 2636 193 
Q 2250 -91 1575 -91 
Q 1294 -91 989 -36 
Q 684 19 347 128 
L 347 722 
Q 666 556 975 473 
Q 1284 391 1588 391 
Q 1994 391 2212 530 
Q 2431 669 2431 922 
Q 2431 1156 2273 1281 
Q 2116 1406 1581 1522 
L 1381 1569 
Q 847 1681 609 1914 
Q 372 2147 372 2553 
Q 372 3047 722 3315 
Q 1072 3584 1716 3584 
Q 2034 3584 2315 3537 
Q 2597 3491 2834 3397 
z
" transform="scale(0.015625)"/>
      <path id="DejaVuSans-75" d="M 544 1381 
L 544 3500 
L 1119 3500 
L 1119 1403 
Q 1119 906 1312 657 
Q 1506 409 1894 409 
Q 2359 409 2629 706 
Q 2900 1003 2900 1516 
L 2900 3500 
L 3475 3500 
L 3475 0 
L 2900 0 
L 2900 538 
Q 2691 219 2414 64 
Q 2138 -91 1772 -91 
Q 1169 -91 856 284 
Q 544 659 544 1381 
z
M 1991 3584 
L 1991 3584 
z
" transform="scale(0.015625)"/>
      <path id="DejaVuSans-62" d="M 3116 1747 
Q 3116 2381 2855 2742 
Q 2594 3103 2138 3103 
Q 1681 3103 1420 2742 
Q 1159 2381 1159 1747 
Q 1159 1113 1420 752 
Q 1681 391 2138 391 
Q 2594 391 2855 752 
Q 3116 1113 3116 1747 
z
M 1159 2969 
Q 1341 3281 1617 3432 
Q 1894 3584 2278 3584 
Q 2916 3584 3314 3078 
Q 3713 2572 3713 1747 
Q 3713 922 3314 415 
Q 2916 -91 2278 -91 
Q 1894 -91 1617 61 
Q 1341 213 1159 525 
L 1159 0 
L 581 0 
L 581 4863 
L 1159 4863 
L 1159 2969 
z
" transform="scale(0.015625)"/>
      <path id="DejaVuSans-63" d="M 3122 3366 
L 3122 2828 
Q 2878 2963 2633 3030 
Q 2388 3097 2138 3097 
Q 1578 3097 1268 2742 
Q 959 2388 959 1747 
Q 959 1106 1268 751 
Q 1578 397 2138 397 
Q 2388 397 2633 464 
Q 2878 531 3122 666 
L 3122 134 
Q 2881 22 2623 -34 
Q 2366 -91 2075 -91 
Q 1284 -91 818 406 
Q 353 903 353 1747 
Q 353 2603 823 3093 
Q 1294 3584 2113 3584 
Q 2378 3584 2631 3529 
Q 2884 3475 3122 3366 
z
" transform="scale(0.015625)"/>
      <path id="DejaVuSans-72" d="M 2631 2963 
Q 2534 3019 2420 3045 
Q 2306 3072 2169 3072 
Q 1681 3072 1420 2755 
Q 1159 2438 1159 1844 
L 1159 0 
L 581 0 
L 581 3500 
L 1159 3500 
L 1159 2956 
Q 1341 3275 1631 3429 
Q 1922 3584 2338 3584 
Q 2397 3584 2469 3576 
Q 2541 3569 2628 3553 
L 2631 2963 
z
" transform="scale(0.015625)"/>
      <path id="DejaVuSans-69" d="M 603 3500 
L 1178 3500 
L 1178 0 
L 603 0 
L 603 3500 
z
M 603 4863 
L 1178 4863 
L 1178 4134 
L 603 4134 
L 603 4863 
z
" transform="scale(0.015625)"/>
      <path id="DejaVuSans-20" transform="scale(0.015625)"/>
      <path id="DejaVuSans-68" d="M 3513 2113 
L 3513 0 
L 2938 0 
L 2938 2094 
Q 2938 2591 2744 2837 
Q 2550 3084 2163 3084 
Q 1697 3084 1428 2787 
Q 1159 2491 1159 1978 
L 1159 0 
L 581 0 
L 581 4863 
L 1159 4863 
L 1159 2956 
Q 1366 3272 1645 3428 
Q 1925 3584 2291 3584 
Q 2894 3584 3203 3211 
Q 3513 2838 3513 2113 
z
" transform="scale(0.015625)"/>
      <path id="DejaVuSans-6f" d="M 1959 3097 
Q 1497 3097 1228 2736 
Q 959 2375 959 1747 
Q 959 1119 1226 758 
Q 1494 397 1959 397 
Q 2419 397 2687 759 
Q 2956 1122 2956 1747 
Q 2956 2369 2687 2733 
Q 2419 3097 1959 3097 
z
M 1959 3584 
Q 2709 3584 3137 3096 
Q 3566 2609 3566 1747 
Q 3566 888 3137 398 
Q 2709 -91 1959 -91 
Q 1206 -91 779 398 
Q 353 888 353 1747 
Q 353 2609 779 3096 
Q 1206 3584 1959 3584 
z
" transform="scale(0.015625)"/>
      <path id="DejaVuSans-79" d="M 2059 -325 
Q 1816 -950 1584 -1140 
Q 1353 -1331 966 -1331 
L 506 -1331 
L 506 -850 
L 844 -850 
Q 1081 -850 1212 -737 
Q 1344 -625 1503 -206 
L 1606 56 
L 191 3500 
L 800 3500 
L 1894 763 
L 2988 3500 
L 3597 3500 
L 2059 -325 
z
" transform="scale(0.015625)"/>
     </defs>
     <use xlink:href="#DejaVuSans-67"/>
     <use xlink:href="#DejaVuSans-65" x="63.476562"/>
     <use xlink:href="#DejaVuSans-74" x="125"/>
     <use xlink:href="#DejaVuSans-5f" x="164.208984"/>
     <use xlink:href="#DejaVuSans-73" x="214.208984"/>
     <use xlink:href="#DejaVuSans-75" x="266.308594"/>
     <use xlink:href="#DejaVuSans-62" x="329.6875"/>
     <use xlink:href="#DejaVuSans-73" x="393.164062"/>
     <use xlink:href="#DejaVuSans-63" x="445.263672"/>
     <use xlink:href="#DejaVuSans-72" x="500.244141"/>
     <use xlink:href="#DejaVuSans-69" x="541.357422"/>
     <use xlink:href="#DejaVuSans-62" x="569.140625"/>
     <use xlink:href="#DejaVuSans-65" x="632.617188"/>
     <use xlink:href="#DejaVuSans-20" x="694.140625"/>
     <use xlink:href="#DejaVuSans-68" x="725.927734"/>
     <use xlink:href="#DejaVuSans-69" x="789.306641"/>
     <use xlink:href="#DejaVuSans-73" x="817.089844"/>
     <use xlink:href="#DejaVuSans-74" x="869.189453"/>
     <use xlink:href="#DejaVuSans-6f" x="908.398438"/>
     <use xlink:href="#DejaVuSans-72" x="969.580078"/>
     <use xlink:href="#DejaVuSans-79" x="1010.693359"/>
    </g>
   </g>
   <g id="legend_1">
    <g id="line2d_39">
     <path d="M 815.08 328.498438 
L 825.08 328.498438 
L 835.08 328.498438 
" style="fill: none; stroke: #1f77b4; stroke-width: 1.5; stroke-linecap: square"/>
    </g>
    <g id="text_20">
     <!-- star -->
     <g style="fill: #a9a9a9" transform="translate(843.08 331.998438) scale(0.1 -0.1)">
      <defs>
       <path id="DejaVuSans-61" d="M 2194 1759 
Q 1497 1759 1228 1600 
Q 959 1441 959 1056 
Q 959 750 1161 570 
Q 1363 391 1709 391 
Q 2188 391 2477 730 
Q 2766 1069 2766 1631 
L 2766 1759 
L 2194 1759 
z
M 3341 1997 
L 3341 0 
L 2766 0 
L 2766 531 
Q 2569 213 2275 61 
Q 1981 -91 1556 -91 
Q 1019 -91 701 211 
Q 384 513 384 1019 
Q 384 1609 779 1909 
Q 1175 2209 1959 2209 
L 2766 2209 
L 2766 2266 
Q 2766 2663 2505 2880 
Q 2244 3097 1772 3097 
Q 1472 3097 1187 3025 
Q 903 2953 641 2809 
L 641 3341 
Q 956 3463 1253 3523 
Q 1550 3584 1831 3584 
Q 2591 3584 2966 3190 
Q 3341 2797 3341 1997 
z
" transform="scale(0.015625)"/>
      </defs>
      <use xlink:href="#DejaVuSans-73"/>
      <use xlink:href="#DejaVuSans-74" x="52.099609"/>
      <use xlink:href="#DejaVuSans-61" x="91.308594"/>
      <use xlink:href="#DejaVuSans-72" x="152.587891"/>
     </g>
    </g>
    <g id="line2d_40">
     <path d="M 815.08 343.176562 
L 825.08 343.176562 
L 835.08 343.176562 
" style="fill: none; stroke: #ff7f0e; stroke-width: 1.5; stroke-linecap: square"/>
    </g>
    <g id="text_21">
     <!-- fork -->
     <g style="fill: #a9a9a9" transform="translate(843.08 346.676562) scale(0.1 -0.1)">
      <defs>
       <path id="DejaVuSans-66" d="M 2375 4863 
L 2375 4384 
L 1825 4384 
Q 1516 4384 1395 4259 
Q 1275 4134 1275 3809 
L 1275 3500 
L 2222 3500 
L 2222 3053 
L 1275 3053 
L 1275 0 
L 697 0 
L 697 3053 
L 147 3053 
L 147 3500 
L 697 3500 
L 697 3744 
Q 697 4328 969 4595 
Q 1241 4863 1831 4863 
L 2375 4863 
z
" transform="scale(0.015625)"/>
       <path id="DejaVuSans-6b" d="M 581 4863 
L 1159 4863 
L 1159 1991 
L 2875 3500 
L 3609 3500 
L 1753 1863 
L 3688 0 
L 2938 0 
L 1159 1709 
L 1159 0 
L 581 0 
L 581 4863 
z
" transform="scale(0.015625)"/>
      </defs>
      <use xlink:href="#DejaVuSans-66"/>
      <use xlink:href="#DejaVuSans-6f" x="35.205078"/>
      <use xlink:href="#DejaVuSans-72" x="96.386719"/>
      <use xlink:href="#DejaVuSans-6b" x="137.5"/>
     </g>
    </g>
   </g>
  </g>
 </g>
 <defs>
  <clipPath id="p22d209726a">
   <rect x="108" y="43.2" width="669.6" height="277.2"/>
  </clipPath>
 </defs>
</svg>
