<?xml version="1.0" encoding="utf-8" standalone="no"?>
<!DOCTYPE svg PUBLIC "-//W3C//DTD SVG 1.1//EN"
  "http://www.w3.org/Graphics/SVG/1.1/DTD/svg11.dtd">
<svg xmlns:xlink="http://www.w3.org/1999/xlink" width="864pt" height="360pt" viewBox="0 0 864 360" xmlns="http://www.w3.org/2000/svg" version="1.1">
 <metadata>
  <rdf:RDF xmlns:dc="http://purl.org/dc/elements/1.1/" xmlns:cc="http://creativecommons.org/ns#" xmlns:rdf="http://www.w3.org/1999/02/22-rdf-syntax-ns#">
   <cc:Work>
    <dc:type rdf:resource="http://purl.org/dc/dcmitype/StillImage"/>
    <dc:date>2023-08-02T08:53:42.806570</dc:date>
    <dc:format>image/svg+xml</dc:format>
    <dc:creator>
     <cc:Agent>
      <dc:title>Matplotlib v3.7.2, https://matplotlib.org/</dc:title>
     </cc:Agent>
    </dc:creator>
   </cc:Work>
  </rdf:RDF>
 </metadata>
 <defs>
  <style type="text/css">*{stroke-linejoin: round; stroke-linecap: butt}</style>
 </defs>
 <g id="figure_1">
  <g id="patch_1">
   <path d="M 0 360 
L 864 360 
L 864 0 
L 0 0 
L 0 360 
z
" style="fill: none; opacity: 0"/>
  </g>
  <g id="axes_1">
   <g id="patch_2">
    <path d="M 108 320.4 
L 777.6 320.4 
L 777.6 43.2 
L 108 43.2 
L 108 320.4 
z
" style="fill: none; opacity: 0"/>
   </g>
   <g id="matplotlib.axis_1">
    <g id="xtick_1">
     <g id="line2d_1">
      <path d="M 119.49086 320.4 
L 119.49086 43.2 
" clip-path="url(#p04cec29fc5)" style="fill: none; stroke-dasharray: 5.12,1.28,0.8,1.28; stroke-dashoffset: 0; stroke: #b0b0b0; stroke-width: 0.8"/>
     </g>
     <g id="line2d_2">
      <defs>
       <path id="mf2b87edd43" d="M 0 0 
L 0 3.5 
" style="stroke: #a9a9a9; stroke-width: 0.8"/>
      </defs>
      <g>
       <use xlink:href="#mf2b87edd43" x="119.49086" y="320.4" style="fill: #a9a9a9; stroke: #a9a9a9; stroke-width: 0.8"/>
      </g>
     </g>
     <g id="text_1">
      <!-- 2021-07 -->
      <g style="fill: #a9a9a9" transform="translate(98.599454 334.998438) scale(0.1 -0.1)">
       <defs>
        <path id="DejaVuSans-32" d="M 1228 531 
L 3431 531 
L 3431 0 
L 469 0 
L 469 531 
Q 828 903 1448 1529 
Q 2069 2156 2228 2338 
Q 2531 2678 2651 2914 
Q 2772 3150 2772 3378 
Q 2772 3750 2511 3984 
Q 2250 4219 1831 4219 
Q 1534 4219 1204 4116 
Q 875 4013 500 3803 
L 500 4441 
Q 881 4594 1212 4672 
Q 1544 4750 1819 4750 
Q 2544 4750 2975 4387 
Q 3406 4025 3406 3419 
Q 3406 3131 3298 2873 
Q 3191 2616 2906 2266 
Q 2828 2175 2409 1742 
Q 1991 1309 1228 531 
z
" transform="scale(0.015625)"/>
        <path id="DejaVuSans-30" d="M 2034 4250 
Q 1547 4250 1301 3770 
Q 1056 3291 1056 2328 
Q 1056 1369 1301 889 
Q 1547 409 2034 409 
Q 2525 409 2770 889 
Q 3016 1369 3016 2328 
Q 3016 3291 2770 3770 
Q 2525 4250 2034 4250 
z
M 2034 4750 
Q 2819 4750 3233 4129 
Q 3647 3509 3647 2328 
Q 3647 1150 3233 529 
Q 2819 -91 2034 -91 
Q 1250 -91 836 529 
Q 422 1150 422 2328 
Q 422 3509 836 4129 
Q 1250 4750 2034 4750 
z
" transform="scale(0.015625)"/>
        <path id="DejaVuSans-31" d="M 794 531 
L 1825 531 
L 1825 4091 
L 703 3866 
L 703 4441 
L 1819 4666 
L 2450 4666 
L 2450 531 
L 3481 531 
L 3481 0 
L 794 0 
L 794 531 
z
" transform="scale(0.015625)"/>
        <path id="DejaVuSans-2d" d="M 313 2009 
L 1997 2009 
L 1997 1497 
L 313 1497 
L 313 2009 
z
" transform="scale(0.015625)"/>
        <path id="DejaVuSans-37" d="M 525 4666 
L 3525 4666 
L 3525 4397 
L 1831 0 
L 1172 0 
L 2766 4134 
L 525 4134 
L 525 4666 
z
" transform="scale(0.015625)"/>
       </defs>
       <use xlink:href="#DejaVuSans-32"/>
       <use xlink:href="#DejaVuSans-30" x="63.623047"/>
       <use xlink:href="#DejaVuSans-32" x="127.246094"/>
       <use xlink:href="#DejaVuSans-31" x="190.869141"/>
       <use xlink:href="#DejaVuSans-2d" x="254.492188"/>
       <use xlink:href="#DejaVuSans-30" x="290.576172"/>
       <use xlink:href="#DejaVuSans-37" x="354.199219"/>
      </g>
     </g>
    </g>
    <g id="xtick_2">
     <g id="line2d_3">
      <path d="M 195.272875 320.4 
L 195.272875 43.2 
" clip-path="url(#p04cec29fc5)" style="fill: none; stroke-dasharray: 5.12,1.28,0.8,1.28; stroke-dashoffset: 0; stroke: #b0b0b0; stroke-width: 0.8"/>
     </g>
     <g id="line2d_4">
      <g>
       <use xlink:href="#mf2b87edd43" x="195.272875" y="320.4" style="fill: #a9a9a9; stroke: #a9a9a9; stroke-width: 0.8"/>
      </g>
     </g>
     <g id="text_2">
      <!-- 2021-10 -->
      <g style="fill: #a9a9a9" transform="translate(174.381469 334.998438) scale(0.1 -0.1)">
       <use xlink:href="#DejaVuSans-32"/>
       <use xlink:href="#DejaVuSans-30" x="63.623047"/>
       <use xlink:href="#DejaVuSans-32" x="127.246094"/>
       <use xlink:href="#DejaVuSans-31" x="190.869141"/>
       <use xlink:href="#DejaVuSans-2d" x="254.492188"/>
       <use xlink:href="#DejaVuSans-31" x="290.576172"/>
       <use xlink:href="#DejaVuSans-30" x="354.199219"/>
      </g>
     </g>
    </g>
    <g id="xtick_3">
     <g id="line2d_5">
      <path d="M 271.05489 320.4 
L 271.05489 43.2 
" clip-path="url(#p04cec29fc5)" style="fill: none; stroke-dasharray: 5.12,1.28,0.8,1.28; stroke-dashoffset: 0; stroke: #b0b0b0; stroke-width: 0.8"/>
     </g>
     <g id="line2d_6">
      <g>
       <use xlink:href="#mf2b87edd43" x="271.05489" y="320.4" style="fill: #a9a9a9; stroke: #a9a9a9; stroke-width: 0.8"/>
      </g>
     </g>
     <g id="text_3">
      <!-- 2022-01 -->
      <g style="fill: #a9a9a9" transform="translate(250.163484 334.998438) scale(0.1 -0.1)">
       <use xlink:href="#DejaVuSans-32"/>
       <use xlink:href="#DejaVuSans-30" x="63.623047"/>
       <use xlink:href="#DejaVuSans-32" x="127.246094"/>
       <use xlink:href="#DejaVuSans-32" x="190.869141"/>
       <use xlink:href="#DejaVuSans-2d" x="254.492188"/>
       <use xlink:href="#DejaVuSans-30" x="290.576172"/>
       <use xlink:href="#DejaVuSans-31" x="354.199219"/>
      </g>
     </g>
    </g>
    <g id="xtick_4">
     <g id="line2d_7">
      <path d="M 345.18947 320.4 
L 345.18947 43.2 
" clip-path="url(#p04cec29fc5)" style="fill: none; stroke-dasharray: 5.12,1.28,0.8,1.28; stroke-dashoffset: 0; stroke: #b0b0b0; stroke-width: 0.8"/>
     </g>
     <g id="line2d_8">
      <g>
       <use xlink:href="#mf2b87edd43" x="345.18947" y="320.4" style="fill: #a9a9a9; stroke: #a9a9a9; stroke-width: 0.8"/>
      </g>
     </g>
     <g id="text_4">
      <!-- 2022-04 -->
      <g style="fill: #a9a9a9" transform="translate(324.298064 334.998438) scale(0.1 -0.1)">
       <defs>
        <path id="DejaVuSans-34" d="M 2419 4116 
L 825 1625 
L 2419 1625 
L 2419 4116 
z
M 2253 4666 
L 3047 4666 
L 3047 1625 
L 3713 1625 
L 3713 1100 
L 3047 1100 
L 3047 0 
L 2419 0 
L 2419 1100 
L 313 1100 
L 313 1709 
L 2253 4666 
z
" transform="scale(0.015625)"/>
       </defs>
       <use xlink:href="#DejaVuSans-32"/>
       <use xlink:href="#DejaVuSans-30" x="63.623047"/>
       <use xlink:href="#DejaVuSans-32" x="127.246094"/>
       <use xlink:href="#DejaVuSans-32" x="190.869141"/>
       <use xlink:href="#DejaVuSans-2d" x="254.492188"/>
       <use xlink:href="#DejaVuSans-30" x="290.576172"/>
       <use xlink:href="#DejaVuSans-34" x="354.199219"/>
      </g>
     </g>
    </g>
    <g id="xtick_5">
     <g id="line2d_9">
      <path d="M 420.147767 320.4 
L 420.147767 43.2 
" clip-path="url(#p04cec29fc5)" style="fill: none; stroke-dasharray: 5.12,1.28,0.8,1.28; stroke-dashoffset: 0; stroke: #b0b0b0; stroke-width: 0.8"/>
     </g>
     <g id="line2d_10">
      <g>
       <use xlink:href="#mf2b87edd43" x="420.147767" y="320.4" style="fill: #a9a9a9; stroke: #a9a9a9; stroke-width: 0.8"/>
      </g>
     </g>
     <g id="text_5">
      <!-- 2022-07 -->
      <g style="fill: #a9a9a9" transform="translate(399.256361 334.998438) scale(0.1 -0.1)">
       <use xlink:href="#DejaVuSans-32"/>
       <use xlink:href="#DejaVuSans-30" x="63.623047"/>
       <use xlink:href="#DejaVuSans-32" x="127.246094"/>
       <use xlink:href="#DejaVuSans-32" x="190.869141"/>
       <use xlink:href="#DejaVuSans-2d" x="254.492188"/>
       <use xlink:href="#DejaVuSans-30" x="290.576172"/>
       <use xlink:href="#DejaVuSans-37" x="354.199219"/>
      </g>
     </g>
    </g>
    <g id="xtick_6">
     <g id="line2d_11">
      <path d="M 495.929782 320.4 
L 495.929782 43.2 
" clip-path="url(#p04cec29fc5)" style="fill: none; stroke-dasharray: 5.12,1.28,0.8,1.28; stroke-dashoffset: 0; stroke: #b0b0b0; stroke-width: 0.8"/>
     </g>
     <g id="line2d_12">
      <g>
       <use xlink:href="#mf2b87edd43" x="495.929782" y="320.4" style="fill: #a9a9a9; stroke: #a9a9a9; stroke-width: 0.8"/>
      </g>
     </g>
     <g id="text_6">
      <!-- 2022-10 -->
      <g style="fill: #a9a9a9" transform="translate(475.038376 334.998438) scale(0.1 -0.1)">
       <use xlink:href="#DejaVuSans-32"/>
       <use xlink:href="#DejaVuSans-30" x="63.623047"/>
       <use xlink:href="#DejaVuSans-32" x="127.246094"/>
       <use xlink:href="#DejaVuSans-32" x="190.869141"/>
       <use xlink:href="#DejaVuSans-2d" x="254.492188"/>
       <use xlink:href="#DejaVuSans-31" x="290.576172"/>
       <use xlink:href="#DejaVuSans-30" x="354.199219"/>
      </g>
     </g>
    </g>
    <g id="xtick_7">
     <g id="line2d_13">
      <path d="M 571.711797 320.4 
L 571.711797 43.2 
" clip-path="url(#p04cec29fc5)" style="fill: none; stroke-dasharray: 5.12,1.28,0.8,1.28; stroke-dashoffset: 0; stroke: #b0b0b0; stroke-width: 0.8"/>
     </g>
     <g id="line2d_14">
      <g>
       <use xlink:href="#mf2b87edd43" x="571.711797" y="320.4" style="fill: #a9a9a9; stroke: #a9a9a9; stroke-width: 0.8"/>
      </g>
     </g>
     <g id="text_7">
      <!-- 2023-01 -->
      <g style="fill: #a9a9a9" transform="translate(550.820391 334.998438) scale(0.1 -0.1)">
       <defs>
        <path id="DejaVuSans-33" d="M 2597 2516 
Q 3050 2419 3304 2112 
Q 3559 1806 3559 1356 
Q 3559 666 3084 287 
Q 2609 -91 1734 -91 
Q 1441 -91 1130 -33 
Q 819 25 488 141 
L 488 750 
Q 750 597 1062 519 
Q 1375 441 1716 441 
Q 2309 441 2620 675 
Q 2931 909 2931 1356 
Q 2931 1769 2642 2001 
Q 2353 2234 1838 2234 
L 1294 2234 
L 1294 2753 
L 1863 2753 
Q 2328 2753 2575 2939 
Q 2822 3125 2822 3475 
Q 2822 3834 2567 4026 
Q 2313 4219 1838 4219 
Q 1578 4219 1281 4162 
Q 984 4106 628 3988 
L 628 4550 
Q 988 4650 1302 4700 
Q 1616 4750 1894 4750 
Q 2613 4750 3031 4423 
Q 3450 4097 3450 3541 
Q 3450 3153 3228 2886 
Q 3006 2619 2597 2516 
z
" transform="scale(0.015625)"/>
       </defs>
       <use xlink:href="#DejaVuSans-32"/>
       <use xlink:href="#DejaVuSans-30" x="63.623047"/>
       <use xlink:href="#DejaVuSans-32" x="127.246094"/>
       <use xlink:href="#DejaVuSans-33" x="190.869141"/>
       <use xlink:href="#DejaVuSans-2d" x="254.492188"/>
       <use xlink:href="#DejaVuSans-30" x="290.576172"/>
       <use xlink:href="#DejaVuSans-31" x="354.199219"/>
      </g>
     </g>
    </g>
    <g id="xtick_8">
     <g id="line2d_15">
      <path d="M 645.846377 320.4 
L 645.846377 43.2 
" clip-path="url(#p04cec29fc5)" style="fill: none; stroke-dasharray: 5.12,1.28,0.8,1.28; stroke-dashoffset: 0; stroke: #b0b0b0; stroke-width: 0.8"/>
     </g>
     <g id="line2d_16">
      <g>
       <use xlink:href="#mf2b87edd43" x="645.846377" y="320.4" style="fill: #a9a9a9; stroke: #a9a9a9; stroke-width: 0.8"/>
      </g>
     </g>
     <g id="text_8">
      <!-- 2023-04 -->
      <g style="fill: #a9a9a9" transform="translate(624.954971 334.998438) scale(0.1 -0.1)">
       <use xlink:href="#DejaVuSans-32"/>
       <use xlink:href="#DejaVuSans-30" x="63.623047"/>
       <use xlink:href="#DejaVuSans-32" x="127.246094"/>
       <use xlink:href="#DejaVuSans-33" x="190.869141"/>
       <use xlink:href="#DejaVuSans-2d" x="254.492188"/>
       <use xlink:href="#DejaVuSans-30" x="290.576172"/>
       <use xlink:href="#DejaVuSans-34" x="354.199219"/>
      </g>
     </g>
    </g>
    <g id="xtick_9">
     <g id="line2d_17">
      <path d="M 720.804675 320.4 
L 720.804675 43.2 
" clip-path="url(#p04cec29fc5)" style="fill: none; stroke-dasharray: 5.12,1.28,0.8,1.28; stroke-dashoffset: 0; stroke: #b0b0b0; stroke-width: 0.8"/>
     </g>
     <g id="line2d_18">
      <g>
       <use xlink:href="#mf2b87edd43" x="720.804675" y="320.4" style="fill: #a9a9a9; stroke: #a9a9a9; stroke-width: 0.8"/>
      </g>
     </g>
     <g id="text_9">
      <!-- 2023-07 -->
      <g style="fill: #a9a9a9" transform="translate(699.913268 334.998438) scale(0.1 -0.1)">
       <use xlink:href="#DejaVuSans-32"/>
       <use xlink:href="#DejaVuSans-30" x="63.623047"/>
       <use xlink:href="#DejaVuSans-32" x="127.246094"/>
       <use xlink:href="#DejaVuSans-33" x="190.869141"/>
       <use xlink:href="#DejaVuSans-2d" x="254.492188"/>
       <use xlink:href="#DejaVuSans-30" x="290.576172"/>
       <use xlink:href="#DejaVuSans-37" x="354.199219"/>
      </g>
     </g>
    </g>
   </g>
   <g id="matplotlib.axis_2">
    <g id="ytick_1">
     <g id="line2d_19">
      <path d="M 108 307.854008 
L 777.6 307.854008 
" clip-path="url(#p04cec29fc5)" style="fill: none; stroke-dasharray: 5.12,1.28,0.8,1.28; stroke-dashoffset: 0; stroke: #b0b0b0; stroke-width: 0.8"/>
     </g>
     <g id="line2d_20">
      <defs>
       <path id="mc66f4e8547" d="M 0 0 
L -3.5 0 
" style="stroke: #a9a9a9; stroke-width: 0.8"/>
      </defs>
      <g>
       <use xlink:href="#mc66f4e8547" x="108" y="307.854008" style="fill: #a9a9a9; stroke: #a9a9a9; stroke-width: 0.8"/>
      </g>
     </g>
     <g id="text_10">
      <!-- 0 -->
      <g style="fill: #a9a9a9" transform="translate(94.6375 311.653226) scale(0.1 -0.1)">
       <use xlink:href="#DejaVuSans-30"/>
      </g>
     </g>
    </g>
    <g id="ytick_2">
     <g id="line2d_21">
      <path d="M 108 275.449378 
L 777.6 275.449378 
" clip-path="url(#p04cec29fc5)" style="fill: none; stroke-dasharray: 5.12,1.28,0.8,1.28; stroke-dashoffset: 0; stroke: #b0b0b0; stroke-width: 0.8"/>
     </g>
     <g id="line2d_22">
      <g>
       <use xlink:href="#mc66f4e8547" x="108" y="275.449378" style="fill: #a9a9a9; stroke: #a9a9a9; stroke-width: 0.8"/>
      </g>
     </g>
     <g id="text_11">
      <!-- 600 -->
      <g style="fill: #a9a9a9" transform="translate(81.9125 279.248597) scale(0.1 -0.1)">
       <defs>
        <path id="DejaVuSans-36" d="M 2113 2584 
Q 1688 2584 1439 2293 
Q 1191 2003 1191 1497 
Q 1191 994 1439 701 
Q 1688 409 2113 409 
Q 2538 409 2786 701 
Q 3034 994 3034 1497 
Q 3034 2003 2786 2293 
Q 2538 2584 2113 2584 
z
M 3366 4563 
L 3366 3988 
Q 3128 4100 2886 4159 
Q 2644 4219 2406 4219 
Q 1781 4219 1451 3797 
Q 1122 3375 1075 2522 
Q 1259 2794 1537 2939 
Q 1816 3084 2150 3084 
Q 2853 3084 3261 2657 
Q 3669 2231 3669 1497 
Q 3669 778 3244 343 
Q 2819 -91 2113 -91 
Q 1303 -91 875 529 
Q 447 1150 447 2328 
Q 447 3434 972 4092 
Q 1497 4750 2381 4750 
Q 2619 4750 2861 4703 
Q 3103 4656 3366 4563 
z
" transform="scale(0.015625)"/>
       </defs>
       <use xlink:href="#DejaVuSans-36"/>
       <use xlink:href="#DejaVuSans-30" x="63.623047"/>
       <use xlink:href="#DejaVuSans-30" x="127.246094"/>
      </g>
     </g>
    </g>
    <g id="ytick_3">
     <g id="line2d_23">
      <path d="M 108 243.044749 
L 777.6 243.044749 
" clip-path="url(#p04cec29fc5)" style="fill: none; stroke-dasharray: 5.12,1.28,0.8,1.28; stroke-dashoffset: 0; stroke: #b0b0b0; stroke-width: 0.8"/>
     </g>
     <g id="line2d_24">
      <g>
       <use xlink:href="#mc66f4e8547" x="108" y="243.044749" style="fill: #a9a9a9; stroke: #a9a9a9; stroke-width: 0.8"/>
      </g>
     </g>
     <g id="text_12">
      <!-- 1200 -->
      <g style="fill: #a9a9a9" transform="translate(75.55 246.843968) scale(0.1 -0.1)">
       <use xlink:href="#DejaVuSans-31"/>
       <use xlink:href="#DejaVuSans-32" x="63.623047"/>
       <use xlink:href="#DejaVuSans-30" x="127.246094"/>
       <use xlink:href="#DejaVuSans-30" x="190.869141"/>
      </g>
     </g>
    </g>
    <g id="ytick_4">
     <g id="line2d_25">
      <path d="M 108 210.64012 
L 777.6 210.64012 
" clip-path="url(#p04cec29fc5)" style="fill: none; stroke-dasharray: 5.12,1.28,0.8,1.28; stroke-dashoffset: 0; stroke: #b0b0b0; stroke-width: 0.8"/>
     </g>
     <g id="line2d_26">
      <g>
       <use xlink:href="#mc66f4e8547" x="108" y="210.64012" style="fill: #a9a9a9; stroke: #a9a9a9; stroke-width: 0.8"/>
      </g>
     </g>
     <g id="text_13">
      <!-- 1800 -->
      <g style="fill: #a9a9a9" transform="translate(75.55 214.439339) scale(0.1 -0.1)">
       <defs>
        <path id="DejaVuSans-38" d="M 2034 2216 
Q 1584 2216 1326 1975 
Q 1069 1734 1069 1313 
Q 1069 891 1326 650 
Q 1584 409 2034 409 
Q 2484 409 2743 651 
Q 3003 894 3003 1313 
Q 3003 1734 2745 1975 
Q 2488 2216 2034 2216 
z
M 1403 2484 
Q 997 2584 770 2862 
Q 544 3141 544 3541 
Q 544 4100 942 4425 
Q 1341 4750 2034 4750 
Q 2731 4750 3128 4425 
Q 3525 4100 3525 3541 
Q 3525 3141 3298 2862 
Q 3072 2584 2669 2484 
Q 3125 2378 3379 2068 
Q 3634 1759 3634 1313 
Q 3634 634 3220 271 
Q 2806 -91 2034 -91 
Q 1263 -91 848 271 
Q 434 634 434 1313 
Q 434 1759 690 2068 
Q 947 2378 1403 2484 
z
M 1172 3481 
Q 1172 3119 1398 2916 
Q 1625 2713 2034 2713 
Q 2441 2713 2670 2916 
Q 2900 3119 2900 3481 
Q 2900 3844 2670 4047 
Q 2441 4250 2034 4250 
Q 1625 4250 1398 4047 
Q 1172 3844 1172 3481 
z
" transform="scale(0.015625)"/>
       </defs>
       <use xlink:href="#DejaVuSans-31"/>
       <use xlink:href="#DejaVuSans-38" x="63.623047"/>
       <use xlink:href="#DejaVuSans-30" x="127.246094"/>
       <use xlink:href="#DejaVuSans-30" x="190.869141"/>
      </g>
     </g>
    </g>
    <g id="ytick_5">
     <g id="line2d_27">
      <path d="M 108 178.235491 
L 777.6 178.235491 
" clip-path="url(#p04cec29fc5)" style="fill: none; stroke-dasharray: 5.12,1.28,0.8,1.28; stroke-dashoffset: 0; stroke: #b0b0b0; stroke-width: 0.8"/>
     </g>
     <g id="line2d_28">
      <g>
       <use xlink:href="#mc66f4e8547" x="108" y="178.235491" style="fill: #a9a9a9; stroke: #a9a9a9; stroke-width: 0.8"/>
      </g>
     </g>
     <g id="text_14">
      <!-- 2400 -->
      <g style="fill: #a9a9a9" transform="translate(75.55 182.03471) scale(0.1 -0.1)">
       <use xlink:href="#DejaVuSans-32"/>
       <use xlink:href="#DejaVuSans-34" x="63.623047"/>
       <use xlink:href="#DejaVuSans-30" x="127.246094"/>
       <use xlink:href="#DejaVuSans-30" x="190.869141"/>
      </g>
     </g>
    </g>
    <g id="ytick_6">
     <g id="line2d_29">
      <path d="M 108 145.830862 
L 777.6 145.830862 
" clip-path="url(#p04cec29fc5)" style="fill: none; stroke-dasharray: 5.12,1.28,0.8,1.28; stroke-dashoffset: 0; stroke: #b0b0b0; stroke-width: 0.8"/>
     </g>
     <g id="line2d_30">
      <g>
       <use xlink:href="#mc66f4e8547" x="108" y="145.830862" style="fill: #a9a9a9; stroke: #a9a9a9; stroke-width: 0.8"/>
      </g>
     </g>
     <g id="text_15">
      <!-- 3000 -->
      <g style="fill: #a9a9a9" transform="translate(75.55 149.63008) scale(0.1 -0.1)">
       <use xlink:href="#DejaVuSans-33"/>
       <use xlink:href="#DejaVuSans-30" x="63.623047"/>
       <use xlink:href="#DejaVuSans-30" x="127.246094"/>
       <use xlink:href="#DejaVuSans-30" x="190.869141"/>
      </g>
     </g>
    </g>
    <g id="ytick_7">
     <g id="line2d_31">
      <path d="M 108 113.426232 
L 777.6 113.426232 
" clip-path="url(#p04cec29fc5)" style="fill: none; stroke-dasharray: 5.12,1.28,0.8,1.28; stroke-dashoffset: 0; stroke: #b0b0b0; stroke-width: 0.8"/>
     </g>
     <g id="line2d_32">
      <g>
       <use xlink:href="#mc66f4e8547" x="108" y="113.426232" style="fill: #a9a9a9; stroke: #a9a9a9; stroke-width: 0.8"/>
      </g>
     </g>
     <g id="text_16">
      <!-- 3600 -->
      <g style="fill: #a9a9a9" transform="translate(75.55 117.225451) scale(0.1 -0.1)">
       <use xlink:href="#DejaVuSans-33"/>
       <use xlink:href="#DejaVuSans-36" x="63.623047"/>
       <use xlink:href="#DejaVuSans-30" x="127.246094"/>
       <use xlink:href="#DejaVuSans-30" x="190.869141"/>
      </g>
     </g>
    </g>
    <g id="ytick_8">
     <g id="line2d_33">
      <path d="M 108 81.021603 
L 777.6 81.021603 
" clip-path="url(#p04cec29fc5)" style="fill: none; stroke-dasharray: 5.12,1.28,0.8,1.28; stroke-dashoffset: 0; stroke: #b0b0b0; stroke-width: 0.8"/>
     </g>
     <g id="line2d_34">
      <g>
       <use xlink:href="#mc66f4e8547" x="108" y="81.021603" style="fill: #a9a9a9; stroke: #a9a9a9; stroke-width: 0.8"/>
      </g>
     </g>
     <g id="text_17">
      <!-- 4200 -->
      <g style="fill: #a9a9a9" transform="translate(75.55 84.820822) scale(0.1 -0.1)">
       <use xlink:href="#DejaVuSans-34"/>
       <use xlink:href="#DejaVuSans-32" x="63.623047"/>
       <use xlink:href="#DejaVuSans-30" x="127.246094"/>
       <use xlink:href="#DejaVuSans-30" x="190.869141"/>
      </g>
     </g>
    </g>
    <g id="ytick_9">
     <g id="line2d_35">
      <path d="M 108 48.616974 
L 777.6 48.616974 
" clip-path="url(#p04cec29fc5)" style="fill: none; stroke-dasharray: 5.12,1.28,0.8,1.28; stroke-dashoffset: 0; stroke: #b0b0b0; stroke-width: 0.8"/>
     </g>
     <g id="line2d_36">
      <g>
       <use xlink:href="#mc66f4e8547" x="108" y="48.616974" style="fill: #a9a9a9; stroke: #a9a9a9; stroke-width: 0.8"/>
      </g>
     </g>
     <g id="text_18">
      <!-- 4800 -->
      <g style="fill: #a9a9a9" transform="translate(75.55 52.416193) scale(0.1 -0.1)">
       <use xlink:href="#DejaVuSans-34"/>
       <use xlink:href="#DejaVuSans-38" x="63.623047"/>
       <use xlink:href="#DejaVuSans-30" x="127.246094"/>
       <use xlink:href="#DejaVuSans-30" x="190.869141"/>
      </g>
     </g>
    </g>
   </g>
   <g id="line2d_37">
    <path d="M 138.436364 307.691985 
L 143.378669 307.313931 
L 144.202387 306.989884 
L 146.673539 306.719846 
L 152.439562 305.693699 
L 156.55815 305.315645 
L 157.381867 304.937591 
L 158.205585 304.72156 
L 159.029302 303.749421 
L 159.85302 303.209344 
L 160.676738 301.481097 
L 161.500455 301.373082 
L 162.324173 300.778997 
L 163.971608 300.022889 
L 165.619043 298.834719 
L 166.44276 298.078611 
L 168.090196 297.322503 
L 168.913913 296.998457 
L 169.737631 296.404372 
L 173.032501 295.054179 
L 173.856218 293.812002 
L 174.679936 293.163909 
L 176.327371 292.299786 
L 184.564547 291.165624 
L 185.388264 290.78757 
L 191.154287 290.355508 
L 192.801722 289.923446 
L 194.449157 289.5994 
L 201.038898 288.735276 
L 201.862615 288.303215 
L 202.686333 288.195199 
L 203.51005 287.871153 
L 205.157486 287.601114 
L 205.981203 287.547107 
L 206.804921 287.277068 
L 210.099791 286.790999 
L 211.747226 286.358937 
L 214.218379 286.142906 
L 215.865814 285.980883 
L 216.689531 285.764852 
L 217.513249 285.710844 
L 219.984402 285.008744 
L 224.926707 284.306644 
L 225.750424 284.036605 
L 226.574142 282.956451 
L 229.045295 282.092327 
L 231.516447 281.444235 
L 232.340165 281.066181 
L 233.163882 281.012173 
L 237.28247 279.932019 
L 238.929905 279.824003 
L 239.753623 279.715988 
L 242.224775 279.013888 
L 245.519646 278.25778 
L 246.343363 277.933733 
L 247.167081 277.825718 
L 247.990798 277.447664 
L 256.227974 276.259494 
L 260.346562 275.125332 
L 261.170279 274.639263 
L 264.465149 273.775139 
L 266.112585 272.857008 
L 266.936302 272.316931 
L 267.76002 272.208916 
L 268.583737 271.938877 
L 271.05489 271.506815 
L 271.878607 271.128761 
L 273.526043 270.858723 
L 275.173478 270.102615 
L 279.292065 269.130476 
L 281.763218 268.536391 
L 282.586936 268.212345 
L 283.410653 268.050321 
L 284.234371 267.726275 
L 285.058088 267.61826 
L 285.881806 267.240206 
L 286.705523 267.024175 
L 288.352959 266.916159 
L 290.000394 266.376082 
L 291.647829 266.268067 
L 292.471546 265.890013 
L 295.766417 265.349936 
L 299.061287 265.079897 
L 299.885004 264.917874 
L 301.532439 264.161766 
L 310.593333 260.543249 
L 311.41705 260.111187 
L 312.240768 259.247064 
L 313.064485 257.950879 
L 313.888203 256.924732 
L 314.71192 256.708701 
L 315.535638 256.708701 
L 317.183073 255.520532 
L 318.006791 255.304501 
L 318.830508 254.872439 
L 319.654226 254.710416 
L 320.477943 254.008315 
L 321.301661 253.792285 
L 323.772813 252.658123 
L 324.596531 251.685984 
L 325.420248 250.497814 
L 326.243966 250.011745 
L 327.067684 248.715559 
L 327.891401 247.905444 
L 328.715119 247.52739 
L 329.538836 247.311359 
L 331.186271 246.33922 
L 332.009989 245.961166 
L 335.304859 243.584826 
L 336.128577 242.450664 
L 336.952294 240.614402 
L 337.776012 239.426232 
L 338.599729 238.832147 
L 339.423447 238.508101 
L 342.718317 235.807715 
L 344.365752 234.619546 
L 345.18947 233.917445 
L 346.013187 232.783283 
L 346.836905 232.027175 
L 349.308058 230.352936 
L 350.955493 229.272782 
L 351.77921 228.570682 
L 352.602928 228.354651 
L 355.07408 227.112473 
L 356.721516 226.194342 
L 357.545233 225.870296 
L 359.192668 224.412087 
L 360.016386 223.439949 
L 361.663821 222.359794 
L 362.487538 222.143763 
L 363.311256 221.711702 
L 364.134974 221.117617 
L 365.782409 220.253493 
L 366.606126 220.145478 
L 368.253561 219.281354 
L 369.077279 218.849293 
L 369.900996 218.039177 
L 370.724714 217.553108 
L 371.548432 217.283069 
L 372.372149 216.742992 
L 375.667019 215.12276 
L 376.490737 214.42066 
L 379.785607 213.340506 
L 380.609325 212.800429 
L 381.433042 212.638405 
L 383.080477 212.098328 
L 385.55163 211.180197 
L 388.022783 210.316074 
L 389.670218 210.046035 
L 391.317653 208.695842 
L 392.965088 207.939734 
L 395.436241 206.589541 
L 397.083676 206.15748 
L 397.907393 205.67141 
L 398.731111 205.455379 
L 401.202264 203.943163 
L 403.673416 203.403086 
L 406.144569 202.538963 
L 407.792004 201.620832 
L 408.615721 201.512816 
L 409.439439 201.242778 
L 411.086874 200.918731 
L 413.558027 199.190484 
L 416.029179 198.650407 
L 416.852897 198.380369 
L 417.676615 197.786284 
L 422.61892 196.274068 
L 423.442637 196.22006 
L 429.20866 194.275782 
L 430.032378 193.897728 
L 432.503531 193.357651 
L 434.150966 192.979597 
L 434.974683 192.601543 
L 435.798401 192.43952 
L 438.269553 191.359366 
L 440.740706 190.117188 
L 441.564424 189.577111 
L 442.388141 189.36108 
L 444.859294 188.118903 
L 446.506729 187.740849 
L 448.154164 186.930733 
L 449.801599 186.498671 
L 450.625317 186.390656 
L 451.449034 185.850579 
L 452.272752 185.472525 
L 453.096469 185.310502 
L 454.743905 184.662409 
L 455.567622 184.500386 
L 456.39134 184.068324 
L 459.68621 183.582255 
L 461.333645 182.826147 
L 462.157363 182.178054 
L 462.98108 180.773853 
L 464.628515 180.449807 
L 465.452233 180.287784 
L 468.747103 178.667553 
L 469.570821 178.505529 
L 474.513126 176.183198 
L 475.336843 175.64312 
L 476.160561 175.319074 
L 478.631714 174.833005 
L 480.279149 174.076897 
L 481.102866 173.75285 
L 481.926584 173.644835 
L 485.221454 172.240634 
L 486.868889 171.16048 
L 487.692607 170.782426 
L 488.516324 170.674411 
L 489.340042 170.404372 
L 490.163759 170.350364 
L 493.45863 169.324218 
L 494.282347 169.27021 
L 495.106065 168.676125 
L 496.7535 168.136048 
L 499.224652 167.37994 
L 500.04837 166.893871 
L 500.872088 166.67784 
L 501.695805 166.137763 
L 502.519523 165.813716 
L 503.34324 165.327647 
L 504.990675 164.733562 
L 505.814393 164.517531 
L 506.63811 164.139477 
L 507.461828 163.923446 
L 508.285546 163.545392 
L 509.109263 162.951307 
L 509.932981 162.087184 
L 510.756698 161.547107 
L 511.580416 161.385084 
L 513.227851 160.196914 
L 514.051568 160.034891 
L 514.875286 158.846721 
L 515.699004 158.522675 
L 516.522721 157.92859 
L 517.346439 157.820574 
L 518.170156 157.280497 
L 518.993874 156.902443 
L 519.817591 156.74042 
L 520.641309 156.416374 
L 521.465026 155.768281 
L 522.288744 155.498243 
L 524.759897 153.932019 
L 528.054767 152.365795 
L 528.878484 152.25778 
L 530.52592 151.555679 
L 531.349637 151.06961 
L 532.173355 149.773425 
L 532.997072 148.963309 
L 533.82079 148.531247 
L 534.644507 148.369224 
L 536.291942 147.397085 
L 537.11566 147.235062 
L 538.763095 146.478954 
L 541.234248 145.452808 
L 542.881683 144.372653 
L 544.529118 142.698414 
L 546.176553 141.726275 
L 547.000271 141.240206 
L 547.823988 140.43009 
L 550.295141 138.485812 
L 551.118858 138.053751 
L 551.942576 137.189627 
L 552.766294 136.595542 
L 554.413729 136.055465 
L 555.237446 135.299357 
L 556.884881 134.489241 
L 557.708599 134.27321 
L 558.532316 133.679126 
L 559.356034 133.463095 
L 561.827187 132.220917 
L 562.650904 131.626832 
L 563.474622 131.194771 
L 570.88808 128.710416 
L 571.711797 128.278354 
L 572.535515 127.576254 
L 575.830385 126.388084 
L 576.654103 126.172053 
L 577.47782 125.577968 
L 579.948973 124.497814 
L 580.77269 123.903729 
L 581.596408 123.471667 
L 583.243843 120.33922 
L 584.891278 118.502958 
L 585.714996 117.96288 
L 588.186148 116.936734 
L 589.009866 116.666695 
L 589.833583 116.55868 
L 590.657301 116.126618 
L 593.128454 115.37051 
L 595.599606 114.398371 
L 597.247041 113.264209 
L 599.718194 112.184055 
L 603.836782 109.915731 
L 604.660499 109.105615 
L 606.307935 108.241492 
L 607.131652 107.80943 
L 607.95537 107.539391 
L 608.779087 106.945306 
L 610.426522 106.189198 
L 611.25024 105.703129 
L 612.073957 105.379083 
L 612.897675 104.893013 
L 613.721393 104.676982 
L 614.54511 104.082898 
L 615.368828 103.758851 
L 616.192545 103.596828 
L 617.83998 102.948736 
L 620.311133 102.084612 
L 621.134851 101.490527 
L 622.782286 101.058465 
L 624.429721 100.464381 
L 625.253438 99.816288 
L 626.900873 99.330219 
L 627.724591 98.952165 
L 628.548309 98.736134 
L 630.195744 97.655979 
L 631.843179 96.953879 
L 633.490614 95.765709 
L 635.138049 95.225632 
L 635.961767 94.523532 
L 636.785484 94.361509 
L 637.609202 93.659408 
L 639.256637 92.741277 
L 640.904072 92.093185 
L 641.727789 91.283069 
L 644.198942 90.526961 
L 645.02266 90.040892 
L 645.846377 89.932876 
L 648.31753 88.744706 
L 651.6124 87.772568 
L 653.259835 87.556537 
L 654.083553 87.23249 
L 654.90727 87.070467 
L 656.554705 86.422375 
L 657.378423 86.368367 
L 659.849576 85.558251 
L 661.497011 84.586112 
L 663.144446 83.505958 
L 668.086751 81.183626 
L 670.557904 79.617402 
L 672.205339 79.239348 
L 674.676492 77.889156 
L 677.147644 77.133048 
L 677.971362 76.809001 
L 679.618797 76.430947 
L 683.737385 75.134762 
L 685.38482 74.810716 
L 687.032255 74.432662 
L 687.855972 74.054608 
L 688.67969 73.946592 
L 690.327125 73.2985 
L 691.150843 73.190484 
L 691.97456 72.81243 
L 693.621995 72.488384 
L 694.445713 72.11033 
L 696.916866 71.570253 
L 698.564301 71.246207 
L 705.977759 69.787998 
L 706.801476 69.463952 
L 707.625194 69.409944 
L 710.096346 68.707844 
L 710.920064 68.275782 
L 712.567499 67.735705 
L 713.391217 67.681697 
L 717.509804 66.493528 
L 723.275827 64.603258 
L 724.099545 64.603258 
L 725.74698 64.06318 
L 726.570698 63.253065 
L 727.394415 62.875011 
L 729.04185 62.388941 
L 736.455308 59.472525 
L 737.279026 59.364509 
L 738.102743 58.932447 
L 739.750178 58.446378 
L 740.573896 57.960309 
L 741.397613 57.744278 
L 742.221331 57.096185 
L 744.692484 56.664123 
L 746.339919 55.8 
L 747.163636 55.8 
L 747.163636 55.8 
" clip-path="url(#p04cec29fc5)" style="fill: none; stroke: #1f77b4; stroke-width: 1.5; stroke-linecap: square"/>
   </g>
   <g id="line2d_38">
    <path d="M 139.260081 307.8 
L 141.731234 307.691985 
L 143.378669 307.583969 
L 149.144692 307.475954 
L 153.26328 307.313931 
L 156.55815 307.313931 
L 157.381867 307.0979 
L 159.85302 307.043892 
L 164.795325 306.503815 
L 177.151089 305.801715 
L 183.740829 305.693699 
L 187.859417 305.531676 
L 197.744028 305.423661 
L 201.862615 305.261637 
L 206.804921 305.153622 
L 210.099791 305.045607 
L 217.513249 304.937591 
L 219.984402 304.883583 
L 222.455554 304.829576 
L 224.926707 304.559537 
L 229.869012 304.505529 
L 231.516447 304.397514 
L 237.28247 304.289498 
L 246.343363 303.803429 
L 252.109386 303.695414 
L 253.756821 303.587398 
L 256.227974 303.479383 
L 261.170279 303.263352 
L 264.465149 303.209344 
L 266.936302 302.993313 
L 280.939501 302.183198 
L 283.410653 302.075182 
L 289.176676 301.805144 
L 291.647829 301.697128 
L 299.885004 301.265066 
L 308.945897 301.157051 
L 312.240768 300.833005 
L 313.888203 300.724989 
L 322.949096 300.076897 
L 323.772813 299.860866 
L 326.243966 299.644835 
L 327.891401 299.266781 
L 330.362554 299.212773 
L 332.833706 299.104758 
L 339.423447 298.294642 
L 343.542035 298.186627 
L 354.250363 297.376511 
L 359.192668 296.836434 
L 361.663821 296.782426 
L 363.311256 296.674411 
L 366.606126 296.566395 
L 368.253561 296.45838 
L 372.372149 296.080326 
L 373.195867 295.864295 
L 378.138172 295.648264 
L 382.25676 295.540249 
L 393.788806 294.892156 
L 395.436241 294.784141 
L 406.144569 294.190056 
L 411.910592 294.08204 
L 412.734309 293.920017 
L 419.32405 293.812002 
L 425.090073 293.541963 
L 434.150966 293.433948 
L 439.916989 293.163909 
L 446.506729 293.055894 
L 453.920187 292.67784 
L 458.862492 292.569824 
L 474.513126 291.651693 
L 481.102866 291.543678 
L 485.221454 291.165624 
L 486.868889 291.003601 
L 490.987477 290.949593 
L 494.282347 290.625547 
L 502.519523 290.193485 
L 507.461828 290.085469 
L 509.932981 290.031462 
L 512.404133 289.977454 
L 514.875286 289.707415 
L 521.465026 289.5994 
L 523.112462 289.329361 
L 524.759897 289.221346 
L 528.054767 289.11333 
L 529.702202 289.11333 
L 531.349637 288.843292 
L 539.586813 288.735276 
L 541.234248 288.573253 
L 544.529118 288.465238 
L 545.352836 288.249207 
L 547.000271 288.195199 
L 547.823988 288.033176 
L 550.295141 287.925161 
L 567.593209 286.899014 
L 573.359232 286.790999 
L 575.830385 286.736991 
L 584.067561 286.628976 
L 585.714996 286.412945 
L 592.304736 286.304929 
L 595.599606 286.196914 
L 601.365629 286.088898 
L 603.836782 285.872868 
L 611.25024 285.494814 
L 612.897675 285.386798 
L 616.192545 285.278783 
L 620.311133 285.170767 
L 624.429721 285.008744 
L 630.195744 284.900729 
L 633.490614 284.792713 
L 642.551507 284.684698 
L 647.493812 284.468667 
L 652.436118 284.360652 
L 654.90727 284.090613 
L 659.849576 284.036605 
L 660.673293 283.874582 
L 662.320728 283.766567 
L 665.615598 283.658551 
L 675.500209 283.550536 
L 679.618797 283.388513 
L 693.621995 283.334505 
L 695.26943 283.226489 
L 697.740583 283.172482 
L 708.448911 283.064466 
L 710.096346 282.956451 
L 719.15724 282.848435 
L 722.45211 282.74042 
L 732.33672 282.686412 
L 733.984155 282.578397 
L 747.163636 282.524389 
L 747.163636 282.524389 
" clip-path="url(#p04cec29fc5)" style="fill: none; stroke: #ff7f0e; stroke-width: 1.5; stroke-linecap: square"/>
   </g>
   <g id="patch_3">
    <path d="M 108 320.4 
L 108 43.2 
" style="fill: none; stroke: #a9a9a9; stroke-width: 0.8; stroke-linejoin: miter; stroke-linecap: square"/>
   </g>
   <g id="patch_4">
    <path d="M 777.6 320.4 
L 777.6 43.2 
" style="fill: none"/>
   </g>
   <g id="patch_5">
    <path d="M 108 320.4 
L 777.6 320.4 
" style="fill: none; stroke: #a9a9a9; stroke-width: 0.8; stroke-linejoin: miter; stroke-linecap: square"/>
   </g>
   <g id="patch_6">
    <path d="M 108 43.2 
L 777.6 43.2 
" style="fill: none"/>
   </g>
   <g id="text_19">
    <!-- get_subscribe history -->
    <g style="fill: #a9a9a9" transform="translate(378.6075 37.2) scale(0.12 -0.12)">
     <defs>
      <path id="DejaVuSans-67" d="M 2906 1791 
Q 2906 2416 2648 2759 
Q 2391 3103 1925 3103 
Q 1463 3103 1205 2759 
Q 947 2416 947 1791 
Q 947 1169 1205 825 
Q 1463 481 1925 481 
Q 2391 481 2648 825 
Q 2906 1169 2906 1791 
z
M 3481 434 
Q 3481 -459 3084 -895 
Q 2688 -1331 1869 -1331 
Q 1566 -1331 1297 -1286 
Q 1028 -1241 775 -1147 
L 775 -588 
Q 1028 -725 1275 -790 
Q 1522 -856 1778 -856 
Q 2344 -856 2625 -561 
Q 2906 -266 2906 331 
L 2906 616 
Q 2728 306 2450 153 
Q 2172 0 1784 0 
Q 1141 0 747 490 
Q 353 981 353 1791 
Q 353 2603 747 3093 
Q 1141 3584 1784 3584 
Q 2172 3584 2450 3431 
Q 2728 3278 2906 2969 
L 2906 3500 
L 3481 3500 
L 3481 434 
z
" transform="scale(0.015625)"/>
      <path id="DejaVuSans-65" d="M 3597 1894 
L 3597 1613 
L 953 1613 
Q 991 1019 1311 708 
Q 1631 397 2203 397 
Q 2534 397 2845 478 
Q 3156 559 3463 722 
L 3463 178 
Q 3153 47 2828 -22 
Q 2503 -91 2169 -91 
Q 1331 -91 842 396 
Q 353 884 353 1716 
Q 353 2575 817 3079 
Q 1281 3584 2069 3584 
Q 2775 3584 3186 3129 
Q 3597 2675 3597 1894 
z
M 3022 2063 
Q 3016 2534 2758 2815 
Q 2500 3097 2075 3097 
Q 1594 3097 1305 2825 
Q 1016 2553 972 2059 
L 3022 2063 
z
" transform="scale(0.015625)"/>
      <path id="DejaVuSans-74" d="M 1172 4494 
L 1172 3500 
L 2356 3500 
L 2356 3053 
L 1172 3053 
L 1172 1153 
Q 1172 725 1289 603 
Q 1406 481 1766 481 
L 2356 481 
L 2356 0 
L 1766 0 
Q 1100 0 847 248 
Q 594 497 594 1153 
L 594 3053 
L 172 3053 
L 172 3500 
L 594 3500 
L 594 4494 
L 1172 4494 
z
" transform="scale(0.015625)"/>
      <path id="DejaVuSans-5f" d="M 3263 -1063 
L 3263 -1509 
L -63 -1509 
L -63 -1063 
L 3263 -1063 
z
" transform="scale(0.015625)"/>
      <path id="DejaVuSans-73" d="M 2834 3397 
L 2834 2853 
Q 2591 2978 2328 3040 
Q 2066 3103 1784 3103 
Q 1356 3103 1142 2972 
Q 928 2841 928 2578 
Q 928 2378 1081 2264 
Q 1234 2150 1697 2047 
L 1894 2003 
Q 2506 1872 2764 1633 
Q 3022 1394 3022 966 
Q 3022 478 2636 193 
Q 2250 -91 1575 -91 
Q 1294 -91 989 -36 
Q 684 19 347 128 
L 347 722 
Q 666 556 975 473 
Q 1284 391 1588 391 
Q 1994 391 2212 530 
Q 2431 669 2431 922 
Q 2431 1156 2273 1281 
Q 2116 1406 1581 1522 
L 1381 1569 
Q 847 1681 609 1914 
Q 372 2147 372 2553 
Q 372 3047 722 3315 
Q 1072 3584 1716 3584 
Q 2034 3584 2315 3537 
Q 2597 3491 2834 3397 
z
" transform="scale(0.015625)"/>
      <path id="DejaVuSans-75" d="M 544 1381 
L 544 3500 
L 1119 3500 
L 1119 1403 
Q 1119 906 1312 657 
Q 1506 409 1894 409 
Q 2359 409 2629 706 
Q 2900 1003 2900 1516 
L 2900 3500 
L 3475 3500 
L 3475 0 
L 2900 0 
L 2900 538 
Q 2691 219 2414 64 
Q 2138 -91 1772 -91 
Q 1169 -91 856 284 
Q 544 659 544 1381 
z
M 1991 3584 
L 1991 3584 
z
" transform="scale(0.015625)"/>
      <path id="DejaVuSans-62" d="M 3116 1747 
Q 3116 2381 2855 2742 
Q 2594 3103 2138 3103 
Q 1681 3103 1420 2742 
Q 1159 2381 1159 1747 
Q 1159 1113 1420 752 
Q 1681 391 2138 391 
Q 2594 391 2855 752 
Q 3116 1113 3116 1747 
z
M 1159 2969 
Q 1341 3281 1617 3432 
Q 1894 3584 2278 3584 
Q 2916 3584 3314 3078 
Q 3713 2572 3713 1747 
Q 3713 922 3314 415 
Q 2916 -91 2278 -91 
Q 1894 -91 1617 61 
Q 1341 213 1159 525 
L 1159 0 
L 581 0 
L 581 4863 
L 1159 4863 
L 1159 2969 
z
" transform="scale(0.015625)"/>
      <path id="DejaVuSans-63" d="M 3122 3366 
L 3122 2828 
Q 2878 2963 2633 3030 
Q 2388 3097 2138 3097 
Q 1578 3097 1268 2742 
Q 959 2388 959 1747 
Q 959 1106 1268 751 
Q 1578 397 2138 397 
Q 2388 397 2633 464 
Q 2878 531 3122 666 
L 3122 134 
Q 2881 22 2623 -34 
Q 2366 -91 2075 -91 
Q 1284 -91 818 406 
Q 353 903 353 1747 
Q 353 2603 823 3093 
Q 1294 3584 2113 3584 
Q 2378 3584 2631 3529 
Q 2884 3475 3122 3366 
z
" transform="scale(0.015625)"/>
      <path id="DejaVuSans-72" d="M 2631 2963 
Q 2534 3019 2420 3045 
Q 2306 3072 2169 3072 
Q 1681 3072 1420 2755 
Q 1159 2438 1159 1844 
L 1159 0 
L 581 0 
L 581 3500 
L 1159 3500 
L 1159 2956 
Q 1341 3275 1631 3429 
Q 1922 3584 2338 3584 
Q 2397 3584 2469 3576 
Q 2541 3569 2628 3553 
L 2631 2963 
z
" transform="scale(0.015625)"/>
      <path id="DejaVuSans-69" d="M 603 3500 
L 1178 3500 
L 1178 0 
L 603 0 
L 603 3500 
z
M 603 4863 
L 1178 4863 
L 1178 4134 
L 603 4134 
L 603 4863 
z
" transform="scale(0.015625)"/>
      <path id="DejaVuSans-20" transform="scale(0.015625)"/>
      <path id="DejaVuSans-68" d="M 3513 2113 
L 3513 0 
L 2938 0 
L 2938 2094 
Q 2938 2591 2744 2837 
Q 2550 3084 2163 3084 
Q 1697 3084 1428 2787 
Q 1159 2491 1159 1978 
L 1159 0 
L 581 0 
L 581 4863 
L 1159 4863 
L 1159 2956 
Q 1366 3272 1645 3428 
Q 1925 3584 2291 3584 
Q 2894 3584 3203 3211 
Q 3513 2838 3513 2113 
z
" transform="scale(0.015625)"/>
      <path id="DejaVuSans-6f" d="M 1959 3097 
Q 1497 3097 1228 2736 
Q 959 2375 959 1747 
Q 959 1119 1226 758 
Q 1494 397 1959 397 
Q 2419 397 2687 759 
Q 2956 1122 2956 1747 
Q 2956 2369 2687 2733 
Q 2419 3097 1959 3097 
z
M 1959 3584 
Q 2709 3584 3137 3096 
Q 3566 2609 3566 1747 
Q 3566 888 3137 398 
Q 2709 -91 1959 -91 
Q 1206 -91 779 398 
Q 353 888 353 1747 
Q 353 2609 779 3096 
Q 1206 3584 1959 3584 
z
" transform="scale(0.015625)"/>
      <path id="DejaVuSans-79" d="M 2059 -325 
Q 1816 -950 1584 -1140 
Q 1353 -1331 966 -1331 
L 506 -1331 
L 506 -850 
L 844 -850 
Q 1081 -850 1212 -737 
Q 1344 -625 1503 -206 
L 1606 56 
L 191 3500 
L 800 3500 
L 1894 763 
L 2988 3500 
L 3597 3500 
L 2059 -325 
z
" transform="scale(0.015625)"/>
     </defs>
     <use xlink:href="#DejaVuSans-67"/>
     <use xlink:href="#DejaVuSans-65" x="63.476562"/>
     <use xlink:href="#DejaVuSans-74" x="125"/>
     <use xlink:href="#DejaVuSans-5f" x="164.208984"/>
     <use xlink:href="#DejaVuSans-73" x="214.208984"/>
     <use xlink:href="#DejaVuSans-75" x="266.308594"/>
     <use xlink:href="#DejaVuSans-62" x="329.6875"/>
     <use xlink:href="#DejaVuSans-73" x="393.164062"/>
     <use xlink:href="#DejaVuSans-63" x="445.263672"/>
     <use xlink:href="#DejaVuSans-72" x="500.244141"/>
     <use xlink:href="#DejaVuSans-69" x="541.357422"/>
     <use xlink:href="#DejaVuSans-62" x="569.140625"/>
     <use xlink:href="#DejaVuSans-65" x="632.617188"/>
     <use xlink:href="#DejaVuSans-20" x="694.140625"/>
     <use xlink:href="#DejaVuSans-68" x="725.927734"/>
     <use xlink:href="#DejaVuSans-69" x="789.306641"/>
     <use xlink:href="#DejaVuSans-73" x="817.089844"/>
     <use xlink:href="#DejaVuSans-74" x="869.189453"/>
     <use xlink:href="#DejaVuSans-6f" x="908.398438"/>
     <use xlink:href="#DejaVuSans-72" x="969.580078"/>
     <use xlink:href="#DejaVuSans-79" x="1010.693359"/>
    </g>
   </g>
   <g id="legend_1">
    <g id="line2d_39">
     <path d="M 815.08 328.498438 
L 825.08 328.498438 
L 835.08 328.498438 
" style="fill: none; stroke: #1f77b4; stroke-width: 1.5; stroke-linecap: square"/>
    </g>
    <g id="text_20">
     <!-- star -->
     <g style="fill: #a9a9a9" transform="translate(843.08 331.998438) scale(0.1 -0.1)">
      <defs>
       <path id="DejaVuSans-61" d="M 2194 1759 
Q 1497 1759 1228 1600 
Q 959 1441 959 1056 
Q 959 750 1161 570 
Q 1363 391 1709 391 
Q 2188 391 2477 730 
Q 2766 1069 2766 1631 
L 2766 1759 
L 2194 1759 
z
M 3341 1997 
L 3341 0 
L 2766 0 
L 2766 531 
Q 2569 213 2275 61 
Q 1981 -91 1556 -91 
Q 1019 -91 701 211 
Q 384 513 384 1019 
Q 384 1609 779 1909 
Q 1175 2209 1959 2209 
L 2766 2209 
L 2766 2266 
Q 2766 2663 2505 2880 
Q 2244 3097 1772 3097 
Q 1472 3097 1187 3025 
Q 903 2953 641 2809 
L 641 3341 
Q 956 3463 1253 3523 
Q 1550 3584 1831 3584 
Q 2591 3584 2966 3190 
Q 3341 2797 3341 1997 
z
" transform="scale(0.015625)"/>
      </defs>
      <use xlink:href="#DejaVuSans-73"/>
      <use xlink:href="#DejaVuSans-74" x="52.099609"/>
      <use xlink:href="#DejaVuSans-61" x="91.308594"/>
      <use xlink:href="#DejaVuSans-72" x="152.587891"/>
     </g>
    </g>
    <g id="line2d_40">
     <path d="M 815.08 343.176562 
L 825.08 343.176562 
L 835.08 343.176562 
" style="fill: none; stroke: #ff7f0e; stroke-width: 1.5; stroke-linecap: square"/>
    </g>
    <g id="text_21">
     <!-- fork -->
     <g style="fill: #a9a9a9" transform="translate(843.08 346.676562) scale(0.1 -0.1)">
      <defs>
       <path id="DejaVuSans-66" d="M 2375 4863 
L 2375 4384 
L 1825 4384 
Q 1516 4384 1395 4259 
Q 1275 4134 1275 3809 
L 1275 3500 
L 2222 3500 
L 2222 3053 
L 1275 3053 
L 1275 0 
L 697 0 
L 697 3053 
L 147 3053 
L 147 3500 
L 697 3500 
L 697 3744 
Q 697 4328 969 4595 
Q 1241 4863 1831 4863 
L 2375 4863 
z
" transform="scale(0.015625)"/>
       <path id="DejaVuSans-6b" d="M 581 4863 
L 1159 4863 
L 1159 1991 
L 2875 3500 
L 3609 3500 
L 1753 1863 
L 3688 0 
L 2938 0 
L 1159 1709 
L 1159 0 
L 581 0 
L 581 4863 
z
" transform="scale(0.015625)"/>
      </defs>
      <use xlink:href="#DejaVuSans-66"/>
      <use xlink:href="#DejaVuSans-6f" x="35.205078"/>
      <use xlink:href="#DejaVuSans-72" x="96.386719"/>
      <use xlink:href="#DejaVuSans-6b" x="137.5"/>
     </g>
    </g>
   </g>
  </g>
 </g>
 <defs>
  <clipPath id="p04cec29fc5">
   <rect x="108" y="43.2" width="669.6" height="277.2"/>
  </clipPath>
 </defs>
</svg>
