<?xml version="1.0" encoding="utf-8" standalone="no"?>
<!DOCTYPE svg PUBLIC "-//W3C//DTD SVG 1.1//EN"
  "http://www.w3.org/Graphics/SVG/1.1/DTD/svg11.dtd">
<svg xmlns:xlink="http://www.w3.org/1999/xlink" width="864pt" height="360pt" viewBox="0 0 864 360" xmlns="http://www.w3.org/2000/svg" version="1.1">
 <metadata>
  <rdf:RDF xmlns:dc="http://purl.org/dc/elements/1.1/" xmlns:cc="http://creativecommons.org/ns#" xmlns:rdf="http://www.w3.org/1999/02/22-rdf-syntax-ns#">
   <cc:Work>
    <dc:type rdf:resource="http://purl.org/dc/dcmitype/StillImage"/>
    <dc:date>2023-08-01T20:21:39.420478</dc:date>
    <dc:format>image/svg+xml</dc:format>
    <dc:creator>
     <cc:Agent>
      <dc:title>Matplotlib v3.7.2, https://matplotlib.org/</dc:title>
     </cc:Agent>
    </dc:creator>
   </cc:Work>
  </rdf:RDF>
 </metadata>
 <defs>
  <style type="text/css">*{stroke-linejoin: round; stroke-linecap: butt}</style>
 </defs>
 <g id="figure_1">
  <g id="patch_1">
   <path d="M 0 360 
L 864 360 
L 864 0 
L 0 0 
L 0 360 
z
" style="fill: none; opacity: 0"/>
  </g>
  <g id="axes_1">
   <g id="patch_2">
    <path d="M 108 320.4 
L 777.6 320.4 
L 777.6 43.2 
L 108 43.2 
L 108 320.4 
z
" style="fill: none; opacity: 0"/>
   </g>
   <g id="matplotlib.axis_1">
    <g id="xtick_1">
     <g id="line2d_1">
      <path d="M 119.465188 320.4 
L 119.465188 43.2 
" clip-path="url(#pc1ee55eda2)" style="fill: none; stroke-dasharray: 5.12,1.28,0.8,1.28; stroke-dashoffset: 0; stroke: #b0b0b0; stroke-width: 0.8"/>
     </g>
     <g id="line2d_2">
      <defs>
       <path id="m6666e03859" d="M 0 0 
L 0 3.5 
" style="stroke: #a9a9a9; stroke-width: 0.8"/>
      </defs>
      <g>
       <use xlink:href="#m6666e03859" x="119.465188" y="320.4" style="fill: #a9a9a9; stroke: #a9a9a9; stroke-width: 0.8"/>
      </g>
     </g>
     <g id="text_1">
      <!-- 2021-07 -->
      <g style="fill: #a9a9a9" transform="translate(98.573782 334.998438) scale(0.1 -0.1)">
       <defs>
        <path id="DejaVuSans-32" d="M 1228 531 
L 3431 531 
L 3431 0 
L 469 0 
L 469 531 
Q 828 903 1448 1529 
Q 2069 2156 2228 2338 
Q 2531 2678 2651 2914 
Q 2772 3150 2772 3378 
Q 2772 3750 2511 3984 
Q 2250 4219 1831 4219 
Q 1534 4219 1204 4116 
Q 875 4013 500 3803 
L 500 4441 
Q 881 4594 1212 4672 
Q 1544 4750 1819 4750 
Q 2544 4750 2975 4387 
Q 3406 4025 3406 3419 
Q 3406 3131 3298 2873 
Q 3191 2616 2906 2266 
Q 2828 2175 2409 1742 
Q 1991 1309 1228 531 
z
" transform="scale(0.015625)"/>
        <path id="DejaVuSans-30" d="M 2034 4250 
Q 1547 4250 1301 3770 
Q 1056 3291 1056 2328 
Q 1056 1369 1301 889 
Q 1547 409 2034 409 
Q 2525 409 2770 889 
Q 3016 1369 3016 2328 
Q 3016 3291 2770 3770 
Q 2525 4250 2034 4250 
z
M 2034 4750 
Q 2819 4750 3233 4129 
Q 3647 3509 3647 2328 
Q 3647 1150 3233 529 
Q 2819 -91 2034 -91 
Q 1250 -91 836 529 
Q 422 1150 422 2328 
Q 422 3509 836 4129 
Q 1250 4750 2034 4750 
z
" transform="scale(0.015625)"/>
        <path id="DejaVuSans-31" d="M 794 531 
L 1825 531 
L 1825 4091 
L 703 3866 
L 703 4441 
L 1819 4666 
L 2450 4666 
L 2450 531 
L 3481 531 
L 3481 0 
L 794 0 
L 794 531 
z
" transform="scale(0.015625)"/>
        <path id="DejaVuSans-2d" d="M 313 2009 
L 1997 2009 
L 1997 1497 
L 313 1497 
L 313 2009 
z
" transform="scale(0.015625)"/>
        <path id="DejaVuSans-37" d="M 525 4666 
L 3525 4666 
L 3525 4397 
L 1831 0 
L 1172 0 
L 2766 4134 
L 525 4134 
L 525 4666 
z
" transform="scale(0.015625)"/>
       </defs>
       <use xlink:href="#DejaVuSans-32"/>
       <use xlink:href="#DejaVuSans-30" x="63.623047"/>
       <use xlink:href="#DejaVuSans-32" x="127.246094"/>
       <use xlink:href="#DejaVuSans-31" x="190.869141"/>
       <use xlink:href="#DejaVuSans-2d" x="254.492188"/>
       <use xlink:href="#DejaVuSans-30" x="290.576172"/>
       <use xlink:href="#DejaVuSans-37" x="354.199219"/>
      </g>
     </g>
    </g>
    <g id="xtick_2">
     <g id="line2d_3">
      <path d="M 195.349889 320.4 
L 195.349889 43.2 
" clip-path="url(#pc1ee55eda2)" style="fill: none; stroke-dasharray: 5.12,1.28,0.8,1.28; stroke-dashoffset: 0; stroke: #b0b0b0; stroke-width: 0.8"/>
     </g>
     <g id="line2d_4">
      <g>
       <use xlink:href="#m6666e03859" x="195.349889" y="320.4" style="fill: #a9a9a9; stroke: #a9a9a9; stroke-width: 0.8"/>
      </g>
     </g>
     <g id="text_2">
      <!-- 2021-10 -->
      <g style="fill: #a9a9a9" transform="translate(174.458483 334.998438) scale(0.1 -0.1)">
       <use xlink:href="#DejaVuSans-32"/>
       <use xlink:href="#DejaVuSans-30" x="63.623047"/>
       <use xlink:href="#DejaVuSans-32" x="127.246094"/>
       <use xlink:href="#DejaVuSans-31" x="190.869141"/>
       <use xlink:href="#DejaVuSans-2d" x="254.492188"/>
       <use xlink:href="#DejaVuSans-31" x="290.576172"/>
       <use xlink:href="#DejaVuSans-30" x="354.199219"/>
      </g>
     </g>
    </g>
    <g id="xtick_3">
     <g id="line2d_5">
      <path d="M 271.23459 320.4 
L 271.23459 43.2 
" clip-path="url(#pc1ee55eda2)" style="fill: none; stroke-dasharray: 5.12,1.28,0.8,1.28; stroke-dashoffset: 0; stroke: #b0b0b0; stroke-width: 0.8"/>
     </g>
     <g id="line2d_6">
      <g>
       <use xlink:href="#m6666e03859" x="271.23459" y="320.4" style="fill: #a9a9a9; stroke: #a9a9a9; stroke-width: 0.8"/>
      </g>
     </g>
     <g id="text_3">
      <!-- 2022-01 -->
      <g style="fill: #a9a9a9" transform="translate(250.343184 334.998438) scale(0.1 -0.1)">
       <use xlink:href="#DejaVuSans-32"/>
       <use xlink:href="#DejaVuSans-30" x="63.623047"/>
       <use xlink:href="#DejaVuSans-32" x="127.246094"/>
       <use xlink:href="#DejaVuSans-32" x="190.869141"/>
       <use xlink:href="#DejaVuSans-2d" x="254.492188"/>
       <use xlink:href="#DejaVuSans-30" x="290.576172"/>
       <use xlink:href="#DejaVuSans-31" x="354.199219"/>
      </g>
     </g>
    </g>
    <g id="xtick_4">
     <g id="line2d_7">
      <path d="M 345.469623 320.4 
L 345.469623 43.2 
" clip-path="url(#pc1ee55eda2)" style="fill: none; stroke-dasharray: 5.12,1.28,0.8,1.28; stroke-dashoffset: 0; stroke: #b0b0b0; stroke-width: 0.8"/>
     </g>
     <g id="line2d_8">
      <g>
       <use xlink:href="#m6666e03859" x="345.469623" y="320.4" style="fill: #a9a9a9; stroke: #a9a9a9; stroke-width: 0.8"/>
      </g>
     </g>
     <g id="text_4">
      <!-- 2022-04 -->
      <g style="fill: #a9a9a9" transform="translate(324.578217 334.998438) scale(0.1 -0.1)">
       <defs>
        <path id="DejaVuSans-34" d="M 2419 4116 
L 825 1625 
L 2419 1625 
L 2419 4116 
z
M 2253 4666 
L 3047 4666 
L 3047 1625 
L 3713 1625 
L 3713 1100 
L 3047 1100 
L 3047 0 
L 2419 0 
L 2419 1100 
L 313 1100 
L 313 1709 
L 2253 4666 
z
" transform="scale(0.015625)"/>
       </defs>
       <use xlink:href="#DejaVuSans-32"/>
       <use xlink:href="#DejaVuSans-30" x="63.623047"/>
       <use xlink:href="#DejaVuSans-32" x="127.246094"/>
       <use xlink:href="#DejaVuSans-32" x="190.869141"/>
       <use xlink:href="#DejaVuSans-2d" x="254.492188"/>
       <use xlink:href="#DejaVuSans-30" x="290.576172"/>
       <use xlink:href="#DejaVuSans-34" x="354.199219"/>
      </g>
     </g>
    </g>
    <g id="xtick_5">
     <g id="line2d_9">
      <path d="M 420.52949 320.4 
L 420.52949 43.2 
" clip-path="url(#pc1ee55eda2)" style="fill: none; stroke-dasharray: 5.12,1.28,0.8,1.28; stroke-dashoffset: 0; stroke: #b0b0b0; stroke-width: 0.8"/>
     </g>
     <g id="line2d_10">
      <g>
       <use xlink:href="#m6666e03859" x="420.52949" y="320.4" style="fill: #a9a9a9; stroke: #a9a9a9; stroke-width: 0.8"/>
      </g>
     </g>
     <g id="text_5">
      <!-- 2022-07 -->
      <g style="fill: #a9a9a9" transform="translate(399.638084 334.998438) scale(0.1 -0.1)">
       <use xlink:href="#DejaVuSans-32"/>
       <use xlink:href="#DejaVuSans-30" x="63.623047"/>
       <use xlink:href="#DejaVuSans-32" x="127.246094"/>
       <use xlink:href="#DejaVuSans-32" x="190.869141"/>
       <use xlink:href="#DejaVuSans-2d" x="254.492188"/>
       <use xlink:href="#DejaVuSans-30" x="290.576172"/>
       <use xlink:href="#DejaVuSans-37" x="354.199219"/>
      </g>
     </g>
    </g>
    <g id="xtick_6">
     <g id="line2d_11">
      <path d="M 496.414191 320.4 
L 496.414191 43.2 
" clip-path="url(#pc1ee55eda2)" style="fill: none; stroke-dasharray: 5.12,1.28,0.8,1.28; stroke-dashoffset: 0; stroke: #b0b0b0; stroke-width: 0.8"/>
     </g>
     <g id="line2d_12">
      <g>
       <use xlink:href="#m6666e03859" x="496.414191" y="320.4" style="fill: #a9a9a9; stroke: #a9a9a9; stroke-width: 0.8"/>
      </g>
     </g>
     <g id="text_6">
      <!-- 2022-10 -->
      <g style="fill: #a9a9a9" transform="translate(475.522784 334.998438) scale(0.1 -0.1)">
       <use xlink:href="#DejaVuSans-32"/>
       <use xlink:href="#DejaVuSans-30" x="63.623047"/>
       <use xlink:href="#DejaVuSans-32" x="127.246094"/>
       <use xlink:href="#DejaVuSans-32" x="190.869141"/>
       <use xlink:href="#DejaVuSans-2d" x="254.492188"/>
       <use xlink:href="#DejaVuSans-31" x="290.576172"/>
       <use xlink:href="#DejaVuSans-30" x="354.199219"/>
      </g>
     </g>
    </g>
    <g id="xtick_7">
     <g id="line2d_13">
      <path d="M 572.298891 320.4 
L 572.298891 43.2 
" clip-path="url(#pc1ee55eda2)" style="fill: none; stroke-dasharray: 5.12,1.28,0.8,1.28; stroke-dashoffset: 0; stroke: #b0b0b0; stroke-width: 0.8"/>
     </g>
     <g id="line2d_14">
      <g>
       <use xlink:href="#m6666e03859" x="572.298891" y="320.4" style="fill: #a9a9a9; stroke: #a9a9a9; stroke-width: 0.8"/>
      </g>
     </g>
     <g id="text_7">
      <!-- 2023-01 -->
      <g style="fill: #a9a9a9" transform="translate(551.407485 334.998438) scale(0.1 -0.1)">
       <defs>
        <path id="DejaVuSans-33" d="M 2597 2516 
Q 3050 2419 3304 2112 
Q 3559 1806 3559 1356 
Q 3559 666 3084 287 
Q 2609 -91 1734 -91 
Q 1441 -91 1130 -33 
Q 819 25 488 141 
L 488 750 
Q 750 597 1062 519 
Q 1375 441 1716 441 
Q 2309 441 2620 675 
Q 2931 909 2931 1356 
Q 2931 1769 2642 2001 
Q 2353 2234 1838 2234 
L 1294 2234 
L 1294 2753 
L 1863 2753 
Q 2328 2753 2575 2939 
Q 2822 3125 2822 3475 
Q 2822 3834 2567 4026 
Q 2313 4219 1838 4219 
Q 1578 4219 1281 4162 
Q 984 4106 628 3988 
L 628 4550 
Q 988 4650 1302 4700 
Q 1616 4750 1894 4750 
Q 2613 4750 3031 4423 
Q 3450 4097 3450 3541 
Q 3450 3153 3228 2886 
Q 3006 2619 2597 2516 
z
" transform="scale(0.015625)"/>
       </defs>
       <use xlink:href="#DejaVuSans-32"/>
       <use xlink:href="#DejaVuSans-30" x="63.623047"/>
       <use xlink:href="#DejaVuSans-32" x="127.246094"/>
       <use xlink:href="#DejaVuSans-33" x="190.869141"/>
       <use xlink:href="#DejaVuSans-2d" x="254.492188"/>
       <use xlink:href="#DejaVuSans-30" x="290.576172"/>
       <use xlink:href="#DejaVuSans-31" x="354.199219"/>
      </g>
     </g>
    </g>
    <g id="xtick_8">
     <g id="line2d_15">
      <path d="M 646.533925 320.4 
L 646.533925 43.2 
" clip-path="url(#pc1ee55eda2)" style="fill: none; stroke-dasharray: 5.12,1.28,0.8,1.28; stroke-dashoffset: 0; stroke: #b0b0b0; stroke-width: 0.8"/>
     </g>
     <g id="line2d_16">
      <g>
       <use xlink:href="#m6666e03859" x="646.533925" y="320.4" style="fill: #a9a9a9; stroke: #a9a9a9; stroke-width: 0.8"/>
      </g>
     </g>
     <g id="text_8">
      <!-- 2023-04 -->
      <g style="fill: #a9a9a9" transform="translate(625.642518 334.998438) scale(0.1 -0.1)">
       <use xlink:href="#DejaVuSans-32"/>
       <use xlink:href="#DejaVuSans-30" x="63.623047"/>
       <use xlink:href="#DejaVuSans-32" x="127.246094"/>
       <use xlink:href="#DejaVuSans-33" x="190.869141"/>
       <use xlink:href="#DejaVuSans-2d" x="254.492188"/>
       <use xlink:href="#DejaVuSans-30" x="290.576172"/>
       <use xlink:href="#DejaVuSans-34" x="354.199219"/>
      </g>
     </g>
    </g>
    <g id="xtick_9">
     <g id="line2d_17">
      <path d="M 721.593792 320.4 
L 721.593792 43.2 
" clip-path="url(#pc1ee55eda2)" style="fill: none; stroke-dasharray: 5.12,1.28,0.8,1.28; stroke-dashoffset: 0; stroke: #b0b0b0; stroke-width: 0.8"/>
     </g>
     <g id="line2d_18">
      <g>
       <use xlink:href="#m6666e03859" x="721.593792" y="320.4" style="fill: #a9a9a9; stroke: #a9a9a9; stroke-width: 0.8"/>
      </g>
     </g>
     <g id="text_9">
      <!-- 2023-07 -->
      <g style="fill: #a9a9a9" transform="translate(700.702385 334.998438) scale(0.1 -0.1)">
       <use xlink:href="#DejaVuSans-32"/>
       <use xlink:href="#DejaVuSans-30" x="63.623047"/>
       <use xlink:href="#DejaVuSans-32" x="127.246094"/>
       <use xlink:href="#DejaVuSans-33" x="190.869141"/>
       <use xlink:href="#DejaVuSans-2d" x="254.492188"/>
       <use xlink:href="#DejaVuSans-30" x="290.576172"/>
       <use xlink:href="#DejaVuSans-37" x="354.199219"/>
      </g>
     </g>
    </g>
   </g>
   <g id="matplotlib.axis_2">
    <g id="ytick_1">
     <g id="line2d_19">
      <path d="M 108 307.854066 
L 777.6 307.854066 
" clip-path="url(#pc1ee55eda2)" style="fill: none; stroke-dasharray: 5.12,1.28,0.8,1.28; stroke-dashoffset: 0; stroke: #b0b0b0; stroke-width: 0.8"/>
     </g>
     <g id="line2d_20">
      <defs>
       <path id="m2b5b80461c" d="M 0 0 
L -3.5 0 
" style="stroke: #a9a9a9; stroke-width: 0.8"/>
      </defs>
      <g>
       <use xlink:href="#m2b5b80461c" x="108" y="307.854066" style="fill: #a9a9a9; stroke: #a9a9a9; stroke-width: 0.8"/>
      </g>
     </g>
     <g id="text_10">
      <!-- 0 -->
      <g style="fill: #a9a9a9" transform="translate(94.6375 311.653284) scale(0.1 -0.1)">
       <use xlink:href="#DejaVuSans-30"/>
      </g>
     </g>
    </g>
    <g id="ytick_2">
     <g id="line2d_21">
      <path d="M 108 275.414675 
L 777.6 275.414675 
" clip-path="url(#pc1ee55eda2)" style="fill: none; stroke-dasharray: 5.12,1.28,0.8,1.28; stroke-dashoffset: 0; stroke: #b0b0b0; stroke-width: 0.8"/>
     </g>
     <g id="line2d_22">
      <g>
       <use xlink:href="#m2b5b80461c" x="108" y="275.414675" style="fill: #a9a9a9; stroke: #a9a9a9; stroke-width: 0.8"/>
      </g>
     </g>
     <g id="text_11">
      <!-- 600 -->
      <g style="fill: #a9a9a9" transform="translate(81.9125 279.213894) scale(0.1 -0.1)">
       <defs>
        <path id="DejaVuSans-36" d="M 2113 2584 
Q 1688 2584 1439 2293 
Q 1191 2003 1191 1497 
Q 1191 994 1439 701 
Q 1688 409 2113 409 
Q 2538 409 2786 701 
Q 3034 994 3034 1497 
Q 3034 2003 2786 2293 
Q 2538 2584 2113 2584 
z
M 3366 4563 
L 3366 3988 
Q 3128 4100 2886 4159 
Q 2644 4219 2406 4219 
Q 1781 4219 1451 3797 
Q 1122 3375 1075 2522 
Q 1259 2794 1537 2939 
Q 1816 3084 2150 3084 
Q 2853 3084 3261 2657 
Q 3669 2231 3669 1497 
Q 3669 778 3244 343 
Q 2819 -91 2113 -91 
Q 1303 -91 875 529 
Q 447 1150 447 2328 
Q 447 3434 972 4092 
Q 1497 4750 2381 4750 
Q 2619 4750 2861 4703 
Q 3103 4656 3366 4563 
z
" transform="scale(0.015625)"/>
       </defs>
       <use xlink:href="#DejaVuSans-36"/>
       <use xlink:href="#DejaVuSans-30" x="63.623047"/>
       <use xlink:href="#DejaVuSans-30" x="127.246094"/>
      </g>
     </g>
    </g>
    <g id="ytick_3">
     <g id="line2d_23">
      <path d="M 108 242.975284 
L 777.6 242.975284 
" clip-path="url(#pc1ee55eda2)" style="fill: none; stroke-dasharray: 5.12,1.28,0.8,1.28; stroke-dashoffset: 0; stroke: #b0b0b0; stroke-width: 0.8"/>
     </g>
     <g id="line2d_24">
      <g>
       <use xlink:href="#m2b5b80461c" x="108" y="242.975284" style="fill: #a9a9a9; stroke: #a9a9a9; stroke-width: 0.8"/>
      </g>
     </g>
     <g id="text_12">
      <!-- 1200 -->
      <g style="fill: #a9a9a9" transform="translate(75.55 246.774503) scale(0.1 -0.1)">
       <use xlink:href="#DejaVuSans-31"/>
       <use xlink:href="#DejaVuSans-32" x="63.623047"/>
       <use xlink:href="#DejaVuSans-30" x="127.246094"/>
       <use xlink:href="#DejaVuSans-30" x="190.869141"/>
      </g>
     </g>
    </g>
    <g id="ytick_4">
     <g id="line2d_25">
      <path d="M 108 210.535894 
L 777.6 210.535894 
" clip-path="url(#pc1ee55eda2)" style="fill: none; stroke-dasharray: 5.12,1.28,0.8,1.28; stroke-dashoffset: 0; stroke: #b0b0b0; stroke-width: 0.8"/>
     </g>
     <g id="line2d_26">
      <g>
       <use xlink:href="#m2b5b80461c" x="108" y="210.535894" style="fill: #a9a9a9; stroke: #a9a9a9; stroke-width: 0.8"/>
      </g>
     </g>
     <g id="text_13">
      <!-- 1800 -->
      <g style="fill: #a9a9a9" transform="translate(75.55 214.335112) scale(0.1 -0.1)">
       <defs>
        <path id="DejaVuSans-38" d="M 2034 2216 
Q 1584 2216 1326 1975 
Q 1069 1734 1069 1313 
Q 1069 891 1326 650 
Q 1584 409 2034 409 
Q 2484 409 2743 651 
Q 3003 894 3003 1313 
Q 3003 1734 2745 1975 
Q 2488 2216 2034 2216 
z
M 1403 2484 
Q 997 2584 770 2862 
Q 544 3141 544 3541 
Q 544 4100 942 4425 
Q 1341 4750 2034 4750 
Q 2731 4750 3128 4425 
Q 3525 4100 3525 3541 
Q 3525 3141 3298 2862 
Q 3072 2584 2669 2484 
Q 3125 2378 3379 2068 
Q 3634 1759 3634 1313 
Q 3634 634 3220 271 
Q 2806 -91 2034 -91 
Q 1263 -91 848 271 
Q 434 634 434 1313 
Q 434 1759 690 2068 
Q 947 2378 1403 2484 
z
M 1172 3481 
Q 1172 3119 1398 2916 
Q 1625 2713 2034 2713 
Q 2441 2713 2670 2916 
Q 2900 3119 2900 3481 
Q 2900 3844 2670 4047 
Q 2441 4250 2034 4250 
Q 1625 4250 1398 4047 
Q 1172 3844 1172 3481 
z
" transform="scale(0.015625)"/>
       </defs>
       <use xlink:href="#DejaVuSans-31"/>
       <use xlink:href="#DejaVuSans-38" x="63.623047"/>
       <use xlink:href="#DejaVuSans-30" x="127.246094"/>
       <use xlink:href="#DejaVuSans-30" x="190.869141"/>
      </g>
     </g>
    </g>
    <g id="ytick_5">
     <g id="line2d_27">
      <path d="M 108 178.096503 
L 777.6 178.096503 
" clip-path="url(#pc1ee55eda2)" style="fill: none; stroke-dasharray: 5.12,1.28,0.8,1.28; stroke-dashoffset: 0; stroke: #b0b0b0; stroke-width: 0.8"/>
     </g>
     <g id="line2d_28">
      <g>
       <use xlink:href="#m2b5b80461c" x="108" y="178.096503" style="fill: #a9a9a9; stroke: #a9a9a9; stroke-width: 0.8"/>
      </g>
     </g>
     <g id="text_14">
      <!-- 2400 -->
      <g style="fill: #a9a9a9" transform="translate(75.55 181.895722) scale(0.1 -0.1)">
       <use xlink:href="#DejaVuSans-32"/>
       <use xlink:href="#DejaVuSans-34" x="63.623047"/>
       <use xlink:href="#DejaVuSans-30" x="127.246094"/>
       <use xlink:href="#DejaVuSans-30" x="190.869141"/>
      </g>
     </g>
    </g>
    <g id="ytick_6">
     <g id="line2d_29">
      <path d="M 108 145.657112 
L 777.6 145.657112 
" clip-path="url(#pc1ee55eda2)" style="fill: none; stroke-dasharray: 5.12,1.28,0.8,1.28; stroke-dashoffset: 0; stroke: #b0b0b0; stroke-width: 0.8"/>
     </g>
     <g id="line2d_30">
      <g>
       <use xlink:href="#m2b5b80461c" x="108" y="145.657112" style="fill: #a9a9a9; stroke: #a9a9a9; stroke-width: 0.8"/>
      </g>
     </g>
     <g id="text_15">
      <!-- 3000 -->
      <g style="fill: #a9a9a9" transform="translate(75.55 149.456331) scale(0.1 -0.1)">
       <use xlink:href="#DejaVuSans-33"/>
       <use xlink:href="#DejaVuSans-30" x="63.623047"/>
       <use xlink:href="#DejaVuSans-30" x="127.246094"/>
       <use xlink:href="#DejaVuSans-30" x="190.869141"/>
      </g>
     </g>
    </g>
    <g id="ytick_7">
     <g id="line2d_31">
      <path d="M 108 113.217722 
L 777.6 113.217722 
" clip-path="url(#pc1ee55eda2)" style="fill: none; stroke-dasharray: 5.12,1.28,0.8,1.28; stroke-dashoffset: 0; stroke: #b0b0b0; stroke-width: 0.8"/>
     </g>
     <g id="line2d_32">
      <g>
       <use xlink:href="#m2b5b80461c" x="108" y="113.217722" style="fill: #a9a9a9; stroke: #a9a9a9; stroke-width: 0.8"/>
      </g>
     </g>
     <g id="text_16">
      <!-- 3600 -->
      <g style="fill: #a9a9a9" transform="translate(75.55 117.01694) scale(0.1 -0.1)">
       <use xlink:href="#DejaVuSans-33"/>
       <use xlink:href="#DejaVuSans-36" x="63.623047"/>
       <use xlink:href="#DejaVuSans-30" x="127.246094"/>
       <use xlink:href="#DejaVuSans-30" x="190.869141"/>
      </g>
     </g>
    </g>
    <g id="ytick_8">
     <g id="line2d_33">
      <path d="M 108 80.778331 
L 777.6 80.778331 
" clip-path="url(#pc1ee55eda2)" style="fill: none; stroke-dasharray: 5.12,1.28,0.8,1.28; stroke-dashoffset: 0; stroke: #b0b0b0; stroke-width: 0.8"/>
     </g>
     <g id="line2d_34">
      <g>
       <use xlink:href="#m2b5b80461c" x="108" y="80.778331" style="fill: #a9a9a9; stroke: #a9a9a9; stroke-width: 0.8"/>
      </g>
     </g>
     <g id="text_17">
      <!-- 4200 -->
      <g style="fill: #a9a9a9" transform="translate(75.55 84.57755) scale(0.1 -0.1)">
       <use xlink:href="#DejaVuSans-34"/>
       <use xlink:href="#DejaVuSans-32" x="63.623047"/>
       <use xlink:href="#DejaVuSans-30" x="127.246094"/>
       <use xlink:href="#DejaVuSans-30" x="190.869141"/>
      </g>
     </g>
    </g>
    <g id="ytick_9">
     <g id="line2d_35">
      <path d="M 108 48.33894 
L 777.6 48.33894 
" clip-path="url(#pc1ee55eda2)" style="fill: none; stroke-dasharray: 5.12,1.28,0.8,1.28; stroke-dashoffset: 0; stroke: #b0b0b0; stroke-width: 0.8"/>
     </g>
     <g id="line2d_36">
      <g>
       <use xlink:href="#m2b5b80461c" x="108" y="48.33894" style="fill: #a9a9a9; stroke: #a9a9a9; stroke-width: 0.8"/>
      </g>
     </g>
     <g id="text_18">
      <!-- 4800 -->
      <g style="fill: #a9a9a9" transform="translate(75.55 52.138159) scale(0.1 -0.1)">
       <use xlink:href="#DejaVuSans-34"/>
       <use xlink:href="#DejaVuSans-38" x="63.623047"/>
       <use xlink:href="#DejaVuSans-30" x="127.246094"/>
       <use xlink:href="#DejaVuSans-30" x="190.869141"/>
      </g>
     </g>
    </g>
   </g>
   <g id="line2d_37">
    <path d="M 138.436364 307.691869 
L 143.385366 307.313409 
L 144.2102 306.989015 
L 146.684701 306.718687 
L 152.458537 305.69144 
L 156.582705 305.31298 
L 157.407539 304.93452 
L 158.232373 304.718258 
L 159.057206 303.745076 
L 159.88204 303.20442 
L 160.706874 301.474319 
L 161.531707 301.366188 
L 162.356541 300.771465 
L 164.006208 300.014546 
L 165.655876 298.825102 
L 166.48071 298.068183 
L 168.130377 297.311264 
L 168.955211 296.98687 
L 169.780044 296.392148 
L 173.079379 295.040506 
L 173.904213 293.796996 
L 174.729047 293.148209 
L 176.378714 292.283158 
L 184.627051 291.147779 
L 185.451885 290.76932 
L 191.225721 290.336795 
L 192.875388 289.904269 
L 194.525055 289.579876 
L 201.123725 288.714825 
L 201.948559 288.2823 
L 202.773392 288.174169 
L 203.598226 287.849775 
L 205.247894 287.579446 
L 206.072727 287.525381 
L 206.897561 287.255053 
L 210.196896 286.768462 
L 211.846563 286.335936 
L 214.321064 286.119674 
L 215.970732 285.957477 
L 216.795565 285.741214 
L 217.620399 285.687149 
L 220.0949 284.984295 
L 225.043902 284.281442 
L 225.868736 284.011113 
L 226.69357 282.9298 
L 229.168071 282.06475 
L 231.642572 281.415962 
L 232.467406 281.037503 
L 233.292239 280.983437 
L 237.416408 279.902124 
L 239.066075 279.793993 
L 239.890909 279.685861 
L 242.36541 278.983008 
L 245.664745 278.226089 
L 246.489579 277.901695 
L 247.314412 277.793564 
L 248.139246 277.415104 
L 256.387583 276.22566 
L 260.511752 275.090281 
L 261.336585 274.60369 
L 264.63592 273.73864 
L 266.285588 272.819524 
L 267.110421 272.278867 
L 267.935255 272.170736 
L 268.760089 271.900408 
L 271.23459 271.467882 
L 272.059424 271.089423 
L 273.709091 270.819095 
L 275.358758 270.062175 
L 279.482927 269.088994 
L 281.957428 268.494272 
L 282.782262 268.169878 
L 283.607095 268.007681 
L 284.431929 267.683287 
L 285.256763 267.575156 
L 286.081596 267.196696 
L 286.90643 266.980433 
L 288.556098 266.872302 
L 290.205765 266.331646 
L 291.855432 266.223514 
L 292.680266 265.845055 
L 295.979601 265.304398 
L 299.278936 265.03407 
L 300.103769 264.871873 
L 301.753437 264.114954 
L 310.826608 260.492555 
L 311.651441 260.06003 
L 312.476275 259.19498 
L 313.301109 257.897404 
L 314.125942 256.870157 
L 314.950776 256.653894 
L 315.77561 256.653894 
L 317.425277 255.46445 
L 318.250111 255.248187 
L 319.074945 254.815662 
L 319.899778 254.653465 
L 320.724612 253.950611 
L 321.549446 253.734349 
L 324.023947 252.59897 
L 324.84878 251.625788 
L 325.673614 250.436344 
L 326.498448 249.949753 
L 327.323282 248.652178 
L 328.148115 247.841193 
L 328.972949 247.462733 
L 329.797783 247.246471 
L 331.44745 246.273289 
L 332.272284 245.894829 
L 335.571619 243.515941 
L 336.396452 242.380562 
L 337.221286 240.54233 
L 338.04612 239.352886 
L 338.870953 238.758163 
L 339.695787 238.43377 
L 342.995122 235.730487 
L 344.644789 234.541043 
L 345.469623 233.838189 
L 346.294457 232.702811 
L 347.11929 231.945891 
L 349.593792 230.269856 
L 351.243459 229.188543 
L 352.068293 228.48569 
L 352.893126 228.269427 
L 355.367627 227.025917 
L 357.017295 226.106801 
L 357.842129 225.782407 
L 359.491796 224.322635 
L 360.31663 223.349453 
L 361.966297 222.26814 
L 362.791131 222.051877 
L 363.615965 221.619352 
L 364.440798 221.02463 
L 366.090466 220.159579 
L 366.915299 220.051448 
L 368.564967 219.186398 
L 369.3898 218.753873 
L 370.214634 217.942888 
L 371.039468 217.456297 
L 371.864302 217.185969 
L 372.689135 216.645312 
L 375.98847 215.023343 
L 376.813304 214.320489 
L 380.112639 213.239176 
L 380.937472 212.69852 
L 381.762306 212.536323 
L 383.411973 211.995666 
L 385.886475 211.07655 
L 388.360976 210.2115 
L 390.010643 209.941171 
L 391.66031 208.58953 
L 393.309978 207.832611 
L 395.784479 206.48097 
L 397.434146 206.048445 
L 398.25898 205.561854 
L 399.083814 205.345591 
L 401.558315 203.831753 
L 404.032816 203.291096 
L 406.507317 202.426046 
L 408.156984 201.50693 
L 408.981818 201.398799 
L 409.806652 201.12847 
L 411.456319 200.804076 
L 413.93082 199.073976 
L 416.405322 198.533319 
L 417.230155 198.262991 
L 418.054989 197.668269 
L 423.003991 196.15443 
L 423.828825 196.100365 
L 429.602661 194.154001 
L 430.427494 193.775542 
L 432.901996 193.234885 
L 434.551663 192.856426 
L 435.376497 192.477966 
L 436.20133 192.315769 
L 438.675831 191.234456 
L 441.150333 189.990946 
L 441.975166 189.45029 
L 442.8 189.234027 
L 445.274501 187.990517 
L 446.924169 187.612057 
L 448.573836 186.801073 
L 450.223503 186.368548 
L 451.048337 186.260416 
L 451.873171 185.71976 
L 452.698004 185.3413 
L 453.522838 185.179103 
L 455.172506 184.530315 
L 455.997339 184.368118 
L 456.822173 183.935593 
L 460.121508 183.449002 
L 461.771175 182.692083 
L 462.596009 182.043295 
L 463.420843 180.637589 
L 465.07051 180.313195 
L 465.895344 180.150998 
L 469.194678 178.529028 
L 470.019512 178.366831 
L 474.968514 176.042008 
L 475.793348 175.501352 
L 476.618182 175.176958 
L 479.092683 174.690367 
L 480.74235 173.933448 
L 481.567184 173.609054 
L 482.392018 173.500923 
L 485.691353 172.095216 
L 487.34102 171.013903 
L 488.165854 170.635443 
L 488.990687 170.527312 
L 489.815521 170.256983 
L 490.640355 170.202918 
L 493.93969 169.17567 
L 494.764523 169.121605 
L 495.589357 168.526883 
L 497.239024 167.986226 
L 499.713525 167.229307 
L 500.538359 166.742716 
L 501.363193 166.526454 
L 502.188027 165.985797 
L 503.01286 165.661403 
L 503.837694 165.174812 
L 505.487361 164.58009 
L 506.312195 164.363828 
L 507.137029 163.985368 
L 507.961863 163.769105 
L 508.786696 163.390646 
L 509.61153 162.795924 
L 510.436364 161.930873 
L 511.261197 161.390217 
L 512.086031 161.22802 
L 513.735698 160.038575 
L 514.560532 159.876378 
L 515.385366 158.686934 
L 516.2102 158.36254 
L 517.035033 157.767818 
L 517.859867 157.659687 
L 518.684701 157.11903 
L 519.509534 156.740571 
L 520.334368 156.578374 
L 521.159202 156.25398 
L 521.984035 155.605192 
L 522.808869 155.334864 
L 525.28337 153.76696 
L 528.582705 152.199056 
L 529.407539 152.090925 
L 531.057206 151.388071 
L 531.88204 150.90148 
L 532.706874 149.603905 
L 533.531707 148.79292 
L 534.356541 148.360395 
L 535.181375 148.198198 
L 536.831042 147.225016 
L 537.655876 147.062819 
L 539.305543 146.3059 
L 541.780044 145.278653 
L 543.429712 144.19734 
L 545.079379 142.521304 
L 546.729047 141.548123 
L 547.55388 141.061532 
L 548.378714 140.250547 
L 550.853215 138.304184 
L 551.678049 137.871658 
L 552.502882 137.006608 
L 553.327716 136.411886 
L 554.977384 135.871229 
L 555.802217 135.11431 
L 557.451885 134.303325 
L 558.276718 134.087063 
L 559.101552 133.492341 
L 559.926386 133.276078 
L 562.400887 132.032568 
L 563.225721 131.437846 
L 564.050554 131.005321 
L 571.474058 128.518301 
L 572.298891 128.085776 
L 573.123725 127.382922 
L 576.42306 126.193478 
L 577.247894 125.977215 
L 578.072727 125.382493 
L 580.547228 124.30118 
L 581.372062 123.706458 
L 582.196896 123.273933 
L 583.846563 120.138125 
L 585.496231 118.299893 
L 586.321064 117.759236 
L 588.795565 116.731989 
L 589.620399 116.461661 
L 590.445233 116.353529 
L 591.270067 115.921004 
L 593.744568 115.164085 
L 596.219069 114.190903 
L 597.868736 113.055525 
L 600.343237 111.974212 
L 604.467406 109.703454 
L 605.292239 108.892469 
L 606.941907 108.027419 
L 607.766741 107.594894 
L 608.591574 107.324566 
L 609.416408 106.729843 
L 611.066075 105.972924 
L 611.890909 105.486333 
L 612.715743 105.161939 
L 613.540576 104.675349 
L 614.36541 104.459086 
L 615.190244 103.864364 
L 616.015078 103.53997 
L 616.839911 103.377773 
L 618.489579 102.728985 
L 620.96408 101.863935 
L 621.788914 101.269213 
L 623.438581 100.836687 
L 625.088248 100.241965 
L 625.913082 99.593177 
L 627.562749 99.106587 
L 628.387583 98.728127 
L 629.212417 98.511864 
L 630.862084 97.430551 
L 632.511752 96.727698 
L 634.161419 95.538254 
L 635.811086 94.997597 
L 636.63592 94.294744 
L 637.460754 94.132547 
L 638.285588 93.429693 
L 639.935255 92.510577 
L 641.584922 91.861789 
L 642.409756 91.050805 
L 644.884257 90.293885 
L 645.709091 89.807295 
L 646.533925 89.699163 
L 649.008426 88.509719 
L 652.307761 87.536537 
L 653.957428 87.320275 
L 654.782262 86.995881 
L 655.607095 86.833684 
L 657.256763 86.184896 
L 658.081596 86.13083 
L 660.556098 85.319846 
L 662.205765 84.346664 
L 663.855432 83.265351 
L 668.804435 80.940528 
L 671.278936 79.372624 
L 672.928603 78.994164 
L 675.403104 77.642523 
L 677.877605 76.885604 
L 678.702439 76.56121 
L 680.352106 76.18275 
L 684.476275 74.885175 
L 686.125942 74.560781 
L 687.77561 74.182321 
L 688.600443 73.803862 
L 689.425277 73.695731 
L 691.074945 73.046943 
L 691.899778 72.938811 
L 692.724612 72.560352 
L 694.374279 72.235958 
L 695.199113 71.857498 
L 697.673614 71.316842 
L 699.323282 70.992448 
L 706.746785 69.532675 
L 707.571619 69.208281 
L 708.396452 69.154216 
L 710.870953 68.451362 
L 711.695787 68.018837 
L 713.345455 67.478181 
L 714.170288 67.424115 
L 718.294457 66.234671 
L 724.068293 64.342373 
L 724.893126 64.342373 
L 726.542794 63.801716 
L 727.367627 62.990732 
L 728.192461 62.612272 
L 729.842129 62.125681 
L 737.265632 59.206136 
L 738.090466 59.098005 
L 738.915299 58.66548 
L 740.564967 58.178889 
L 741.3898 57.692298 
L 742.214634 57.476035 
L 743.039468 56.827247 
L 744.689135 56.502853 
L 745.513969 56.340657 
L 746.338803 55.962197 
L 747.163636 55.8 
L 747.163636 55.8 
" clip-path="url(#pc1ee55eda2)" style="fill: none; stroke: #1f77b4; stroke-width: 1.5; stroke-linecap: square"/>
   </g>
   <g id="line2d_38">
    <path d="M 139.261197 307.8 
L 141.735698 307.691869 
L 143.385366 307.583737 
L 149.159202 307.475606 
L 153.28337 307.313409 
L 156.582705 307.313409 
L 157.407539 307.097147 
L 159.88204 307.043081 
L 164.831042 306.502424 
L 177.203548 305.799571 
L 183.802217 305.69144 
L 187.926386 305.529243 
L 197.82439 305.421111 
L 201.948559 305.258914 
L 206.897561 305.150783 
L 210.196896 305.042652 
L 217.620399 304.93452 
L 220.0949 304.880455 
L 222.569401 304.826389 
L 225.043902 304.556061 
L 229.992905 304.501995 
L 231.642572 304.393864 
L 237.416408 304.285733 
L 246.489579 303.799142 
L 252.263415 303.691011 
L 253.913082 303.582879 
L 256.387583 303.474748 
L 261.336585 303.258485 
L 264.63592 303.20442 
L 267.110421 302.988157 
L 281.132594 302.177172 
L 283.607095 302.069041 
L 289.380931 301.798713 
L 291.855432 301.690581 
L 300.103769 301.258056 
L 309.17694 301.149925 
L 312.476275 300.825531 
L 314.125942 300.7174 
L 323.199113 300.068612 
L 324.023947 299.852349 
L 326.498448 299.636087 
L 328.148115 299.257627 
L 330.622616 299.203561 
L 333.097118 299.09543 
L 339.695787 298.284445 
L 343.819956 298.176314 
L 354.542794 297.365329 
L 359.491796 296.824673 
L 361.966297 296.770607 
L 363.615965 296.662476 
L 366.915299 296.554345 
L 368.564967 296.446213 
L 372.689135 296.067754 
L 373.513969 295.851491 
L 378.462971 295.635228 
L 382.58714 295.527097 
L 394.134812 294.878309 
L 395.784479 294.770178 
L 406.507317 294.175456 
L 412.281153 294.067325 
L 413.105987 293.905128 
L 419.704656 293.796996 
L 425.478492 293.526668 
L 434.551663 293.418537 
L 440.325499 293.148209 
L 446.924169 293.040077 
L 454.347672 292.661618 
L 459.296674 292.553486 
L 474.968514 291.63437 
L 481.567184 291.526239 
L 485.691353 291.147779 
L 487.34102 290.985582 
L 491.465188 290.931517 
L 494.764523 290.607123 
L 503.01286 290.174598 
L 507.961863 290.066466 
L 510.436364 290.012401 
L 512.910865 289.958335 
L 515.385366 289.688007 
L 521.984035 289.579876 
L 523.633703 289.309547 
L 525.28337 289.201416 
L 528.582705 289.093285 
L 530.232373 289.093285 
L 531.88204 288.822956 
L 540.130377 288.714825 
L 541.780044 288.552628 
L 545.079379 288.444497 
L 545.904213 288.228234 
L 547.55388 288.174169 
L 548.378714 288.011972 
L 550.853215 287.90384 
L 568.174723 286.876593 
L 573.948559 286.768462 
L 576.42306 286.714396 
L 584.671397 286.606265 
L 586.321064 286.390002 
L 592.919734 286.281871 
L 596.219069 286.17374 
L 601.992905 286.065608 
L 604.467406 285.849346 
L 611.890909 285.470886 
L 613.540576 285.362755 
L 616.839911 285.254623 
L 620.96408 285.146492 
L 625.088248 284.984295 
L 630.862084 284.876164 
L 634.161419 284.768033 
L 643.23459 284.659901 
L 648.183592 284.443639 
L 653.132594 284.335507 
L 655.607095 284.065179 
L 660.556098 284.011113 
L 661.380931 283.848917 
L 663.030599 283.740785 
L 666.329933 283.632654 
L 676.227938 283.524523 
L 680.352106 283.362326 
L 694.374279 283.30826 
L 696.023947 283.200129 
L 698.498448 283.146063 
L 709.221286 283.037932 
L 710.870953 282.9298 
L 719.944124 282.821669 
L 723.243459 282.713538 
L 733.141463 282.659472 
L 734.791131 282.551341 
L 747.163636 282.497275 
L 747.163636 282.497275 
" clip-path="url(#pc1ee55eda2)" style="fill: none; stroke: #ff7f0e; stroke-width: 1.5; stroke-linecap: square"/>
   </g>
   <g id="patch_3">
    <path d="M 108 320.4 
L 108 43.2 
" style="fill: none; stroke: #a9a9a9; stroke-width: 0.8; stroke-linejoin: miter; stroke-linecap: square"/>
   </g>
   <g id="patch_4">
    <path d="M 777.6 320.4 
L 777.6 43.2 
" style="fill: none"/>
   </g>
   <g id="patch_5">
    <path d="M 108 320.4 
L 777.6 320.4 
" style="fill: none; stroke: #a9a9a9; stroke-width: 0.8; stroke-linejoin: miter; stroke-linecap: square"/>
   </g>
   <g id="patch_6">
    <path d="M 108 43.2 
L 777.6 43.2 
" style="fill: none"/>
   </g>
   <g id="text_19">
    <!-- get_subscribe history -->
    <g style="fill: #a9a9a9" transform="translate(378.6075 37.2) scale(0.12 -0.12)">
     <defs>
      <path id="DejaVuSans-67" d="M 2906 1791 
Q 2906 2416 2648 2759 
Q 2391 3103 1925 3103 
Q 1463 3103 1205 2759 
Q 947 2416 947 1791 
Q 947 1169 1205 825 
Q 1463 481 1925 481 
Q 2391 481 2648 825 
Q 2906 1169 2906 1791 
z
M 3481 434 
Q 3481 -459 3084 -895 
Q 2688 -1331 1869 -1331 
Q 1566 -1331 1297 -1286 
Q 1028 -1241 775 -1147 
L 775 -588 
Q 1028 -725 1275 -790 
Q 1522 -856 1778 -856 
Q 2344 -856 2625 -561 
Q 2906 -266 2906 331 
L 2906 616 
Q 2728 306 2450 153 
Q 2172 0 1784 0 
Q 1141 0 747 490 
Q 353 981 353 1791 
Q 353 2603 747 3093 
Q 1141 3584 1784 3584 
Q 2172 3584 2450 3431 
Q 2728 3278 2906 2969 
L 2906 3500 
L 3481 3500 
L 3481 434 
z
" transform="scale(0.015625)"/>
      <path id="DejaVuSans-65" d="M 3597 1894 
L 3597 1613 
L 953 1613 
Q 991 1019 1311 708 
Q 1631 397 2203 397 
Q 2534 397 2845 478 
Q 3156 559 3463 722 
L 3463 178 
Q 3153 47 2828 -22 
Q 2503 -91 2169 -91 
Q 1331 -91 842 396 
Q 353 884 353 1716 
Q 353 2575 817 3079 
Q 1281 3584 2069 3584 
Q 2775 3584 3186 3129 
Q 3597 2675 3597 1894 
z
M 3022 2063 
Q 3016 2534 2758 2815 
Q 2500 3097 2075 3097 
Q 1594 3097 1305 2825 
Q 1016 2553 972 2059 
L 3022 2063 
z
" transform="scale(0.015625)"/>
      <path id="DejaVuSans-74" d="M 1172 4494 
L 1172 3500 
L 2356 3500 
L 2356 3053 
L 1172 3053 
L 1172 1153 
Q 1172 725 1289 603 
Q 1406 481 1766 481 
L 2356 481 
L 2356 0 
L 1766 0 
Q 1100 0 847 248 
Q 594 497 594 1153 
L 594 3053 
L 172 3053 
L 172 3500 
L 594 3500 
L 594 4494 
L 1172 4494 
z
" transform="scale(0.015625)"/>
      <path id="DejaVuSans-5f" d="M 3263 -1063 
L 3263 -1509 
L -63 -1509 
L -63 -1063 
L 3263 -1063 
z
" transform="scale(0.015625)"/>
      <path id="DejaVuSans-73" d="M 2834 3397 
L 2834 2853 
Q 2591 2978 2328 3040 
Q 2066 3103 1784 3103 
Q 1356 3103 1142 2972 
Q 928 2841 928 2578 
Q 928 2378 1081 2264 
Q 1234 2150 1697 2047 
L 1894 2003 
Q 2506 1872 2764 1633 
Q 3022 1394 3022 966 
Q 3022 478 2636 193 
Q 2250 -91 1575 -91 
Q 1294 -91 989 -36 
Q 684 19 347 128 
L 347 722 
Q 666 556 975 473 
Q 1284 391 1588 391 
Q 1994 391 2212 530 
Q 2431 669 2431 922 
Q 2431 1156 2273 1281 
Q 2116 1406 1581 1522 
L 1381 1569 
Q 847 1681 609 1914 
Q 372 2147 372 2553 
Q 372 3047 722 3315 
Q 1072 3584 1716 3584 
Q 2034 3584 2315 3537 
Q 2597 3491 2834 3397 
z
" transform="scale(0.015625)"/>
      <path id="DejaVuSans-75" d="M 544 1381 
L 544 3500 
L 1119 3500 
L 1119 1403 
Q 1119 906 1312 657 
Q 1506 409 1894 409 
Q 2359 409 2629 706 
Q 2900 1003 2900 1516 
L 2900 3500 
L 3475 3500 
L 3475 0 
L 2900 0 
L 2900 538 
Q 2691 219 2414 64 
Q 2138 -91 1772 -91 
Q 1169 -91 856 284 
Q 544 659 544 1381 
z
M 1991 3584 
L 1991 3584 
z
" transform="scale(0.015625)"/>
      <path id="DejaVuSans-62" d="M 3116 1747 
Q 3116 2381 2855 2742 
Q 2594 3103 2138 3103 
Q 1681 3103 1420 2742 
Q 1159 2381 1159 1747 
Q 1159 1113 1420 752 
Q 1681 391 2138 391 
Q 2594 391 2855 752 
Q 3116 1113 3116 1747 
z
M 1159 2969 
Q 1341 3281 1617 3432 
Q 1894 3584 2278 3584 
Q 2916 3584 3314 3078 
Q 3713 2572 3713 1747 
Q 3713 922 3314 415 
Q 2916 -91 2278 -91 
Q 1894 -91 1617 61 
Q 1341 213 1159 525 
L 1159 0 
L 581 0 
L 581 4863 
L 1159 4863 
L 1159 2969 
z
" transform="scale(0.015625)"/>
      <path id="DejaVuSans-63" d="M 3122 3366 
L 3122 2828 
Q 2878 2963 2633 3030 
Q 2388 3097 2138 3097 
Q 1578 3097 1268 2742 
Q 959 2388 959 1747 
Q 959 1106 1268 751 
Q 1578 397 2138 397 
Q 2388 397 2633 464 
Q 2878 531 3122 666 
L 3122 134 
Q 2881 22 2623 -34 
Q 2366 -91 2075 -91 
Q 1284 -91 818 406 
Q 353 903 353 1747 
Q 353 2603 823 3093 
Q 1294 3584 2113 3584 
Q 2378 3584 2631 3529 
Q 2884 3475 3122 3366 
z
" transform="scale(0.015625)"/>
      <path id="DejaVuSans-72" d="M 2631 2963 
Q 2534 3019 2420 3045 
Q 2306 3072 2169 3072 
Q 1681 3072 1420 2755 
Q 1159 2438 1159 1844 
L 1159 0 
L 581 0 
L 581 3500 
L 1159 3500 
L 1159 2956 
Q 1341 3275 1631 3429 
Q 1922 3584 2338 3584 
Q 2397 3584 2469 3576 
Q 2541 3569 2628 3553 
L 2631 2963 
z
" transform="scale(0.015625)"/>
      <path id="DejaVuSans-69" d="M 603 3500 
L 1178 3500 
L 1178 0 
L 603 0 
L 603 3500 
z
M 603 4863 
L 1178 4863 
L 1178 4134 
L 603 4134 
L 603 4863 
z
" transform="scale(0.015625)"/>
      <path id="DejaVuSans-20" transform="scale(0.015625)"/>
      <path id="DejaVuSans-68" d="M 3513 2113 
L 3513 0 
L 2938 0 
L 2938 2094 
Q 2938 2591 2744 2837 
Q 2550 3084 2163 3084 
Q 1697 3084 1428 2787 
Q 1159 2491 1159 1978 
L 1159 0 
L 581 0 
L 581 4863 
L 1159 4863 
L 1159 2956 
Q 1366 3272 1645 3428 
Q 1925 3584 2291 3584 
Q 2894 3584 3203 3211 
Q 3513 2838 3513 2113 
z
" transform="scale(0.015625)"/>
      <path id="DejaVuSans-6f" d="M 1959 3097 
Q 1497 3097 1228 2736 
Q 959 2375 959 1747 
Q 959 1119 1226 758 
Q 1494 397 1959 397 
Q 2419 397 2687 759 
Q 2956 1122 2956 1747 
Q 2956 2369 2687 2733 
Q 2419 3097 1959 3097 
z
M 1959 3584 
Q 2709 3584 3137 3096 
Q 3566 2609 3566 1747 
Q 3566 888 3137 398 
Q 2709 -91 1959 -91 
Q 1206 -91 779 398 
Q 353 888 353 1747 
Q 353 2609 779 3096 
Q 1206 3584 1959 3584 
z
" transform="scale(0.015625)"/>
      <path id="DejaVuSans-79" d="M 2059 -325 
Q 1816 -950 1584 -1140 
Q 1353 -1331 966 -1331 
L 506 -1331 
L 506 -850 
L 844 -850 
Q 1081 -850 1212 -737 
Q 1344 -625 1503 -206 
L 1606 56 
L 191 3500 
L 800 3500 
L 1894 763 
L 2988 3500 
L 3597 3500 
L 2059 -325 
z
" transform="scale(0.015625)"/>
     </defs>
     <use xlink:href="#DejaVuSans-67"/>
     <use xlink:href="#DejaVuSans-65" x="63.476562"/>
     <use xlink:href="#DejaVuSans-74" x="125"/>
     <use xlink:href="#DejaVuSans-5f" x="164.208984"/>
     <use xlink:href="#DejaVuSans-73" x="214.208984"/>
     <use xlink:href="#DejaVuSans-75" x="266.308594"/>
     <use xlink:href="#DejaVuSans-62" x="329.6875"/>
     <use xlink:href="#DejaVuSans-73" x="393.164062"/>
     <use xlink:href="#DejaVuSans-63" x="445.263672"/>
     <use xlink:href="#DejaVuSans-72" x="500.244141"/>
     <use xlink:href="#DejaVuSans-69" x="541.357422"/>
     <use xlink:href="#DejaVuSans-62" x="569.140625"/>
     <use xlink:href="#DejaVuSans-65" x="632.617188"/>
     <use xlink:href="#DejaVuSans-20" x="694.140625"/>
     <use xlink:href="#DejaVuSans-68" x="725.927734"/>
     <use xlink:href="#DejaVuSans-69" x="789.306641"/>
     <use xlink:href="#DejaVuSans-73" x="817.089844"/>
     <use xlink:href="#DejaVuSans-74" x="869.189453"/>
     <use xlink:href="#DejaVuSans-6f" x="908.398438"/>
     <use xlink:href="#DejaVuSans-72" x="969.580078"/>
     <use xlink:href="#DejaVuSans-79" x="1010.693359"/>
    </g>
   </g>
   <g id="legend_1">
    <g id="line2d_39">
     <path d="M 815.08 328.498438 
L 825.08 328.498438 
L 835.08 328.498438 
" style="fill: none; stroke: #1f77b4; stroke-width: 1.5; stroke-linecap: square"/>
    </g>
    <g id="text_20">
     <!-- star -->
     <g style="fill: #a9a9a9" transform="translate(843.08 331.998438) scale(0.1 -0.1)">
      <defs>
       <path id="DejaVuSans-61" d="M 2194 1759 
Q 1497 1759 1228 1600 
Q 959 1441 959 1056 
Q 959 750 1161 570 
Q 1363 391 1709 391 
Q 2188 391 2477 730 
Q 2766 1069 2766 1631 
L 2766 1759 
L 2194 1759 
z
M 3341 1997 
L 3341 0 
L 2766 0 
L 2766 531 
Q 2569 213 2275 61 
Q 1981 -91 1556 -91 
Q 1019 -91 701 211 
Q 384 513 384 1019 
Q 384 1609 779 1909 
Q 1175 2209 1959 2209 
L 2766 2209 
L 2766 2266 
Q 2766 2663 2505 2880 
Q 2244 3097 1772 3097 
Q 1472 3097 1187 3025 
Q 903 2953 641 2809 
L 641 3341 
Q 956 3463 1253 3523 
Q 1550 3584 1831 3584 
Q 2591 3584 2966 3190 
Q 3341 2797 3341 1997 
z
" transform="scale(0.015625)"/>
      </defs>
      <use xlink:href="#DejaVuSans-73"/>
      <use xlink:href="#DejaVuSans-74" x="52.099609"/>
      <use xlink:href="#DejaVuSans-61" x="91.308594"/>
      <use xlink:href="#DejaVuSans-72" x="152.587891"/>
     </g>
    </g>
    <g id="line2d_40">
     <path d="M 815.08 343.176562 
L 825.08 343.176562 
L 835.08 343.176562 
" style="fill: none; stroke: #ff7f0e; stroke-width: 1.5; stroke-linecap: square"/>
    </g>
    <g id="text_21">
     <!-- fork -->
     <g style="fill: #a9a9a9" transform="translate(843.08 346.676562) scale(0.1 -0.1)">
      <defs>
       <path id="DejaVuSans-66" d="M 2375 4863 
L 2375 4384 
L 1825 4384 
Q 1516 4384 1395 4259 
Q 1275 4134 1275 3809 
L 1275 3500 
L 2222 3500 
L 2222 3053 
L 1275 3053 
L 1275 0 
L 697 0 
L 697 3053 
L 147 3053 
L 147 3500 
L 697 3500 
L 697 3744 
Q 697 4328 969 4595 
Q 1241 4863 1831 4863 
L 2375 4863 
z
" transform="scale(0.015625)"/>
       <path id="DejaVuSans-6b" d="M 581 4863 
L 1159 4863 
L 1159 1991 
L 2875 3500 
L 3609 3500 
L 1753 1863 
L 3688 0 
L 2938 0 
L 1159 1709 
L 1159 0 
L 581 0 
L 581 4863 
z
" transform="scale(0.015625)"/>
      </defs>
      <use xlink:href="#DejaVuSans-66"/>
      <use xlink:href="#DejaVuSans-6f" x="35.205078"/>
      <use xlink:href="#DejaVuSans-72" x="96.386719"/>
      <use xlink:href="#DejaVuSans-6b" x="137.5"/>
     </g>
    </g>
   </g>
  </g>
 </g>
 <defs>
  <clipPath id="pc1ee55eda2">
   <rect x="108" y="43.2" width="669.6" height="277.2"/>
  </clipPath>
 </defs>
</svg>
